<svg width="63" height="56" viewBox="0 0 63 56" fill="none" xmlns="http://www.w3.org/2000/svg">
<g clip-path="url(#clip0)">
<path d="M8.67871 54.8333C8.67871 55.4773 9.25334 56 9.96136 56H53.5715C54.2795 56 54.8541 55.4773 54.8541 54.8333V3.5C54.8541 2.856 54.2795 2.33333 53.5715 2.33333H42.0276V1.16667C42.0276 0.522667 41.453 0 40.745 0H22.7879C22.0798 0 21.5052 0.522667 21.5052 1.16667V2.33333H9.96136C9.25334 2.33333 8.67871 2.856 8.67871 3.5V54.8333ZM24.0705 2.33333H39.4623V4.66667H24.0705V2.33333ZM11.244 4.66667H21.5052V5.83333C21.5052 6.47733 22.0798 7 22.7879 7H40.745C41.453 7 42.0276 6.47733 42.0276 5.83333V4.66667H52.2888V53.6667H11.244V4.66667Z" fill="#4D565F"/>
<path d="M45.875 14H17.6567C16.9487 14 16.374 14.5227 16.374 15.1667C16.374 15.8107 16.9487 16.3333 17.6567 16.3333H45.875C46.583 16.3333 47.1576 15.8107 47.1576 15.1667C47.1576 14.5227 46.583 14 45.875 14Z" fill="#27AE60"/>
<path d="M45.875 21H17.6567C16.9487 21 16.374 21.5227 16.374 22.1667C16.374 22.8107 16.9487 23.3333 17.6567 23.3333H45.875C46.583 23.3333 47.1576 22.8107 47.1576 22.1667C47.1576 21.5227 46.583 21 45.875 21Z" fill="#27AE60"/>
<path d="M45.875 28H17.6567C16.9487 28 16.374 28.5227 16.374 29.1667C16.374 29.8107 16.9487 30.3333 17.6567 30.3333H45.875C46.583 30.3333 47.1576 29.8107 47.1576 29.1667C47.1576 28.5227 46.583 28 45.875 28Z" fill="#27AE60"/>
<path d="M45.875 35H17.6567C16.9487 35 16.374 35.5227 16.374 36.1667C16.374 36.8107 16.9487 37.3333 17.6567 37.3333H45.875C46.583 37.3333 47.1576 36.8107 47.1576 36.1667C47.1576 35.5227 46.583 35 45.875 35Z" fill="#27AE60"/>
<path d="M45.8751 42C44.3616 42 43.6228 43.0733 43.1816 43.7127C43.0354 43.925 42.7917 44.2797 42.6531 44.3357C42.5351 44.282 42.2889 43.925 42.1426 43.7127C41.704 43.0733 40.9626 42 39.4516 42C37.9407 42 37.2019 43.0733 36.7606 43.715C36.6144 43.9273 36.3733 44.2797 36.2424 44.3357C36.1244 44.282 35.8807 43.9273 35.7371 43.715C35.2958 43.0757 34.5596 42 33.0486 42C32.3406 42 31.7686 42.5227 31.7686 43.1643C31.7686 43.8083 32.3457 44.331 33.0538 44.331C33.1718 44.3847 33.4155 44.7393 33.5591 44.9517C34.0004 45.5933 34.7366 46.6667 36.2476 46.6667C37.7585 46.6667 38.4973 45.5933 38.9386 44.9517C39.0848 44.7393 39.3259 44.387 39.4619 44.331C39.5799 44.3847 39.8262 44.7417 39.9724 44.954C40.4111 45.5933 41.1499 46.6667 42.6634 46.6667C44.1769 46.6667 44.9157 45.5933 45.357 44.954C45.5032 44.7417 45.7469 44.3847 45.8751 44.3333C46.5832 44.3333 47.1578 43.8107 47.1578 43.1667C47.1578 42.5227 46.5832 42 45.8751 42Z" fill="#27AE60"/>
</g>
<defs>
<clipPath id="clip0">
<rect width="61.5673" height="56" fill="white" transform="translate(0.982422)"/>
</clipPath>
</defs>
</svg>
