<svg width="56" height="56" viewBox="0 0 56 56" fill="none" xmlns="http://www.w3.org/2000/svg">
<path d="M49.4859 44.3292V15.891C49.4859 15.2108 48.9294 14.6543 48.2493 14.6543H8.69174C8.01158 14.6543 7.45508 15.2108 7.45508 15.891V44.3292C7.4559 44.3292 49.5898 44.3292 49.4859 44.3292Z" fill="#2B2F33"/>
<path d="M47.9393 16.2001H9.00098V42.7801H47.9393V16.2001Z" fill="white"/>
<path d="M53.1916 44.3292H3.7334V45.1026H53.1916V44.3292Z" fill="#CFDCE5"/>
<path d="M50.7277 46.6475H6.21527L3.74194 45.1025H53.2002L50.7277 46.6475Z" fill="#AAC1CE"/>
<g opacity="0.7">
<path opacity="0.7" d="M32.6202 44.3293H24.3049C24.3841 44.763 24.7707 45.1027 25.2547 45.1027H31.6697C32.1544 45.1027 32.5419 44.763 32.6202 44.3293Z" fill="white"/>
</g>
<path d="M35.9134 20.2873C40.1698 20.2873 43.6203 16.8368 43.6203 12.5804C43.6203 8.32402 40.1698 4.87354 35.9134 4.87354C31.657 4.87354 28.2065 8.32402 28.2065 12.5804C28.2065 16.8368 31.657 20.2873 35.9134 20.2873Z" fill="white"/>
<path d="M35.913 20.4926C31.55 20.4926 28 16.9426 28 12.5796C28 8.21667 31.55 4.66663 35.913 4.66663C40.2759 4.66663 43.826 8.21667 43.826 12.5796C43.826 16.9426 40.2759 20.4926 35.913 20.4926ZM35.913 5.07885C31.7768 5.07885 28.4122 8.44339 28.4122 12.5796C28.4122 16.7158 31.7768 20.0804 35.913 20.0804C40.0492 20.0804 43.4138 16.7158 43.4138 12.5796C43.4138 8.44339 40.0492 5.07885 35.913 5.07885Z" fill="#249052"/>
<path d="M35.5435 16.8074V15.7711C34.8707 15.7505 34.198 15.5576 33.813 15.3011L34.1015 14.297C34.5187 14.5435 35.1164 14.7669 35.7677 14.7669C36.4397 14.7669 36.8997 14.4363 36.8997 13.9235C36.8997 13.4429 36.5254 13.1329 35.7356 12.8443C34.6143 12.4387 33.888 11.9259 33.888 10.9333C33.888 10.0148 34.5286 9.30911 35.6078 9.11784V8.0708H36.4834V9.06343C37.1561 9.08486 37.6153 9.24563 37.9575 9.41629L37.6689 10.3982C37.4117 10.2811 36.9426 10.0354 36.2162 10.0354C35.4685 10.0354 35.2013 10.4205 35.2013 10.7832C35.2013 11.221 35.5864 11.4667 36.4941 11.8303C37.6895 12.2787 38.2246 12.8559 38.2246 13.8056C38.2246 14.7141 37.5939 15.5147 36.4199 15.7068V16.8074H35.5435Z" fill="#249052"/>
<path d="M19.0241 30.5814C22.3143 30.5814 24.9815 27.9142 24.9815 24.624C24.9815 21.3339 22.3143 18.6666 19.0241 18.6666C15.7339 18.6666 13.0667 21.3339 13.0667 24.624C13.0667 27.9142 15.7339 30.5814 19.0241 30.5814Z" fill="#249052"/>
<path d="M21.0237 27.2061C20.7178 27.3916 20.1992 27.5763 19.6065 27.5763C18.7647 27.5763 18.0054 27.2432 17.514 26.6224C17.2181 26.2803 17.0144 25.8161 16.9312 25.2431H16.3384V24.6776H16.857C16.857 24.6306 16.857 24.5762 16.857 24.5292C16.857 24.4179 16.866 24.2975 16.8751 24.1961H16.3384V23.6223H16.9584C17.0697 23.0575 17.3195 22.5761 17.6534 22.224C18.153 21.6684 18.829 21.3542 19.6535 21.3542C20.2091 21.3542 20.6716 21.4928 20.9767 21.6412L20.7458 22.5027C20.5051 22.3724 20.125 22.2521 19.7087 22.2521C19.2454 22.2521 18.8381 22.4186 18.5322 22.7616C18.3385 22.9644 18.1991 23.2703 18.1249 23.6223H20.5504V24.1961H18.0136C17.9955 24.2975 17.9955 24.4088 17.9955 24.5201C17.9955 24.5762 17.9955 24.6223 17.9955 24.6776H20.5513V25.2431H18.0977C18.162 25.6405 18.3014 25.9373 18.4951 26.15C18.8101 26.493 19.2544 26.6505 19.7359 26.6505C20.1902 26.6505 20.6156 26.493 20.8283 26.3718L21.0237 27.2061Z" fill="white"/>
<path d="M36.4 40.1333C40.5237 40.1333 43.8667 36.7903 43.8667 32.6666C43.8667 28.5429 40.5237 25.2 36.4 25.2C32.2763 25.2 28.9333 28.5429 28.9333 32.6666C28.9333 36.7903 32.2763 40.1333 36.4 40.1333Z" fill="#B9B9B9"/>
<rect x="32.4985" y="29.1759" width="7.57222" height="1.12181" fill="white"/>
<rect x="32.4985" y="30.7184" width="7.57222" height="1.12181" fill="white"/>
<rect x="37.2666" y="30.7184" width="6.87109" height="1.96317" transform="rotate(90 37.2666 30.7184)" fill="white"/>
</svg>
