<svg width="56" height="56" viewBox="0 0 56 56" fill="none" xmlns="http://www.w3.org/2000/svg">
<path d="M11.3333 5.16663H43.7333C44.5617 5.16663 45.2333 5.8382 45.2333 6.66663V51.2C45.2333 52.0284 44.5617 52.7 43.7333 52.7H11.3332C10.5048 52.7 9.83325 52.0284 9.83325 51.2V6.66663C9.83325 5.8382 10.5048 5.16663 11.3333 5.16663Z" fill="white" stroke="#2B2F33"/>
<path d="M41.6841 15.0331H23.4917V16.0417H41.6841V15.0331Z" fill="#B9B9B9"/>
<path d="M41.6841 18.0664H23.4917V19.075H41.6841V18.0664Z" fill="#B9B9B9"/>
<path d="M41.6841 21.0997H23.4917V22.1083H41.6841V21.0997Z" fill="#B9B9B9"/>
<path d="M41.6841 24.1331H23.4917V25.1416H41.6841V24.1331Z" fill="#B9B9B9"/>
<path d="M41.6841 27.1665H13.3831V28.1751H41.6841V27.1665Z" fill="#B9B9B9"/>
<path d="M41.6841 30.1998H13.3831V31.2084H41.6841V30.1998Z" fill="#B9B9B9"/>
<path d="M41.6841 33.2332H13.3831V34.2417H41.6841V33.2332Z" fill="#B9B9B9"/>
<path d="M41.6841 36.2665H13.3831V37.2751H41.6841V36.2665Z" fill="#B9B9B9"/>
<path d="M41.6841 39.2998H13.3831V40.3084H41.6841V39.2998Z" fill="#B9B9B9"/>
<path d="M41.6841 42.3331H13.3831V43.3417H41.6841V42.3331Z" fill="#B9B9B9"/>
<path d="M41.6841 45.3665H13.3831V46.375H41.6841V45.3665Z" fill="#B9B9B9"/>
<path d="M41.6841 48.3998H13.3831V49.4084H41.6841V48.3998Z" fill="#B9B9B9"/>
<path d="M41.6765 8.45837H13.3831V11.4917H41.6765V8.45837Z" fill="#B9B9B9"/>
<path d="M15.4527 21.9729L14.4064 25.2H13.0667L16.4763 14.9333H18.0419L21.4667 25.2H20.0817L19.0129 21.9729H15.4527ZM18.7419 20.9331L17.7559 17.9756C17.5301 17.3055 17.3871 16.6971 17.2365 16.104H17.2064C17.0559 16.7125 16.8903 17.3363 16.7021 17.9602L15.7161 20.9331H18.7419Z" fill="#249052"/>
</svg>
