<svg width="63" height="56" viewBox="0 0 63 56" fill="none" xmlns="http://www.w3.org/2000/svg">
<g clip-path="url(#clip0)">
<path d="M45.8756 2.33337C36.6816 2.33337 29.2012 9.13737 29.2012 17.5C29.2012 25.8627 36.6816 32.6667 45.8756 32.6667C55.0697 32.6667 62.5501 25.8627 62.5501 17.5C62.5501 9.13737 55.0697 2.33337 45.8756 2.33337ZM45.8756 30.3334C38.0976 30.3334 31.7665 24.5747 31.7665 17.5C31.7665 10.4254 38.0976 4.66671 45.8756 4.66671C53.6536 4.66671 59.9848 10.4254 59.9848 17.5C59.9848 24.5747 53.6536 30.3334 45.8756 30.3334Z" fill="#4D565F"/>
<path d="M50.8621 17.8687C50.3952 17.3903 49.8565 17.017 49.2639 16.758C48.6252 16.478 47.9479 16.3333 47.2425 16.3333H47.1578V10.8897H47.2425C47.5529 10.8897 47.8581 10.9527 48.1455 11.0787C48.4405 11.2093 48.7073 11.396 48.9381 11.634C49.1818 11.8837 49.3742 12.18 49.5128 12.5137C49.7616 13.1157 50.4953 13.4167 51.1674 13.1927C51.8292 12.964 52.1653 12.292 51.9139 11.6877C51.6651 11.0927 51.3162 10.556 50.8698 10.0917C50.4106 9.618 49.8719 9.24233 49.2639 8.974C48.6252 8.694 47.9454 8.55167 47.2476 8.55167H47.1578V8.16667C47.1578 7.52267 46.5832 7 45.8752 7C45.1671 7 44.5925 7.52267 44.5925 8.16667V8.55633H44.5079C43.8101 8.55633 43.1303 8.69867 42.489 8.97867C41.8836 9.24467 41.3448 9.62033 40.8857 10.0963C40.4342 10.5653 40.0827 11.1043 39.839 11.697C39.5902 12.3037 39.4619 12.95 39.4619 13.6103C39.4619 14.273 39.5902 14.9193 39.8364 15.5283C40.0802 16.121 40.4316 16.6577 40.8857 17.1313C41.3525 17.6097 41.8913 17.983 42.4838 18.242C43.1252 18.522 43.8024 18.6667 44.5079 18.6667H44.5925V24.1103H44.5079C44.1975 24.1103 43.8922 24.0473 43.6049 23.9213C43.3099 23.7907 43.0431 23.604 42.8122 23.366C42.5659 23.114 42.3735 22.8177 42.2401 22.491C41.9913 21.889 41.2576 21.5787 40.5881 21.805C39.9237 22.0313 39.585 22.7033 39.8339 23.3077C40.0776 23.9003 40.429 24.437 40.8805 24.9083C41.3397 25.382 41.8784 25.7577 42.4864 26.026C43.1252 26.306 43.805 26.4483 44.5027 26.4483H44.5925V26.8333C44.5925 27.4773 45.1671 28 45.8752 28C46.5832 28 47.1578 27.4773 47.1578 26.8333V26.4437H47.2425C47.9402 26.4437 48.62 26.3013 49.2614 26.0213C49.8668 25.7553 50.4055 25.3797 50.8647 24.9037C51.311 24.4417 51.6625 23.9027 51.9113 23.303C52.1602 22.6963 52.2884 22.05 52.2884 21.3897C52.2884 20.727 52.1602 20.0807 51.9113 19.467C51.6625 18.872 51.311 18.333 50.8621 17.8687ZM44.5079 16.3333C44.1975 16.3333 43.8948 16.2703 43.5997 16.1397C43.315 16.016 43.0405 15.8247 42.8122 15.589C42.5659 15.337 42.3735 15.0407 42.2401 14.714C42.099 14.364 42.0272 13.9953 42.0272 13.6103C42.0272 13.2277 42.099 12.859 42.2427 12.509C42.3761 12.1823 42.5685 11.886 42.8148 11.634C43.0456 11.3937 43.3099 11.207 43.6049 11.0787C43.8922 10.9527 44.1975 10.8897 44.5104 10.8897H44.5925V16.3333H44.5079ZM49.5102 22.4863C49.3717 22.82 49.1793 23.1163 48.9356 23.366C48.7047 23.6063 48.4405 23.793 48.1455 23.9213C47.8581 24.0473 47.5529 24.1103 47.2399 24.1103H47.1578V18.6667H47.2425C47.5529 18.6667 47.8556 18.7297 48.1506 18.8603C48.4353 18.984 48.7098 19.1753 48.9381 19.411C49.1818 19.6607 49.3742 19.957 49.5102 20.286C49.6513 20.636 49.7231 21.0047 49.7231 21.3897C49.7231 21.7723 49.6513 22.141 49.5102 22.4863Z" fill="#27AE60"/>
<path d="M48.6899 41.7934C46.4119 40.3397 43.7645 40.2487 40.5527 41.532L31.8256 45.3167L25.7689 41.8587L34.6525 37.6004C35.0091 37.43 35.2528 37.1174 35.3195 36.758C35.3862 36.3987 35.2631 36.03 34.9835 35.764L33.9881 34.812C31.646 32.5697 28.0828 32.0237 25.1301 33.447L18.2449 36.744C18.1217 36.5107 17.9293 36.3054 17.6523 36.1864L11.4212 33.489C11.1082 33.3514 10.7465 33.342 10.4258 33.447C10.1 33.5567 9.83837 33.7807 9.69728 34.0677L1.09326 51.661C0.811072 52.2397 1.08556 52.9164 1.71406 53.187L7.94518 55.8867C8.11705 55.9614 8.30689 56.001 8.49672 56.001C8.64807 56.001 8.79686 55.9754 8.94052 55.9287C9.26631 55.819 9.52797 55.595 9.66906 55.308L10.4694 53.6677H34.0471C34.2524 53.6677 34.455 53.621 34.6371 53.537L51.5681 45.557C51.9735 45.3657 52.2377 44.9924 52.2582 44.5747C52.2813 44.1594 52.0581 43.7627 51.6708 43.541L48.6899 41.7934ZM7.86052 53.2664L3.94844 51.5677L11.5058 36.107L15.4179 37.8034L8.47876 51.9994C8.46337 52.0297 8.44798 52.06 8.43259 52.0927L7.86052 53.2664ZM33.7367 51.3344H11.611L17.2162 39.8707L26.3256 35.5097C28.1803 34.6137 30.4095 34.917 31.9487 36.2587L19.5788 42.1877C18.9529 42.4864 18.7092 43.1934 19.0401 43.7627C19.2684 44.1594 19.7148 44.388 20.174 44.388C20.3766 44.388 20.5793 44.3437 20.7691 44.2527L23.1395 43.1164L31.0534 47.6337C31.4254 47.846 31.8871 47.867 32.2848 47.6967L41.6148 43.653C43.9569 42.715 45.6859 42.729 47.2533 43.7277L48.4179 44.4114L33.7367 51.3344Z" fill="#4D565F"/>
</g>
<defs>
<clipPath id="clip0">
<rect width="61.5673" height="56" fill="white" transform="translate(0.982422)"/>
</clipPath>
</defs>
</svg>
