<svg width="56" height="56" viewBox="0 0 56 56" fill="none" xmlns="http://www.w3.org/2000/svg">
<g clip-path="url(#clip0)">
<path d="M1.16873 29.1935C1.8104 29.1935 2.33306 28.6429 2.33306 27.9989C2.33306 27.2639 2.3634 26.5359 2.42406 25.8172C2.47773 25.1755 2.00173 24.6085 1.36006 24.5549C0.76973 24.4965 0.153729 24.9749 0.100063 25.6189C0.0347294 26.4029 -0.000270619 27.1985 0.00206271 28.0479L1.16873 28.0525H0.00206271C0.00206271 28.6989 0.524729 29.1935 1.16873 29.1935Z" fill="#4D565F"/>
<path d="M1.75925 22.2415C1.85958 22.2672 1.95991 22.2812 2.05791 22.2812C2.57591 22.2812 3.04725 21.9358 3.18491 21.4132C3.37625 20.6875 3.60025 19.9758 3.84991 19.2782C4.07158 18.6738 3.75658 18.0042 3.14991 17.7848C2.55491 17.5632 1.87591 17.8805 1.65658 18.4848C1.37891 19.2478 1.13625 20.0272 0.926248 20.8182C0.765248 21.4388 1.13625 22.0758 1.75925 22.2415Z" fill="#4D565F"/>
<path d="M52.8304 38.2705C52.9611 38.3195 53.0941 38.3405 53.2271 38.3405C53.7031 38.3405 54.1511 38.0465 54.3238 37.5705C54.5991 36.8075 54.8464 36.0328 55.0564 35.2418C55.2221 34.6188 54.8534 33.9795 54.2304 33.8138C53.6191 33.6481 52.9704 34.0168 52.8024 34.6398C52.6088 35.3655 52.3848 36.0771 52.1328 36.7771C51.9088 37.3815 52.2238 38.0511 52.8304 38.2705Z" fill="#4D565F"/>
<path d="M19.2515 52.138C18.6425 51.921 17.9775 52.2313 17.7558 52.8357C17.5342 53.44 17.8468 54.1097 18.4535 54.3313C19.2142 54.609 19.9935 54.854 20.7845 55.064C20.8872 55.0897 20.9875 55.1037 21.0855 55.1037C21.6035 55.1037 22.0748 54.7583 22.2125 54.2357C22.3758 53.6127 22.0072 52.9733 21.3865 52.8077C20.6585 52.614 19.9492 52.39 19.2515 52.138Z" fill="#4D565F"/>
<path d="M52.7732 21.2534C52.9669 21.9698 53.1302 22.6978 53.2632 23.4374C53.3659 24.0021 53.8559 24.3988 54.4089 24.3988C54.4765 24.3988 54.5489 24.3941 54.6189 24.3801C55.2512 24.2658 55.6735 23.6591 55.5592 23.0244C55.4122 22.2171 55.2349 21.4238 55.0249 20.6421C54.8569 20.0214 54.2222 19.6481 53.5945 19.8208C52.9715 19.9911 52.6052 20.6328 52.7732 21.2534Z" fill="#4D565F"/>
<path d="M34.665 52.791C33.9463 52.9824 33.2183 53.1457 32.4786 53.2764C31.844 53.3884 31.4216 53.995 31.5336 54.6274C31.634 55.1944 32.1263 55.591 32.6793 55.591C32.747 55.591 32.817 55.5864 32.8846 55.5724C33.692 55.43 34.4853 55.2527 35.267 55.0427C35.89 54.877 36.261 54.2377 36.093 53.6147C35.925 52.9964 35.2926 52.623 34.665 52.791Z" fill="#4D565F"/>
<path d="M51.2251 17.0612C51.4234 17.4835 51.8434 17.7309 52.2798 17.7309C52.4454 17.7309 52.6158 17.6959 52.7768 17.6212C53.3601 17.3459 53.6098 16.6505 53.3344 16.0672C52.9891 15.3299 52.6064 14.6089 52.1981 13.9065C51.8714 13.3489 51.1551 13.1645 50.6021 13.4865C50.0468 13.8109 49.8578 14.5249 50.1821 15.0825C50.5578 15.7242 50.9054 16.3822 51.2251 17.0612Z" fill="#4D565F"/>
<path d="M43.3136 7.13068C43.68 7.13068 44.044 6.95568 44.2703 6.63135C44.639 6.10402 44.5106 5.37602 43.981 5.00735C43.316 4.54302 42.6276 4.10668 41.9183 3.69835C41.3583 3.37868 40.6466 3.57002 40.3246 4.13002C40.0026 4.69002 40.1963 5.40168 40.7563 5.72368C41.405 6.09702 42.035 6.49602 42.6463 6.92302C42.847 7.06302 43.0803 7.13068 43.3136 7.13068Z" fill="#4D565F"/>
<path d="M46.0831 9.7851C46.6151 10.3101 47.1191 10.8584 47.6021 11.4301C47.8355 11.7031 48.1621 11.8431 48.4935 11.8431C48.7595 11.8431 49.0278 11.7521 49.2471 11.5654C49.7395 11.1501 49.7978 10.4128 49.3848 9.92043C48.8551 9.29743 48.3045 8.7001 47.7281 8.1261C47.2708 7.6711 46.5335 7.6781 46.0761 8.1331C45.6235 8.59277 45.6281 9.33243 46.0831 9.7851Z" fill="#4D565F"/>
<path d="M3.21715 34.6952C3.02348 33.9788 2.86248 33.2508 2.73182 32.5135C2.62215 31.8788 2.00148 31.4612 1.38315 31.5638C0.750817 31.6735 0.323817 32.2778 0.435817 32.9148C0.575817 33.7222 0.755483 34.5178 0.96315 35.2995C1.10548 35.8222 1.57682 36.1652 2.09015 36.1652C2.19048 36.1652 2.29082 36.1535 2.39115 36.1255C3.01415 35.9575 3.38282 35.3158 3.21715 34.6952Z" fill="#4D565F"/>
<path d="M50.2365 40.8263C49.8608 41.4726 49.4595 42.105 49.0325 42.7163C48.6615 43.2436 48.7898 43.9716 49.3172 44.3403C49.5225 44.4826 49.7558 44.5503 49.9868 44.5503C50.3532 44.5503 50.7172 44.3776 50.9412 44.0533C51.4078 43.3883 51.8465 42.7023 52.2548 41.9953C52.5792 41.4376 52.3878 40.7236 51.8302 40.4016C51.2772 40.0796 50.5608 40.264 50.2365 40.8263Z" fill="#4D565F"/>
<path d="M30.1567 2.422C30.1893 2.42433 30.2197 2.42667 30.2547 2.42667C30.8543 2.42667 31.3653 1.967 31.4143 1.358C31.468 0.716333 30.9897 0.151667 30.348 0.098C29.5757 0.0326667 28.7917 0 28.0007 0H27.9167C27.2727 0 26.792 0.522667 26.792 1.16667C26.792 1.81067 27.3567 2.33333 28.0007 2.33333C28.7287 2.33333 29.4473 2.36367 30.1567 2.422Z" fill="#4D565F"/>
<path d="M3.77027 42.0455C3.98727 42.4188 4.37927 42.6265 4.7806 42.6265C4.98127 42.6265 5.18194 42.5775 5.36627 42.4701C5.9216 42.1458 6.11294 41.4341 5.79094 40.8741C5.4176 40.2325 5.06994 39.5698 4.7526 38.8908C4.4796 38.3075 3.78894 38.0578 3.20094 38.3308C2.6176 38.6038 2.36794 39.2991 2.64327 39.8825C2.98627 40.6221 3.36427 41.3431 3.77027 42.0455Z" fill="#4D565F"/>
<path d="M39.363 53.4844C39.5286 53.4844 39.7013 53.4494 39.86 53.3724C40.595 53.027 41.3183 52.649 42.0207 52.243C42.576 51.9187 42.7673 51.207 42.4453 50.647C42.1186 50.0894 41.4023 49.9004 40.8493 50.2224C40.2076 50.5957 39.5426 50.941 38.866 51.2607C38.2826 51.536 38.033 52.2314 38.3083 52.8124C38.5066 53.237 38.9266 53.4844 39.363 53.4844Z" fill="#4D565F"/>
<path d="M36.6962 3.84351C36.8292 3.89251 36.9599 3.91351 37.0929 3.91351C37.5712 3.91351 38.0169 3.61951 38.1919 3.14351C38.4112 2.53684 38.0962 1.86951 37.4895 1.65017C36.7289 1.37484 35.9495 1.13217 35.1562 0.924506C34.5262 0.761173 33.8939 1.13217 33.7329 1.75517C33.5695 2.37817 33.9405 3.01751 34.5635 3.17851C35.2869 3.37217 35.9985 3.59384 36.6962 3.84351Z" fill="#4D565F"/>
<path d="M45.2597 49.714C45.5257 49.714 45.794 49.623 46.011 49.4387C46.634 48.9137 47.2314 48.3653 47.8077 47.789C48.2627 47.334 48.2627 46.5943 47.8077 46.1393C47.3527 45.6843 46.613 45.6843 46.158 46.1393C45.6284 46.6667 45.08 47.173 44.5084 47.6537C44.016 48.069 43.953 48.8063 44.3684 49.2987C44.5994 49.574 44.9307 49.714 45.2597 49.714Z" fill="#4D565F"/>
<path d="M16.0905 2.65132C15.3532 2.99898 14.6322 3.37698 13.9322 3.78765C13.3769 4.11198 13.1879 4.82598 13.5122 5.38365C13.7292 5.75465 14.1189 5.96232 14.5202 5.96232C14.7209 5.96232 14.9239 5.91098 15.1082 5.80365C15.7499 5.42798 16.4125 5.08031 17.0869 4.76298C17.6702 4.48765 17.9199 3.79232 17.6445 3.21132C17.3692 2.62565 16.6715 2.37365 16.0905 2.65132Z" fill="#4D565F"/>
<path d="M4.14245 15.6502C4.32445 15.7552 4.52512 15.8042 4.72345 15.8042C5.12712 15.8042 5.51912 15.5942 5.73612 15.2186C6.10945 14.5699 6.51078 13.9399 6.93545 13.3262C7.30412 12.7989 7.17112 12.0709 6.64378 11.7046C6.11412 11.3336 5.38612 11.4642 5.01978 11.9962C4.55545 12.6612 4.11678 13.3496 3.71078 14.0566C3.39112 14.6166 3.58478 15.3282 4.14245 15.6502Z" fill="#4D565F"/>
<path d="M11.5889 6.73335C11.1736 6.24102 10.4386 6.18268 9.9439 6.59568C9.3209 7.12302 8.72124 7.67368 8.14957 8.25002C7.6969 8.70735 7.69924 9.44702 8.15424 9.89968C8.3829 10.126 8.67924 10.2404 8.9779 10.2404C9.2789 10.2404 9.57757 10.126 9.8039 9.89735C10.3312 9.36768 10.8796 8.86368 11.4512 8.38068C11.9412 7.96302 12.0066 7.22568 11.5889 6.73335Z" fill="#4D565F"/>
<path d="M14.0328 52.2705C14.2171 52.3755 14.4178 52.4268 14.6161 52.4268C15.0174 52.4268 15.4118 52.2191 15.6264 51.8435C15.9508 51.2858 15.7594 50.5718 15.1994 50.2498C14.5531 49.8765 13.9231 49.4751 13.3118 49.0481C12.7891 48.6771 12.0611 48.8055 11.6878 49.3328C11.3168 49.8601 11.4451 50.5881 11.9724 50.9568C12.6374 51.4258 13.3258 51.8645 14.0328 52.2705Z" fill="#4D565F"/>
<path d="M6.71776 44.3874C6.22543 44.8027 6.16243 45.5377 6.57543 46.0301C7.10276 46.6554 7.65343 47.2527 8.22743 47.8291C8.45609 48.0554 8.75476 48.1697 9.05343 48.1697C9.35209 48.1697 9.65076 48.0554 9.87943 47.8267C10.3344 47.3717 10.3344 46.6321 9.87943 46.1771C9.34976 45.6497 8.84576 45.1014 8.36509 44.5274C7.94276 44.0374 7.21009 43.9744 6.71776 44.3874Z" fill="#4D565F"/>
<path d="M20.976 3.26038C21.0763 3.26038 21.179 3.24871 21.2817 3.21838C21.998 3.02471 22.7237 2.86138 23.4633 2.73071C24.0957 2.61871 24.5203 2.01204 24.406 1.37738C24.294 0.742708 23.6757 0.315708 23.0527 0.434708C22.2453 0.579375 21.4497 0.756709 20.6703 0.969042C20.0497 1.13704 19.6833 1.77871 19.8513 2.39938C19.9913 2.91971 20.4627 3.26038 20.976 3.26038Z" fill="#4D565F"/>
<path d="M29.1804 54.8343C29.1804 54.1903 28.6461 53.6676 28.0021 53.6676C27.2601 53.6676 26.5204 53.6349 25.7948 53.5743C25.1624 53.5136 24.5884 53.9943 24.5324 54.6383C24.4788 55.2799 24.9548 55.8446 25.5941 55.9006C26.3524 55.9659 27.1014 55.9939 28.0278 55.9963V56.0009C28.6718 55.9986 29.1828 55.4759 29.1804 54.8343Z" fill="#4D565F"/>
<path d="M54.8342 26.7769C54.1902 26.7769 53.6652 27.3555 53.6652 27.9995C53.6652 28.7532 53.6326 29.4999 53.5696 30.2349C53.5159 30.8765 53.9896 31.4435 54.6312 31.4972C54.6662 31.4995 54.6989 31.5019 54.7339 31.5019C55.3336 31.5019 55.8422 31.0422 55.8936 30.4355C55.9612 29.6329 55.9986 28.8209 55.9962 28.0695C55.9986 28.0462 56.0009 27.9109 56.0009 27.8852C56.0009 27.2412 55.4759 26.7769 54.8342 26.7769Z" fill="#4D565F"/>
<path d="M41.6595 14.3412C41.2045 13.8863 40.4649 13.8863 40.0099 14.3412L14.3432 40.0079C13.8882 40.4629 13.8882 41.2026 14.3432 41.6576C14.5695 41.8862 14.8682 42.0006 15.1669 42.0006C15.4655 42.0006 15.7642 41.8862 15.9929 41.6599L41.6595 15.9933C42.1145 15.5359 42.1145 14.7986 41.6595 14.3412Z" fill="#27AE60"/>
<path d="M14 19.8333C14 23.0487 16.6157 25.6667 19.8333 25.6667C23.051 25.6667 25.6667 23.0487 25.6667 19.8333C25.6667 16.618 23.051 14 19.8333 14C16.6157 14 14 16.618 14 19.8333ZM19.8333 16.3333C21.763 16.3333 23.3333 17.9037 23.3333 19.8333C23.3333 21.763 21.763 23.3333 19.8333 23.3333C17.9037 23.3333 16.3333 21.763 16.3333 19.8333C16.3333 17.9037 17.9037 16.3333 19.8333 16.3333Z" fill="#27AE60"/>
<path d="M41.9997 36.1666C41.9997 32.9513 39.384 30.3333 36.1663 30.3333C32.9487 30.3333 30.333 32.9513 30.333 36.1666C30.333 39.3819 32.9487 41.9999 36.1663 41.9999C39.384 41.9999 41.9997 39.3819 41.9997 36.1666ZM32.6663 36.1666C32.6663 34.2369 34.2367 32.6666 36.1663 32.6666C38.096 32.6666 39.6663 34.2369 39.6663 36.1666C39.6663 38.0963 38.096 39.6666 36.1663 39.6666C34.2367 39.6666 32.6663 38.0963 32.6663 36.1666Z" fill="#27AE60"/>
</g>
<defs>
<clipPath id="clip0">
<rect width="56" height="56" fill="white"/>
</clipPath>
</defs>
</svg>
