<svg width="64" height="57" viewBox="0 0 64 57" fill="none" xmlns="http://www.w3.org/2000/svg">
<g clip-path="url(#clip0)">
<path d="M52.8237 2.72472C52.7036 2.61547 52.5574 2.52759 52.3981 2.46584C52.0796 2.34472 51.7192 2.34472 51.4007 2.46584C51.2388 2.52522 51.0952 2.61309 50.9751 2.72472L40.5332 12.2223C40.0241 12.6855 40.0241 13.4383 40.5332 13.9015C41.0424 14.3646 41.8701 14.3646 42.3793 13.9015L50.5939 6.42972V27.3131C50.5939 27.9686 51.1787 28.5006 51.8994 28.5006C52.6201 28.5006 53.205 27.9686 53.205 27.3131V6.42972L61.4195 13.9015C61.6754 14.1342 62.0096 14.2506 62.3439 14.2506C62.6781 14.2506 63.0123 14.1342 63.2682 13.9038C63.7774 13.4407 63.7774 12.6878 63.2682 12.2247L52.8237 2.72472Z" fill="#27AE60"/>
<path d="M2.28798 11.875C1.56694 11.875 0.982422 11.3433 0.982422 10.6875C0.982422 10.0317 1.56694 9.5 2.28798 9.5H33.6213C34.3423 9.5 34.9269 10.0317 34.9269 10.6875C34.9269 11.3433 34.3423 11.875 33.6213 11.875H2.28798Z" fill="#4D565F"/>
<path d="M2.28798 19C1.56694 19 0.982422 18.4683 0.982422 17.8125C0.982422 17.1567 1.56694 16.625 2.28798 16.625H33.6213C34.3423 16.625 34.9269 17.1567 34.9269 17.8125C34.9269 18.4683 34.3423 19 33.6213 19H2.28798Z" fill="#4D565F"/>
<path d="M16.6491 17.8125C16.6491 17.1567 17.2336 16.625 17.9546 16.625C18.6757 16.625 19.2602 17.1567 19.2602 17.8125V53.4375C19.2602 54.0933 18.6757 54.625 17.9546 54.625C17.2336 54.625 16.6491 54.0933 16.6491 53.4375V17.8125Z" fill="#4D565F"/>
</g>
<defs>
<clipPath id="clip0">
<rect width="62.6667" height="57" fill="white" transform="translate(0.982422)"/>
</clipPath>
</defs>
</svg>
