<svg width="56" height="56" viewBox="0 0 56 56" fill="none" xmlns="http://www.w3.org/2000/svg">
<path d="M3.85815 36.9463V6.3582C3.85815 5.82985 4.30933 5.37598 4.83644 5.37598H51.0234C51.5496 5.37598 52.0017 5.82897 52.0017 6.3582V36.9463H3.85815V36.9463Z" fill="#2B2F33"/>
<path d="M52.0004 36.9464V40.8735C52.0004 41.4019 51.5493 41.8558 51.0222 41.8558H4.83522C4.30899 41.8558 3.85693 41.4028 3.85693 40.8735V36.9464H52.0004Z" fill="#CFDCE5"/>
<path d="M38.2388 48.804H17.6277V49.7862H38.2388V48.804Z" fill="#CFDCE5"/>
<path d="M34.7752 48.804H21.0845L22.0628 41.8557H33.7969L34.7752 48.804Z" fill="#AAC1CE"/>
<path d="M50.045 7.34045H5.81372V34.9828H50.045V7.34045Z" fill="white"/>
<path d="M33.7961 41.8557H22.0619L21.5156 45.7338L33.9724 43.1043L33.7961 41.8557Z" fill="#8BA0AE"/>
<path d="M55.8519 49.7477H0V50.6239H55.8519V49.7477Z" fill="#8BA0AE"/>
<path d="M45.0323 49.7862H33.8418C32.6532 49.7862 31.6802 48.8092 31.6802 47.6158V23.9181C31.6802 22.7248 32.6523 21.7478 33.8418 21.7478H45.0332C46.2217 21.7478 47.1948 22.7248 47.1948 23.9181V47.6158C47.1939 48.8092 46.2209 49.7862 45.0323 49.7862Z" fill="#2B2F33"/>
<path d="M46.1709 23.9602H32.7036V46.0667H46.1709V23.9602Z" fill="white"/>
<path d="M41.4574 23.084H38.7015C38.5775 23.084 38.4763 22.9826 38.4763 22.8584C38.4763 22.7342 38.5775 22.6328 38.7015 22.6328H41.4574C41.5813 22.6328 41.6826 22.7342 41.6826 22.8584C41.6826 22.9826 41.5813 23.084 41.4574 23.084Z" fill="#CFDCE5"/>
<path d="M37.4187 23.0849C37.5435 23.0849 37.6447 22.9837 37.6447 22.8589C37.6447 22.734 37.5435 22.6328 37.4187 22.6328C37.2938 22.6328 37.1926 22.734 37.1926 22.8589C37.1926 22.9837 37.2938 23.0849 37.4187 23.0849Z" fill="#CFDCE5"/>
<path d="M39.4372 48.9958C38.8499 48.9958 38.3726 48.5157 38.3726 47.9269C38.3726 47.3381 38.8508 46.8579 39.4372 46.8579C40.0237 46.8579 40.5019 47.3381 40.5019 47.9269C40.5019 48.5157 40.0246 48.9958 39.4372 48.9958ZM39.4372 47.0761C38.9703 47.0761 38.5907 47.4572 38.5907 47.926C38.5907 48.3948 38.9703 48.7759 39.4372 48.7759C39.9041 48.7759 40.2837 48.3948 40.2837 47.926C40.2837 47.4572 39.9041 47.0761 39.4372 47.0761Z" fill="#CFDCE5"/>
<path d="M37.2825 31.7943C37.2825 31.7943 37.2825 31.761 37.2825 31.3983C37.2825 30.9155 37.82 30.197 38.8786 30.1479V29.8115C38.5348 29.6152 38.3026 29.2454 38.3026 28.8205C38.3026 28.1914 38.8105 27.6805 39.438 27.6805C40.0646 27.6805 40.5734 28.1905 40.5734 28.8205C40.5734 29.2454 40.3412 29.6152 39.9974 29.8115V30.147C41.0551 30.197 41.5935 30.9146 41.5935 31.3974C41.5935 31.761 41.5935 31.7934 41.5935 31.7934H37.2825V31.7943Z" fill="white"/>
<path d="M37.2583 31.7334H41.9156V32.7216H37.2583V31.7334ZM40.2393 37.3334H38.9346V34.2589H37.2583V33.2707H41.9156V34.2589H40.2393V37.3334Z" fill="#249052"/>
<path d="M23.4863 34.9985C23.6055 32.7823 26.1119 31.9654 28.2604 29.8659C30.4088 27.7663 29.6923 24.2667 29.6923 24.2667C28.2604 24.6164 28.8566 25.6668 28.2604 27.5328C27.6642 29.3988 25.396 29.8659 25.396 29.8659C25.396 29.8659 26.5896 28.9329 27.3056 27.5328C28.0215 26.1327 26.3508 26.5998 26.3508 26.5998C26.3508 26.5998 25.5151 27.7664 22.5315 29.8659C19.5481 31.9654 21.099 34.9985 21.099 34.9985H23.4863Z" fill="#249052"/>
<path d="M15.6352 34.9986H18.0219C18.0219 34.9986 19.5735 31.9654 16.59 29.8659C13.6064 27.7664 12.7707 26.5999 12.7707 26.5999C12.7707 26.5999 11.1 26.1334 11.8159 27.5328C12.5319 28.9329 13.7255 29.8659 13.7255 29.8659C13.7255 29.8659 11.458 29.3994 10.8611 27.5328C10.2643 25.6662 10.8611 24.6165 9.42924 24.2667C9.42924 24.2667 8.71332 27.7664 10.8611 29.8659C13.009 31.9655 15.5161 32.7823 15.6352 34.9986Z" fill="#249052"/>
<path d="M25.9508 20.4032C25.9508 16.8669 23.0896 14 19.5605 14C16.0314 14 13.1702 16.8669 13.1702 20.4032C13.1702 23.9394 16.0314 26.8064 19.5605 26.8064C23.0896 26.8064 25.9508 23.9394 25.9508 20.4032ZM19.5605 25.523C16.7428 25.523 14.4509 23.2265 14.4509 20.4032C14.4509 17.5799 16.7428 15.2834 19.5605 15.2834C22.3781 15.2834 24.67 17.5799 24.67 20.4032C24.67 23.2265 22.3781 25.523 19.5605 25.523Z" fill="#249052"/>
<path d="M16.7664 17.7333H22.3551V18.7215H16.7664V17.7333ZM20.3436 23.3333H18.7779V20.2588H16.7664V19.2705H22.3551V20.2588H20.3436V23.3333Z" fill="#27AE60"/>
</svg>
