<svg width="154" height="46" viewBox="0 0 154 46" fill="none" xmlns="http://www.w3.org/2000/svg">
<path d="M152.978 40.5691C152.978 41.148 152.865 41.7213 152.645 42.2561C152.425 42.7909 152.102 43.2767 151.696 43.6859C151.29 44.0952 150.808 44.4196 150.276 44.6406C149.746 44.8618 149.176 44.9753 148.602 44.9747H5.3973C4.23661 44.976 3.12297 44.5125 2.30129 43.6863C1.47959 42.8601 1.01714 41.7388 1.01562 40.5691V5.4349C1.01714 4.26458 1.47941 3.1427 2.30094 2.31558C3.12246 1.48847 4.23609 1.02374 5.3973 1.02344H148.601C149.175 1.02344 149.745 1.13755 150.276 1.35926C150.807 1.58098 151.29 1.90594 151.696 2.3156C152.102 2.72526 152.425 3.21157 152.644 3.74679C152.864 4.28201 152.977 4.85563 152.977 5.4349L152.978 40.5691Z" fill="white"/>
<path d="M148.602 46H5.39748C3.96765 45.9997 2.59634 45.4278 1.58444 44.4096C0.572546 43.3915 0.00272057 42.0104 0 40.5693V5.43639C0.00211522 3.99463 0.571564 2.61258 1.58342 1.59342C2.59529 0.574259 3.96694 0.0012169 5.39748 0H148.601C150.031 0.00182411 151.403 0.575061 152.414 1.59409C153.427 2.61312 153.996 3.99481 153.999 5.43639V40.5693C154.001 43.5648 151.576 46 148.602 46Z" fill="#A6A6A6"/>
<path d="M152.978 40.5691C152.978 41.148 152.865 41.7213 152.645 42.2561C152.425 42.7909 152.102 43.2767 151.696 43.6859C151.29 44.0952 150.808 44.4196 150.276 44.6406C149.746 44.8618 149.176 44.9753 148.602 44.9747H5.3973C4.23661 44.976 3.12297 44.5125 2.30129 43.6863C1.47959 42.8601 1.01714 41.7388 1.01562 40.5691V5.4349C1.01714 4.26458 1.47941 3.1427 2.30094 2.31558C3.12246 1.48847 4.23609 1.02374 5.3973 1.02344H148.601C149.175 1.02344 149.745 1.13755 150.276 1.35926C150.807 1.58098 151.29 1.90594 151.696 2.3156C152.102 2.72526 152.425 3.21157 152.644 3.74679C152.864 4.28201 152.977 4.85563 152.977 5.4349L152.978 40.5691Z" fill="black"/>
<path d="M34.3868 22.7577C34.3537 19.0503 37.3988 17.2466 37.538 17.1625C35.8134 14.6284 33.1404 14.2822 32.201 14.2546C29.956 14.0164 27.7783 15.6085 26.6347 15.6085C25.4682 15.6085 23.707 14.2776 21.809 14.3167C19.3665 14.3546 17.0815 15.7799 15.8283 17.9931C13.242 22.5058 15.1709 29.1374 17.6488 32.785C18.8883 34.5726 20.3366 36.5661 22.2324 36.496C24.0871 36.4201 24.7799 35.3053 27.0181 35.3053C29.2358 35.3053 29.8863 36.496 31.8198 36.4511C33.8104 36.4201 35.0636 34.6566 36.2598 32.854C37.6921 30.8077 38.2674 28.79 38.2902 28.6864C38.2445 28.6703 34.4255 27.2002 34.3868 22.7577ZM30.7344 11.855C31.732 10.5978 32.4145 8.8872 32.225 7.15137C30.7812 7.21579 28.9756 8.15789 27.9358 9.38759C27.0159 10.4712 26.194 12.2472 26.4064 13.9175C28.0283 14.0394 29.6935 13.0928 30.7344 11.855Z" fill="white"/>
<path d="M148.602 0H71.8975L101.941 46H148.602C150.032 45.9988 151.404 45.4261 152.415 44.4073C153.428 43.3887 153.997 42.0073 154 40.5659V5.43639C153.997 3.99473 153.428 2.61285 152.416 1.59376C151.404 0.574661 150.033 0.00152063 148.602 0Z" fill="url(#paint0_linear)"/>
<path d="M61.2509 36.2392H58.6588L57.239 31.7426H52.3038L50.9512 36.2392H48.4277L53.3185 20.9307H56.3385L61.2509 36.2392ZM56.811 29.8561L55.5269 25.8587C55.3912 25.4503 55.1355 24.4887 54.7611 22.9749H54.7155C54.5648 23.626 54.324 24.5876 53.9942 25.8587L52.7317 29.8561H56.811ZM73.8035 30.5842C73.8035 32.4615 73.2979 33.9454 72.2856 35.0347C71.3793 36.0045 70.2528 36.4888 68.9094 36.4888C67.4587 36.4888 66.4155 35.9677 65.7821 34.9232V40.7151H63.3487V28.8289C63.3487 27.6497 63.3179 26.4408 63.2585 25.2007H65.3985L65.5344 26.9503H65.58C66.3916 25.6321 67.6231 24.973 69.2757 24.973C70.5678 24.973 71.6464 25.4871 72.5092 26.5167C73.371 27.5485 73.8035 28.9036 73.8035 30.5842ZM71.3245 30.6739C71.3245 29.5995 71.0848 28.7138 70.6032 28.0155C70.077 27.2897 69.3705 26.9262 68.4848 26.9262C67.8845 26.9262 67.3388 27.1287 66.8516 27.5278C66.363 27.9304 66.0434 28.4562 65.8939 29.1072C65.8272 29.3507 65.7892 29.6013 65.781 29.8538V31.6954C65.781 32.4972 66.0252 33.1747 66.5137 33.7292C67.0022 34.2813 67.6368 34.5585 68.4175 34.5585C69.334 34.5585 70.0473 34.2008 70.5575 33.491C71.0689 32.779 71.3245 31.8403 71.3245 30.6739ZM86.4007 30.5842C86.4007 32.4615 85.8951 33.9454 84.8827 35.0347C83.9753 36.0045 82.85 36.4888 81.5054 36.4888C80.0548 36.4888 79.0116 35.9677 78.3781 34.9232V40.7151H75.9447V28.8289C75.9447 27.6497 75.9139 26.4408 75.8546 25.2007H77.9946L78.1304 26.9503H78.1761C78.9865 25.6321 80.218 24.973 81.8718 24.973C83.1626 24.973 84.2412 25.4871 85.1064 26.5167C85.9669 27.5485 86.4007 28.9036 86.4007 30.5842ZM83.9206 30.6739C83.9206 29.5995 83.6797 28.7138 83.198 28.0155C82.6718 27.2897 81.9677 26.9262 81.0819 26.9262C80.4816 26.9262 79.936 27.1287 79.4464 27.5278C78.9579 27.9304 78.6395 28.4562 78.49 29.1072C78.4157 29.4108 78.3758 29.6582 78.3758 29.8538V31.6954C78.3758 32.4972 78.6211 33.1747 79.1074 33.7292C79.5959 34.2801 80.2305 34.5585 81.0135 34.5585C81.9311 34.5585 82.6444 34.2008 83.1535 33.491C83.6648 32.779 83.9206 31.8403 83.9206 30.6739ZM100.485 31.9451C100.485 33.2483 100.033 34.3077 99.135 35.1257C98.1464 36.0183 96.7661 36.4658 94.9974 36.4658C93.3629 36.4658 92.0527 36.1483 91.0643 35.5122L91.6269 33.468C92.6941 34.1053 93.8663 34.4228 95.1424 34.4228C96.0597 34.4228 96.7737 34.2134 97.2822 33.7982C97.7927 33.3818 98.0503 32.825 98.0503 32.1302C98.0503 31.5079 97.8374 30.9868 97.4182 30.5624C96.9971 30.139 96.3012 29.7444 95.323 29.3821C92.6633 28.3825 91.3325 26.9204 91.3325 24.9971C91.3325 23.741 91.8027 22.7126 92.741 21.9085C93.6791 21.1056 94.9232 20.7041 96.4704 20.7041C97.8526 20.7041 99.0048 20.9468 99.9193 21.4311L99.308 23.4304C98.4477 22.9611 97.4762 22.7264 96.3896 22.7264C95.5312 22.7264 94.8582 22.9392 94.3765 23.3625C93.9713 23.741 93.7659 24.2022 93.7659 24.7498C93.7659 25.3537 93.9999 25.8552 94.4655 26.2486C94.8696 26.611 95.6073 27.0055 96.6729 27.4289C97.9809 27.9603 98.942 28.5792 99.5571 29.2901C100.177 30.001 100.485 30.8879 100.485 31.9451ZM108.551 27.0413H105.869V32.4006C105.869 33.7637 106.342 34.4435 107.288 34.4435C107.724 34.4435 108.084 34.4067 108.369 34.3296L108.437 36.192C107.958 36.3726 107.326 36.4635 106.544 36.4635C105.583 36.4635 104.832 36.1679 104.29 35.5766C103.75 34.9853 103.478 33.9948 103.478 32.6007V27.0367H101.881V25.1961H103.478V23.175L105.869 22.448V25.1961H108.551V27.0413ZM120.628 30.6291C120.628 32.3258 120.147 33.7188 119.186 34.8082C118.181 35.9297 116.843 36.4888 115.176 36.4888C113.566 36.4888 112.287 35.9516 111.332 34.8783C110.378 33.8028 109.902 32.4477 109.902 30.8131C109.902 29.1025 110.394 27.7015 111.377 26.6121C112.362 25.5216 113.688 24.9764 115.355 24.9764C116.963 24.9764 118.254 25.5147 119.231 26.5891C120.165 27.6313 120.628 28.9772 120.628 30.6291ZM118.106 30.6854C118.106 29.6743 117.89 28.807 117.454 28.0812C116.945 27.2046 116.214 26.7663 115.268 26.7663C114.294 26.7663 113.545 27.2046 113.037 28.0812C112.6 28.807 112.384 29.6892 112.384 30.7314C112.384 31.7437 112.6 32.6134 113.037 33.3369C113.563 34.2134 114.296 34.6517 115.247 34.6517C116.178 34.6517 116.907 34.2042 117.434 33.3151C117.881 32.5719 118.106 31.6989 118.106 30.6854ZM128.542 27.3575C128.289 27.3115 128.032 27.2888 127.775 27.2897C126.919 27.2897 126.257 27.6141 125.791 28.2675C125.387 28.8427 125.184 29.5696 125.184 30.4473V36.2392H122.75V28.677C122.753 27.5182 122.729 26.3596 122.68 25.2018H124.8L124.888 27.3138H124.956C125.213 26.588 125.617 26.0025 126.172 25.5642C126.68 25.1812 127.297 24.9739 127.931 24.973C128.156 24.973 128.359 24.9891 128.539 25.0178L128.542 27.3575ZM139.425 30.1977C139.431 30.5705 139.401 30.943 139.336 31.3101H132.036C132.062 32.4006 132.417 33.2357 133.095 33.8108C133.71 34.3238 134.506 34.5815 135.483 34.5815C136.564 34.5815 137.549 34.409 138.436 34.0605L138.818 35.7618C137.781 36.2173 136.558 36.444 135.145 36.444C133.448 36.444 132.115 35.9401 131.144 34.9347C130.176 33.9281 129.692 32.5754 129.692 30.881C129.692 29.2176 130.142 27.8315 131.045 26.7261C131.99 25.5458 133.267 24.9557 134.874 24.9557C136.452 24.9557 137.647 25.5458 138.459 26.7261C139.102 27.6612 139.425 28.8208 139.425 30.1977ZM137.105 29.5616C137.122 28.8335 136.962 28.2065 136.632 27.6762C136.211 26.9929 135.563 26.6524 134.694 26.6524C133.898 26.6524 133.25 26.9848 132.757 27.652C132.351 28.1824 132.111 28.8197 132.037 29.5593L137.105 29.5616Z" fill="white"/>
<path d="M51.6018 15.519C50.9249 15.519 50.3394 15.4857 49.8521 15.4292V8.02812C50.5336 7.922 51.2225 7.8697 51.9122 7.87168C54.7028 7.87168 55.988 9.25551 55.988 11.5113C55.988 14.1133 54.47 15.519 51.6018 15.519ZM52.0103 8.82069C51.6337 8.82069 51.313 8.8437 51.0471 8.89891V14.5251C51.1909 14.5481 51.4671 14.5585 51.8551 14.5585C53.6836 14.5585 54.7245 13.5094 54.7245 11.5446C54.7245 9.79268 53.7829 8.82069 52.0103 8.82069ZM59.993 15.5754C58.4203 15.5754 57.401 14.3917 57.401 12.7847C57.401 11.1098 58.4419 9.91583 60.082 9.91583C61.632 9.91583 62.6741 11.0431 62.6741 12.6961C62.6741 14.3916 61.6001 15.5754 59.993 15.5754ZM60.0387 10.7969C59.1747 10.7969 58.6211 11.6114 58.6211 12.7502C58.6211 13.8671 59.1861 14.6815 60.0273 14.6815C60.8684 14.6815 61.4334 13.8108 61.4334 12.7272C61.4334 11.6229 60.8799 10.7969 60.0387 10.7969ZM71.6429 10.0274L69.9593 15.4523H68.8625L68.1651 13.0964C67.9917 12.5202 67.8473 11.9354 67.7325 11.3445H67.7097C67.6218 11.9357 67.4552 12.5281 67.2783 13.0964L66.5364 15.4523H65.4281L63.8439 10.0274H65.0731L65.6827 12.6063C65.8265 13.2206 65.9474 13.8004 66.0479 14.3479H66.0707C66.1587 13.8913 66.3024 13.3207 66.5136 12.6178L67.2783 10.0285H68.253L68.9846 12.5626C69.1616 13.1769 69.3053 13.7797 69.4172 14.3491H69.4491C69.5268 13.7912 69.6488 13.1988 69.8144 12.5626L70.4684 10.0285L71.6429 10.0274ZM77.8404 15.4523H76.6443V12.3372C76.6443 11.3779 76.279 10.897 75.5588 10.897C74.8501 10.897 74.3627 11.5113 74.3627 12.2256V15.4523H73.1665V11.578C73.1665 11.0983 73.1551 10.5842 73.122 10.0262H74.1744L74.2303 10.8636H74.2634C74.5852 10.2839 75.2381 9.91583 75.9697 9.91583C77.0997 9.91583 77.8416 10.7866 77.8416 12.2038L77.8404 15.4523ZM81.139 15.4523H79.9417V7.53809H81.139V15.4523ZM85.5 15.5754C83.9284 15.5754 82.9081 14.3917 82.9081 12.7847C82.9081 11.1098 83.949 9.91583 85.5879 9.91583C87.1391 9.91583 88.18 11.0431 88.18 12.6961C88.1811 14.3916 87.1059 15.5754 85.5 15.5754ZM85.5446 10.7969C84.6806 10.7969 84.127 11.6114 84.127 12.7502C84.127 13.8671 84.6931 14.6815 85.5321 14.6815C86.3743 14.6815 86.9381 13.8108 86.9381 12.7272C86.9392 11.6229 86.3868 10.7969 85.5446 10.7969ZM92.896 15.4523L92.8093 14.8277H92.7774C92.4121 15.3303 91.8791 15.5754 91.2034 15.5754C90.2389 15.5754 89.5541 14.8944 89.5541 13.9787C89.5541 12.6397 90.7058 11.9472 92.6997 11.9472V11.8472C92.6997 11.1328 92.3242 10.7751 91.5823 10.7751C91.0516 10.7751 90.5859 10.9097 90.1762 11.1777L89.933 10.3851C90.4307 10.0722 91.0516 9.91583 91.7809 9.91583C93.1871 9.91583 93.897 10.6635 93.897 12.1601V14.1582C93.897 14.7057 93.921 15.1302 93.9746 15.4535L92.896 15.4523ZM92.7316 12.7502C91.4032 12.7502 90.7366 13.0746 90.7366 13.8441C90.7366 14.4136 91.0801 14.6919 91.5572 14.6919C92.1656 14.6919 92.7316 14.2237 92.7316 13.5876V12.7502ZM99.7054 15.4523L99.6493 14.5815H99.616C99.2728 15.2395 98.6949 15.5754 97.8887 15.5754C96.5902 15.5754 95.6291 14.4251 95.6291 12.8065C95.6291 11.1098 96.6263 9.91468 97.9867 9.91468C98.7063 9.91468 99.2168 10.1596 99.5048 10.652H99.5286V7.53809H100.725V13.9902C100.725 14.5148 100.739 15.0059 100.77 15.4523H99.7054ZM99.5286 12.2601C99.5286 11.5009 99.0295 10.8533 98.268 10.8533C97.3811 10.8533 96.8393 11.6459 96.8393 12.7617C96.8393 13.8556 97.402 14.6045 98.2443 14.6045C98.9962 14.6045 99.5286 13.9453 99.5286 13.1643V12.2601ZM108.317 15.5754C106.746 15.5754 105.726 14.3917 105.726 12.7847C105.726 11.1098 106.767 9.91583 108.406 9.91583C109.957 9.91583 110.998 11.0431 110.998 12.6961C110.999 14.3916 109.925 15.5754 108.317 15.5754ZM108.362 10.7969C107.499 10.7969 106.945 11.6114 106.945 12.7502C106.945 13.8671 107.51 14.6815 108.35 14.6815C109.193 14.6815 109.756 13.8108 109.756 12.7272C109.758 11.6229 109.205 10.7969 108.362 10.7969ZM117.431 15.4523H116.234V12.3372C116.234 11.3779 115.868 10.897 115.148 10.897C114.439 10.897 113.953 11.5113 113.953 12.2256V15.4523H112.755V11.578C112.755 11.0983 112.744 10.5842 112.711 10.0262H113.763L113.819 10.8636H113.852C114.173 10.2839 114.827 9.91468 115.558 9.91468C116.687 9.91468 117.431 10.7854 117.431 12.2026V15.4523ZM125.479 10.9316H124.162V13.5657C124.162 14.2364 124.393 14.5711 124.859 14.5711C125.07 14.5711 125.247 14.5481 125.389 14.5148L125.422 15.4304C125.19 15.5202 124.881 15.565 124.495 15.565C123.552 15.565 122.988 15.0404 122.988 13.6669V10.9316H122.203V10.0274H122.988V9.0335L124.162 8.67575V10.0262H125.479V10.9316ZM131.811 15.4523H130.616V12.3602C130.616 11.3894 130.252 10.8981 129.53 10.8981C128.91 10.8981 128.333 11.3227 128.333 12.1819V15.4523H127.138V7.53809H128.333V10.7969H128.357C128.733 10.2056 129.279 9.91468 129.975 9.91468C131.115 9.91468 131.811 10.8073 131.811 12.2256V15.4523ZM138.299 13.0297H134.708C134.731 14.057 135.406 14.6367 136.405 14.6367C136.935 14.6367 137.424 14.547 137.856 14.3801L138.041 15.2176C137.532 15.4408 136.933 15.5524 136.236 15.5524C134.552 15.5524 133.556 14.4803 133.556 12.818C133.556 11.1547 134.576 9.90433 136.101 9.90433C137.476 9.90433 138.339 10.9316 138.339 12.4833C138.347 12.6664 138.333 12.8499 138.299 13.0297ZM137.202 12.1704C137.202 11.333 136.782 10.7417 136.018 10.7417C135.331 10.7417 134.787 11.3445 134.71 12.1704H137.202Z" fill="white"/>
<defs>
<linearGradient id="paint0_linear" x1="112.948" y1="46.1221" x2="112.948" y2="-119.776" gradientUnits="userSpaceOnUse">
<stop stop-color="#1A1A1A" stop-opacity="0.1"/>
<stop offset="0.123" stop-color="#212121" stop-opacity="0.151"/>
<stop offset="0.308" stop-color="#353535" stop-opacity="0.227"/>
<stop offset="0.532" stop-color="#575757" stop-opacity="0.318"/>
<stop offset="0.783" stop-color="#858585" stop-opacity="0.421"/>
<stop offset="1" stop-color="#B3B3B3" stop-opacity="0.51"/>
</linearGradient>
</defs>
</svg>
