<svg width="44" height="43" viewBox="0 0 44 43" fill="none" xmlns="http://www.w3.org/2000/svg">
<g clip-path="url(#clip0)">
<path d="M38.5002 32.3387H44.0002V35.8655H38.5002V41.1556H34.8335V35.8655H29.3335V32.3387H34.8335V27.0486H38.5002V32.3387ZM34.8335 14.7049V11.1781H5.50016V14.7049H34.8335ZM34.8335 21.7584H5.50016V32.3387H25.6668V35.8655H5.50016C3.46516 35.8655 1.8335 34.2784 1.8335 32.3387V11.1781C1.8335 9.22078 3.46516 7.65137 5.50016 7.65137H34.8335C35.806 7.65137 36.7386 8.02294 37.4262 8.68433C38.1139 9.34573 38.5002 10.2428 38.5002 11.1781V23.5218H34.8335V21.7584Z" fill="#C35BC0"/>
</g>
<defs>
<clipPath id="clip0">
<rect width="44" height="42.3211" fill="white" transform="translate(0 0.597656)"/>
</clipPath>
</defs>
</svg>
