<svg width="44" height="43" viewBox="0 0 44 43" fill="none" xmlns="http://www.w3.org/2000/svg">
<path d="M5.5 11.1777H38.5V32.3383H5.5V11.1777ZM22 16.4679C23.4587 16.4679 24.8576 17.0252 25.8891 18.0173C26.9205 19.0094 27.5 20.355 27.5 21.758C27.5 23.1611 26.9205 24.5066 25.8891 25.4987C24.8576 26.4908 23.4587 27.0482 22 27.0482C20.5413 27.0482 19.1424 26.4908 18.1109 25.4987C17.0795 24.5066 16.5 23.1611 16.5 21.758C16.5 20.355 17.0795 19.0094 18.1109 18.0173C19.1424 17.0252 20.5413 16.4679 22 16.4679ZM12.8333 14.7045C12.8333 15.6399 12.447 16.5369 11.7594 17.1983C11.0718 17.8597 10.1391 18.2313 9.16667 18.2313V25.2848C10.1391 25.2848 11.0718 25.6564 11.7594 26.3178C12.447 26.9791 12.8333 27.8762 12.8333 28.8115H31.1667C31.1667 27.8762 31.553 26.9791 32.2406 26.3178C32.9282 25.6564 33.8609 25.2848 34.8333 25.2848V18.2313C33.8609 18.2313 32.9282 17.8597 32.2406 17.1983C31.553 16.5369 31.1667 15.6399 31.1667 14.7045H12.8333Z" fill="#C35BC0"/>
</svg>
