<svg width="44" height="43" viewBox="0 0 44 43" fill="none" xmlns="http://www.w3.org/2000/svg">
<path d="M34.3198 26.231C34.9615 24.7321 35.3098 23.1274 35.3098 21.364C35.3098 20.0944 35.1082 18.8777 34.7598 17.7491C33.5682 18.0136 32.3215 18.1547 31.0198 18.1547C25.4098 18.1547 20.4415 15.492 17.4165 11.3833C15.7848 15.1922 12.6682 18.2958 8.74484 19.9886C8.6715 20.4294 8.6715 20.9056 8.6715 21.364C8.6715 24.7641 10.0757 28.0248 12.5753 30.429C15.0748 32.8332 18.4649 34.1838 21.9998 34.1838C23.9248 34.1838 25.7765 33.7782 27.4448 33.0553C28.4898 34.9773 28.9665 35.9296 28.9298 35.9296C25.9232 36.8994 23.5948 37.3755 21.9998 37.3755C17.5632 37.3755 13.3282 35.7003 10.2115 32.6849C8.30484 30.851 6.89317 28.6115 6.10484 26.1781H3.6665V18.1547H5.66484C7.20484 10.8543 13.9332 5.35254 21.9998 5.35254C26.3998 5.35254 30.6348 7.02775 33.7698 10.0431C36.0982 12.265 37.6565 15.104 38.2982 18.1547H40.3332V26.0723V26.1075V26.1781H40.2232L33.6965 31.9443L23.9798 30.8863V27.9415H32.8348L34.3198 26.231ZM16.9948 20.9585C17.5448 20.9585 18.0765 21.1701 18.4615 21.558C18.8465 21.9283 19.0665 22.4397 19.0665 22.9687C19.0665 23.4977 18.8465 24.0091 18.4615 24.3794C18.0765 24.7497 17.5448 24.9613 16.9948 24.9613C15.8398 24.9613 14.9048 24.0796 14.9048 22.9687C14.9048 21.8578 15.8398 20.9585 16.9948 20.9585ZM26.9865 20.9585C28.1415 20.9585 29.0582 21.8578 29.0582 22.9687C29.0582 24.0796 28.1415 24.9613 26.9865 24.9613C25.8315 24.9613 24.8965 24.0796 24.8965 22.9687C24.8965 22.4356 25.1167 21.9242 25.5087 21.5473C25.9006 21.1703 26.4322 20.9585 26.9865 20.9585Z" fill="#C35BC0"/>
</svg>
