<svg width="466" height="376" viewBox="0 0 466 376" fill="none" xmlns="http://www.w3.org/2000/svg">
<path d="M382.78 27.6515C372.893 19.6054 362.872 13.3473 354.477 12.2745L304.361 5.88234C261.352 0.393105 216.752 -4.96203 175.397 8.18889C124.897 24.2811 84.6771 69.1069 74.1908 121.058C71.0351 136.667 70.3646 152.822 65.4567 167.976C58.0994 190.684 41.9274 209.216 28.3391 228.885C14.5541 248.785 2.93244 271.064 0.438264 295.194C-2.05591 319.323 6.07028 345.553 25.4694 360.081C44.8686 374.609 71.1156 375.1 95.3869 374.966C192.481 374.439 292.597 377.21 389.128 368.708C411.656 366.706 435.498 360.868 450.552 343.989C469.728 322.47 468.843 289.374 459.823 261.999C450.803 234.624 434.988 209.771 427.077 182.056C421.226 161.487 419.875 139.899 423.116 118.76C425.798 101.238 433.218 77.6357 419.103 62.9561C410.583 54.0338 396.807 39.0502 382.78 27.6515Z" fill="#E9F7EF"/>
<path d="M250.442 94.9085L394.837 124.909L170.878 334.707L35 269.37L250.442 94.9085Z" fill="white"/>
<path d="M246.908 111.275L361.123 134.934" stroke="#80868C"/>
<path d="M232.293 124.37L345.626 151.948" stroke="#80868C"/>
<path d="M217.241 140.208L330.569 167.806" stroke="#80868C"/>
<g clip-path="url(#clip0)">
<path d="M184.413 299.067C184.107 299.067 183.798 298.972 183.533 298.777C182.88 298.294 182.746 297.376 183.232 296.727L196.445 279.115C196.932 278.466 197.854 278.332 198.509 278.815C199.161 279.299 199.296 280.216 198.809 280.865L185.596 298.479C185.306 298.863 184.862 299.067 184.413 299.067Z" fill="#D62929"/>
<path d="M247.752 201.096C242.412 208.552 236.375 217.038 230.251 225.757C208.821 256.266 186.333 289.614 188.972 291.604C192.2 294.036 217.876 263.004 240.99 233.704C247.59 225.338 253.98 217.114 259.581 209.85C265.544 202.117 270.61 195.472 274.076 190.906C276.818 187.294 276.255 182.286 272.823 179.747C269.364 177.187 264.33 178.12 261.646 181.819C258.28 186.456 253.407 193.198 247.752 201.096Z" fill="url(#paint0_linear)"/>
<path d="M268.649 186.825L269.623 193.45L262.953 194.417L261.979 187.793L268.649 186.825Z" fill="#1D72D8"/>
<path d="M256.668 207.163L254.648 193.427L253.096 193.652C251.418 195.984 249.629 198.474 247.752 201.095C246.125 203.367 244.433 205.737 242.693 208.177L242.839 209.169L256.668 207.163Z" fill="#23286B"/>
<path d="M241.223 219.037L242.77 229.561L244.438 229.319C247.06 225.979 249.63 222.688 252.112 219.494L251.819 217.498L241.223 219.037Z" fill="#78A9EF"/>
<path d="M233.438 230.472L234.176 235.491L229.123 236.224L228.385 231.205L233.438 230.472Z" fill="white"/>
<path d="M271.932 173.08L279.608 178.761L275.467 184.283L267.79 178.601L271.932 173.08Z" fill="#428DFC"/>
<path d="M252.798 228.077C252.316 228.077 251.872 227.761 251.735 227.277C250.508 222.966 252.324 217.896 256.593 213.716C258.326 212.018 260.28 210.562 262.17 209.156C263.969 207.816 265.83 206.431 267.437 204.872C272.282 200.174 275.088 193.621 275.136 186.896C275.141 186.126 275.097 185.34 274.748 184.818C274.559 184.538 274.015 184.328 273.381 184.084C272.537 183.758 271.488 183.353 270.455 182.501C270.233 182.319 270.025 182.152 269.828 181.994C268.583 180.998 267.601 180.212 266.912 178.269C266.709 177.696 267.012 177.069 267.588 176.868C268.167 176.669 268.796 176.967 268.999 177.539C269.479 178.893 270.059 179.358 271.216 180.285C271.42 180.449 271.637 180.622 271.867 180.812C272.624 181.436 273.416 181.741 274.182 182.036C275.081 182.384 276.012 182.742 276.588 183.6C277.268 184.614 277.355 185.791 277.348 186.911C277.296 194.218 274.247 201.338 268.982 206.443C267.273 208.102 265.353 209.531 263.497 210.913C261.667 212.276 259.773 213.685 258.145 215.28C254.46 218.889 252.86 223.151 253.863 226.68C254.03 227.264 253.688 227.871 253.1 228.035C252.998 228.064 252.898 228.077 252.798 228.077Z" fill="#23286B"/>
<path d="M200.265 277.295L202.164 279.181L200.265 281.067L198.366 279.181L200.265 277.295Z" fill="white"/>
</g>
<defs>
<linearGradient id="paint0_linear" x1="224.028" y1="230.582" x2="265.965" y2="261.998" gradientUnits="userSpaceOnUse">
<stop stop-color="#E94A47"/>
<stop offset="1" stop-color="#D62929"/>
</linearGradient>
<clipPath id="clip0">
<rect width="96.669" height="125.987" fill="white" transform="translate(182.939 173.08)"/>
</clipPath>
</defs>
</svg>
