<svg width="30" height="27" viewBox="0 0 30 27" fill="none" xmlns="http://www.w3.org/2000/svg">
<path d="M18 0C14.8174 0 11.7652 1.26428 9.51472 3.51472C7.26428 5.76515 6 8.8174 6 12C6 15.1826 7.26428 18.2348 9.51472 20.4853C11.7652 22.7357 14.8174 24 18 24C21.1826 24 24.2348 22.7357 26.4853 20.4853C28.7357 18.2348 30 15.1826 30 12C30 8.8174 28.7357 5.76515 26.4853 3.51472C24.2348 1.26428 21.1826 0 18 0ZM4.395 5.73C1.62 8.01 0 11.415 0 15C0 18.1826 1.26428 21.2348 3.51472 23.4853C5.76516 25.7357 8.8174 27 12 27C12.96 27 13.905 26.88 14.82 26.655C12.18 26.07 9.75 24.75 7.755 22.935C4.83 21.375 3 18.315 3 15C3 14.55 3.045 14.115 3.105 13.665C3.045 13.11 3 12.555 3 12C3 9.84 3.48 7.695 4.395 5.73ZM24.135 6.12L26.25 8.25L16.5 18L10.815 12.315L12.945 10.185L16.5 13.755" fill="#5B5B5B"/>
</svg>
