<svg width="154" height="46" viewBox="0 0 154 46" fill="none" xmlns="http://www.w3.org/2000/svg">
<path d="M148.296 46H5.7037C2.50963 46 0 43.47 0 40.25V5.75C0 2.53 2.50963 0 5.7037 0H148.296C151.49 0 154 2.53 154 5.75V40.25C154 43.47 151.49 46 148.296 46Z" fill="black"/>
<path d="M148.296 0.92C150.92 0.92 153.087 3.105 153.087 5.75V40.25C153.087 42.895 150.92 45.08 148.296 45.08H5.7037C3.08 45.08 0.912593 42.895 0.912593 40.25V5.75C0.912593 3.105 3.08 0.92 5.7037 0.92H148.296ZM148.296 0H5.7037C2.50963 0 0 2.645 0 5.75V40.25C0 43.47 2.50963 46 5.7037 46H148.296C151.49 46 154 43.47 154 40.25V5.75C154 2.645 151.49 0 148.296 0Z" fill="black"/>
<path d="M54.071 11.7295C54.071 12.6495 53.8429 13.4545 53.2725 14.0295C52.588 14.7195 51.7895 15.0645 50.7629 15.0645C49.7362 15.0645 48.9377 14.7195 48.2532 14.0295C47.5688 13.3395 47.2266 12.5345 47.2266 11.4995C47.2266 10.4645 47.5688 9.65954 48.2532 8.96957C48.9377 8.27957 49.7362 7.93457 50.7629 7.93457C51.2192 7.93457 51.6755 8.04957 52.1317 8.27957C52.588 8.50957 52.9303 8.73957 53.1584 9.08457L52.588 9.65954C52.1317 9.08457 51.5614 8.85457 50.7629 8.85457C50.0784 8.85457 49.394 9.08457 48.9377 9.65954C48.3673 10.1195 48.1392 10.8095 48.1392 11.6145C48.1392 12.4195 48.3673 13.1095 48.9377 13.5695C49.508 14.0295 50.0784 14.3745 50.7629 14.3745C51.5614 14.3745 52.1317 14.1445 52.7021 13.5695C53.0443 13.2245 53.2725 12.7645 53.2725 12.1895H50.7629V11.2695H54.071V11.7295ZM59.3184 8.85457H56.2384V11.0395H59.0903V11.8445H56.2384V14.0295H59.3184V14.9495H55.3258V8.04957H59.3184V8.85457ZM63.0829 14.9495H62.1703V8.85457H60.231V8.04957H65.0221V8.85457H63.0829V14.9495ZM68.3303 14.9495V8.04957H69.2429V14.9495H68.3303ZM73.1214 14.9495H72.2088V8.85457H70.2695V8.04957H74.9466V8.85457H73.0073V14.9495H73.1214ZM83.9584 14.0295C83.274 14.7195 82.4754 15.0645 81.4488 15.0645C80.4221 15.0645 79.6236 14.7195 78.9391 14.0295C78.2547 13.3395 77.9125 12.5345 77.9125 11.4995C77.9125 10.4645 78.2547 9.65954 78.9391 8.96957C79.6236 8.27957 80.4221 7.93457 81.4488 7.93457C82.4754 7.93457 83.274 8.27957 83.9584 8.96957C84.6429 9.65954 84.9851 10.4645 84.9851 11.4995C84.9851 12.5345 84.6429 13.3395 83.9584 14.0295ZM79.6236 13.4545C80.0799 13.9145 80.7643 14.2595 81.4488 14.2595C82.1332 14.2595 82.8177 14.0295 83.274 13.4545C83.7303 12.9945 84.0725 12.3045 84.0725 11.4995C84.0725 10.6945 83.8443 10.0045 83.274 9.54457C82.8177 9.08457 82.1332 8.73957 81.4488 8.73957C80.7643 8.73957 80.0799 8.96957 79.6236 9.54457C79.1673 10.0045 78.8251 10.6945 78.8251 11.4995C78.8251 12.3045 79.0532 12.9945 79.6236 13.4545ZM86.2399 14.9495V8.04957H87.2666L90.5747 13.4545V8.04957H91.4873V14.9495H90.5747L87.0384 9.31457V14.9495H86.2399Z" fill="white"/>
<path d="M77.6843 25.07C74.9465 25.07 72.7791 27.14 72.7791 30.015C72.7791 32.775 74.9465 34.96 77.6843 34.96C80.4221 34.96 82.5895 32.89 82.5895 30.015C82.5895 27.025 80.4221 25.07 77.6843 25.07ZM77.6843 32.89C76.2013 32.89 74.9465 31.625 74.9465 29.9C74.9465 28.175 76.2013 26.91 77.6843 26.91C79.1672 26.91 80.4221 28.06 80.4221 29.9C80.4221 31.625 79.1672 32.89 77.6843 32.89ZM67.0754 25.07C64.3376 25.07 62.1702 27.14 62.1702 30.015C62.1702 32.775 64.3376 34.96 67.0754 34.96C69.8132 34.96 71.9806 32.89 71.9806 30.015C71.9806 27.025 69.8132 25.07 67.0754 25.07ZM67.0754 32.89C65.5924 32.89 64.3376 31.625 64.3376 29.9C64.3376 28.175 65.5924 26.91 67.0754 26.91C68.5584 26.91 69.8132 28.06 69.8132 29.9C69.8132 31.625 68.5584 32.89 67.0754 32.89ZM54.4132 26.565V28.635H59.3184C59.2043 29.785 58.748 30.705 58.1776 31.28C57.4932 31.97 56.3524 32.775 54.4132 32.775C51.3332 32.775 49.0517 30.36 49.0517 27.255C49.0517 24.15 51.4472 21.735 54.4132 21.735C56.0102 21.735 57.265 22.425 58.1776 23.23L59.6606 21.735C58.4058 20.585 56.8087 19.665 54.5272 19.665C50.4206 19.665 46.8843 23.115 46.8843 27.255C46.8843 31.395 50.4206 34.845 54.5272 34.845C56.8087 34.845 58.4058 34.155 59.7746 32.66C61.1435 31.28 61.5998 29.325 61.5998 27.83C61.5998 27.37 61.5998 26.91 61.4858 26.565H54.4132ZM106.203 28.175C105.747 27.025 104.606 25.07 102.097 25.07C99.5869 25.07 97.5335 27.025 97.5335 30.015C97.5335 32.775 99.5869 34.96 102.325 34.96C104.492 34.96 105.861 33.58 106.317 32.775L104.72 31.625C104.15 32.43 103.465 33.005 102.325 33.005C101.184 33.005 100.499 32.545 99.9291 31.51L106.431 28.75L106.203 28.175ZM99.5869 29.785C99.5869 27.945 101.07 26.91 102.097 26.91C102.895 26.91 103.694 27.37 103.922 27.945L99.5869 29.785ZM94.225 34.5H96.3928V20.125H94.225V34.5ZM90.8028 26.105C90.2324 25.53 89.3198 24.955 88.1791 24.955C85.7835 24.955 83.5021 27.14 83.5021 29.9C83.5021 32.66 85.6695 34.73 88.1791 34.73C89.3198 34.73 90.2324 34.155 90.6887 33.58H90.8028V34.27C90.8028 36.11 89.7761 37.145 88.1791 37.145C86.9243 37.145 86.0117 36.225 85.7835 35.42L83.9584 36.225C84.5287 37.49 85.8976 39.1 88.2932 39.1C90.8028 39.1 92.8561 37.605 92.8561 34.04V25.3H90.8028V26.105ZM88.2932 32.89C86.8102 32.89 85.5554 31.625 85.5554 29.9C85.5554 28.175 86.8102 26.91 88.2932 26.91C89.7761 26.91 90.9169 28.175 90.9169 29.9C90.9169 31.625 89.7761 32.89 88.2932 32.89ZM116.128 20.125H110.994V34.5H113.162V29.095H116.128C118.523 29.095 120.805 27.37 120.805 24.61C120.805 21.85 118.523 20.125 116.128 20.125ZM116.242 27.025H113.162V22.08H116.242C117.839 22.08 118.751 23.46 118.751 24.495C118.637 25.76 117.725 27.025 116.242 27.025ZM129.36 24.955C127.763 24.955 126.166 25.645 125.596 27.14L127.535 27.945C127.991 27.14 128.676 26.91 129.474 26.91C130.615 26.91 131.642 27.6 131.756 28.75V28.865C131.414 28.635 130.501 28.29 129.588 28.29C127.535 28.29 125.482 29.44 125.482 31.51C125.482 33.465 127.193 34.73 129.018 34.73C130.501 34.73 131.185 34.04 131.756 33.35H131.87V34.5H133.923V28.98C133.695 26.45 131.756 24.955 129.36 24.955ZM129.132 32.89C128.448 32.89 127.421 32.545 127.421 31.625C127.421 30.475 128.676 30.13 129.702 30.13C130.615 30.13 131.071 30.36 131.642 30.59C131.414 31.97 130.273 32.89 129.132 32.89ZM141.11 25.3L138.714 31.51H138.6L136.091 25.3H133.809L137.574 34.04L135.406 38.87H137.574L143.391 25.3H141.11ZM121.945 34.5H124.113V20.125H121.945V34.5Z" fill="white"/>
<path d="M11.864 8.625C11.5218 8.97 11.4077 9.545 11.4077 10.235V35.65C11.4077 36.34 11.6359 36.915 11.9781 37.26L12.0922 37.375L26.2373 23.115V22.885L11.864 8.625Z" fill="url(#paint0_linear)"/>
<path d="M30.8001 27.9449L26.123 23.2299V22.8849L30.8001 18.1699L30.9142 18.2849L36.5038 21.5049C38.1008 22.4249 38.1008 23.9199 36.5038 24.8399L30.8001 27.9449Z" fill="url(#paint1_linear)"/>
<path d="M30.9146 27.83L26.1235 23L11.8643 37.375C12.4346 37.95 13.2331 37.95 14.2598 37.49L30.9146 27.83Z" fill="url(#paint2_linear)"/>
<path d="M30.9146 18.1701L14.2598 8.6251C13.2331 8.0501 12.4346 8.1651 11.8643 8.7401L26.1235 23.0001L30.9146 18.1701Z" fill="url(#paint3_linear)"/>
<path opacity="0.2" d="M30.8006 27.7148L14.2598 37.1448C13.3472 37.7198 12.5487 37.6048 11.9783 37.1448L11.8643 37.2598L11.9783 37.3748C12.5487 37.8348 13.3472 37.9498 14.2598 37.3748L30.8006 27.7148Z" fill="black"/>
<path opacity="0.2" d="M11.864 37.145C11.5218 36.8 11.4077 36.225 11.4077 35.535V35.65C11.4077 36.34 11.6359 36.915 11.9781 37.26V37.145H11.864ZM36.504 24.495L30.8003 27.715L30.9144 27.83L36.504 24.61C37.3025 24.15 37.6447 23.575 37.6447 23C37.6447 23.575 37.1885 24.035 36.504 24.495Z" fill="black"/>
<path opacity="0.2" d="M14.2601 8.74046L36.5045 21.5054C37.1889 21.9654 37.6452 22.4254 37.6452 23.0004C37.6452 22.4254 37.303 21.8504 36.5045 21.3904L14.2601 8.62546C12.663 7.70546 11.4082 8.39546 11.4082 10.2354V10.3504C11.4082 8.62546 12.663 7.82046 14.2601 8.74046Z" fill="white"/>
<defs>
<linearGradient id="paint0_linear" x1="24.8685" y1="10.0165" x2="5.56864" y2="29.1598" gradientUnits="userSpaceOnUse">
<stop stop-color="#00A0FF"/>
<stop offset="0.007" stop-color="#00A1FF"/>
<stop offset="0.26" stop-color="#00BEFF"/>
<stop offset="0.512" stop-color="#00D2FF"/>
<stop offset="0.76" stop-color="#00DFFF"/>
<stop offset="1" stop-color="#00E3FF"/>
</linearGradient>
<linearGradient id="paint1_linear" x1="38.5959" y1="23.0011" x2="10.9934" y2="23.0011" gradientUnits="userSpaceOnUse">
<stop stop-color="#FFE000"/>
<stop offset="0.409" stop-color="#FFBD00"/>
<stop offset="0.775" stop-color="#FFA500"/>
<stop offset="1" stop-color="#FF9C00"/>
</linearGradient>
<linearGradient id="paint2_linear" x1="28.3217" y1="25.6404" x2="2.15088" y2="51.6005" gradientUnits="userSpaceOnUse">
<stop stop-color="#FF3A44"/>
<stop offset="1" stop-color="#C31162"/>
</linearGradient>
<linearGradient id="paint3_linear" x1="8.32455" y1="0.202507" x2="20.0116" y2="11.7955" gradientUnits="userSpaceOnUse">
<stop stop-color="#32A071"/>
<stop offset="0.069" stop-color="#2DA771"/>
<stop offset="0.476" stop-color="#15CF74"/>
<stop offset="0.801" stop-color="#06E775"/>
<stop offset="1" stop-color="#00F076"/>
</linearGradient>
</defs>
</svg>
