<svg width="42" height="42" viewBox="0 0 42 42" fill="none" xmlns="http://www.w3.org/2000/svg">
<g clip-path="url(#clip0)">
<path d="M35 14H7V10.5H35V14ZM35 31.5H7V21H35V31.5ZM35 7H7C5.0575 7 3.5 8.5575 3.5 10.5V31.5C3.5 32.4283 3.86875 33.3185 4.52513 33.9749C5.1815 34.6313 6.07174 35 7 35H35C35.9283 35 36.8185 34.6313 37.4749 33.9749C38.1313 33.3185 38.5 32.4283 38.5 31.5V10.5C38.5 8.5575 36.925 7 35 7ZM12.25 38.5H15.75V42H12.25V38.5ZM19.25 38.5H22.75V42H19.25V38.5ZM26.25 38.5H29.75V42H26.25V38.5Z" fill="#C35BC0"/>
</g>
<defs>
<clipPath id="clip0">
<rect width="42" height="42" fill="white"/>
</clipPath>
</defs>
</svg>
