<svg width="42" height="38" viewBox="0 0 42 38" fill="none" xmlns="http://www.w3.org/2000/svg">
<path d="M27.3 23.689V16.5823H33.6V11.8445L42 20.1357L33.6 28.4268V23.689H27.3ZM25.2 8.76494V11.8445H0V8.76494L12.6 0L25.2 8.76494ZM10.5 14.2134H14.7V26.0579H10.5V14.2134ZM2.1 14.2134H6.3V26.0579H2.1V14.2134ZM23.1 14.2134V20.1357L18.9 24.3997V14.2134H23.1ZM14.91 28.4268L13.65 29.6113L17.22 33.1646H0V28.4268H14.91ZM31.5 26.0579V33.1646H25.2V37.9024L16.8 29.6113L25.2 21.3201V26.0579H31.5Z" fill="#C35BC0"/>
</svg>
