<svg width="42" height="42" viewBox="0 0 42 42" fill="none" xmlns="http://www.w3.org/2000/svg">
<path d="M19.25 14C19.25 17.8675 16.1175 21 12.25 21C8.3825 21 5.25 17.8675 5.25 14C5.25 10.1325 8.3825 7 12.25 7C16.1175 7 19.25 10.1325 19.25 14ZM19.25 25.76V35H0V31.5C0 27.6325 5.4775 24.5 12.25 24.5C14.875 24.5 17.2725 24.9725 19.25 25.76ZM42 35H22.75V5.25H42V35ZM28 20.125C28 17.71 29.96 15.75 32.375 15.75C34.79 15.75 36.75 17.71 36.75 20.125C36.75 22.54 34.79 24.5 32.375 24.5C29.96 24.5 28 22.54 28 20.125ZM38.5 12.25C36.575 12.25 35 10.6925 35 8.75H29.75C29.75 10.6925 28.1925 12.25 26.25 12.25V28C28.1925 28 29.75 29.575 29.75 31.5H35C35 29.575 36.575 28 38.5 28V12.25Z" fill="#C35BC0"/>
</svg>
