<svg width="47" height="50" viewBox="0 0 47 50" fill="none" xmlns="http://www.w3.org/2000/svg">
<path d="M47 8.98571V12.1429H18V8.98571L32.5 0L47 8.98571ZM18 29.1429H47V34H18V29.1429ZM30.0833 14.5714H34.9167V26.7143H30.0833V14.5714ZM20.4167 14.5714H25.25V26.7143H20.4167V14.5714ZM39.75 14.5714H44.5833V26.7143H39.75V14.5714Z" fill="#C35BC0"/>
<path d="M19.2502 40.0833H25.6668V41.8333H19.2502V43.875L16.3335 40.9583L19.2502 38.0417V40.0833ZM22.7502 45.0417V43L25.6668 45.9167L22.7502 48.8333V46.7917H16.3335V45.0417H22.7502ZM11.0835 28.4167C10.4647 28.4167 9.87117 28.1708 9.43358 27.7332C8.996 27.2957 8.75016 26.7022 8.75016 26.0833C8.75016 25.4645 8.996 24.871 9.43358 24.4334C9.87117 23.9958 10.4647 23.75 11.0835 23.75C11.7023 23.75 12.2958 23.9958 12.7334 24.4334C13.171 24.871 13.4168 25.4645 13.4168 26.0833C13.4168 26.7022 13.171 27.2957 12.7334 27.7332C12.2958 28.1708 11.7023 28.4167 11.0835 28.4167ZM6.7085 32.3833L4.66683 33.2583V37.1667H2.3335V31.6833L8.4585 29.175C8.75016 29.0583 9.04183 29 9.3335 29C10.1502 29 10.9085 29.4083 11.3168 30.1083L12.4252 31.975C13.4752 33.6667 15.3418 34.8333 17.5002 34.8333V37.1667C14.9335 37.1667 12.6585 36 11.1418 34.1333L10.4418 37.6333L12.8335 40.025V48.8333H10.5002V41.8333L7.99183 39.5L5.95016 48.8333H3.50016L6.7085 32.3833Z" fill="#C35BC0"/>
</svg>
