<svg width="148" height="44" viewBox="0 0 148 44" fill="none" xmlns="http://www.w3.org/2000/svg">
<path d="M142.631 43.819H5.1805C3.80677 43.8158 2.49027 43.2684 1.51931 42.2966C0.548337 41.3248 0.00202503 40.0079 0 38.6341L0 5.17722C0.00203019 3.80419 0.548588 2.48802 1.51978 1.51745C2.49096 0.546882 3.80747 0.00115893 5.1805 3.71853e-08H142.631C144.012 -0.000164045 145.337 0.54269 146.321 1.51134C147.305 2.48 147.868 3.79673 147.889 5.17722V38.6341C147.87 40.016 147.307 41.3346 146.323 42.3049C145.339 43.2752 144.013 43.8192 142.631 43.819Z" fill="#A6A6A6"/>
<path d="M146.829 38.6353C146.829 39.1867 146.721 39.7327 146.51 40.2421C146.299 40.7516 145.99 41.2145 145.6 41.6043C145.21 41.9942 144.747 42.3034 144.238 42.5142C143.728 42.7251 143.182 42.8335 142.631 42.8332H5.18063C4.62883 42.8338 4.08233 42.7256 3.57233 42.515C3.06233 42.3043 2.59883 41.9953 2.2083 41.6054C1.81776 41.2156 1.50785 40.7527 1.29625 40.2431C1.08466 39.7334 0.975529 39.1871 0.975098 38.6353V5.17625C0.976549 4.06172 1.42024 2.99332 2.20874 2.20564C2.99724 1.41796 4.0661 0.975387 5.18063 0.975098H142.631C143.183 0.975098 143.729 1.08377 144.239 1.29491C144.748 1.50605 145.211 1.81552 145.601 2.20565C145.991 2.59578 146.301 3.05892 146.512 3.56862C146.723 4.07832 146.831 4.62459 146.831 5.17625V38.6353H146.829Z" fill="black"/>
<path d="M33.0045 21.6729C33.0186 20.6018 33.3033 19.5516 33.8321 18.62C34.3609 17.6884 35.1166 16.9057 36.0291 16.3445C35.4492 15.5166 34.6843 14.8352 33.7951 14.3545C32.9059 13.8738 31.917 13.6069 30.9066 13.5751C28.7518 13.3484 26.6617 14.8645 25.564 14.8645C24.4444 14.8645 22.7541 13.597 20.9323 13.6343C19.7541 13.6726 18.606 14.0157 17.5999 14.6301C16.5939 15.2445 15.7643 16.1092 15.1921 17.1398C12.7097 21.4373 14.5611 27.7528 16.9448 31.2265C18.1345 32.9278 19.5247 34.8273 21.3442 34.7605C23.1244 34.6871 23.7893 33.6256 25.9376 33.6256C28.0661 33.6256 28.6905 34.7605 30.5462 34.7211C32.4567 34.6904 33.6596 33.0121 34.8076 31.2955C35.6626 30.0836 36.3203 28.7441 36.7565 27.3266C35.6443 26.8578 34.695 26.0714 34.0276 25.0657C33.3603 24.06 33.0043 22.8798 33.0045 21.6729Z" fill="white"/>
<path d="M29.4989 11.2899C30.5407 10.0399 31.0539 8.43298 30.9296 6.81055C29.3385 6.97797 27.8688 7.73826 26.8128 8.94015C26.2966 9.52745 25.9012 10.2108 25.6494 10.951C25.3975 11.6912 25.294 12.4739 25.3449 13.2541C26.1408 13.2625 26.9282 13.09 27.6478 12.7498C28.3674 12.4096 29.0003 11.9104 29.4989 11.2899Z" fill="white"/>
<path d="M58.7669 34.5066H56.2791L54.9163 30.2288H50.1795L48.8813 34.5066H46.4592L51.1522 19.9368H54.0509L58.7669 34.5066ZM54.5055 28.4278L53.2731 24.6254C53.1431 24.2369 52.8981 23.3214 52.538 21.879H52.4942C52.3481 22.4991 52.1174 23.4145 51.8019 24.6254L50.5968 28.4322L54.5055 28.4278Z" fill="white"/>
<path d="M70.8357 29.1265C70.9206 30.6738 70.4009 32.1935 69.3864 33.3648C68.9795 33.812 68.4818 34.1668 67.9264 34.4057C67.3711 34.6445 66.7711 34.7617 66.1668 34.7495C65.5804 34.797 64.9922 34.683 64.466 34.42C63.9398 34.157 63.4956 33.7549 63.1816 33.2575H63.1378V38.7951H60.7989V27.4602C60.7989 26.3363 60.7701 25.1827 60.7124 23.9996H62.7708L62.9012 25.6658H62.945C63.2989 25.124 63.7745 24.6723 64.3339 24.3468C64.8933 24.0213 65.521 23.8309 66.1669 23.7909C66.8129 23.7509 67.4593 23.8623 68.0545 24.1163C68.6498 24.3704 69.1775 24.7599 69.5956 25.2539C70.4634 26.3525 70.9039 27.7282 70.8357 29.1265ZM68.4563 29.2119C68.4929 28.3171 68.251 27.4329 67.764 26.6814C67.5383 26.3522 67.2339 26.0847 66.8783 25.9033C66.5228 25.7219 66.1276 25.6323 65.7286 25.6428C65.1548 25.6426 64.5994 25.8456 64.161 26.2158C63.6924 26.598 63.3682 27.1285 63.2419 27.7199C63.1774 27.9521 63.1406 28.1911 63.1323 28.4319V30.1847C63.1129 30.8961 63.3643 31.5883 63.8356 32.1215C64.063 32.3799 64.3447 32.5847 64.6607 32.7213C64.9766 32.8578 65.3189 32.9227 65.6629 32.9113C66.063 32.9274 66.4607 32.8427 66.8196 32.6651C67.1785 32.4875 67.487 32.2226 67.7169 31.8947C68.2423 31.1018 68.5013 30.162 68.4563 29.2119Z" fill="white"/>
<path d="M82.9277 29.1264C83.0128 30.674 82.4927 32.1939 81.4773 33.3648C81.0704 33.8124 80.5723 34.1676 80.0165 34.4064C79.4608 34.6453 78.8603 34.7623 78.2555 34.7495C77.6693 34.7971 77.0812 34.6832 76.5552 34.4202C76.0291 34.1571 75.5851 33.755 75.2715 33.2575H75.2276V38.7951H72.891V27.4602C72.891 26.3363 72.8621 25.1827 72.8044 23.9996H74.8585L74.9888 25.6658H75.0326C75.3867 25.124 75.8624 24.6723 76.4219 24.3468C76.9813 24.0213 77.6091 23.8309 78.2551 23.7909C78.9012 23.7509 79.5477 23.8623 80.143 24.1163C80.7384 24.3703 81.2662 24.7599 81.6844 25.2539C82.5522 26.3526 82.9937 27.7279 82.9277 29.1264ZM80.5484 29.2119C80.5846 28.317 80.3423 27.4328 79.8549 26.6814C79.6298 26.3524 79.3259 26.0851 78.9709 25.9037C78.616 25.7223 78.2213 25.6326 77.8228 25.6428C77.2487 25.6427 76.693 25.8456 76.2541 26.2158C75.7858 26.598 75.462 27.1286 75.3361 27.7199C75.2722 27.9522 75.2354 28.1911 75.2265 28.4319V30.1847C75.2074 30.8956 75.4579 31.5875 75.9276 32.1215C76.1555 32.3799 76.4376 32.5847 76.7539 32.7213C77.0702 32.8578 77.4128 32.9227 77.7571 32.9113C78.1572 32.9274 78.5549 32.8427 78.9138 32.6651C79.2727 32.4875 79.5812 32.2226 79.8111 31.8947C80.3354 31.1014 80.5932 30.1617 80.5473 29.2119H80.5484Z" fill="white"/>
<path d="M96.4446 30.4231C96.4637 30.9918 96.3576 31.5577 96.1338 32.081C95.9101 32.6042 95.5742 33.0718 95.1498 33.4509C94.0328 34.359 92.6155 34.8141 91.1787 34.7261C89.8585 34.7887 88.5479 34.4737 87.4004 33.8179L87.9416 31.8713C88.9585 32.4894 90.1277 32.8119 91.3178 32.8024C92.0514 32.8464 92.7776 32.6359 93.374 32.2065C93.6125 32.017 93.8032 31.7741 93.9307 31.4975C94.0581 31.2208 94.1189 30.9181 94.108 30.6137C94.1144 30.3364 94.0639 30.0608 93.9597 29.8039C93.8555 29.5469 93.6998 29.314 93.5022 29.1194C92.9167 28.609 92.2319 28.2252 91.4909 27.9922C88.9348 27.0428 87.6589 25.6493 87.6633 23.8119C87.6491 23.2513 87.7625 22.6948 87.995 22.1844C88.2275 21.6741 88.5729 21.2233 89.0053 20.8661C90.0149 20.0606 91.2844 19.6522 92.5743 19.7181C93.7168 19.6782 94.852 19.9158 95.8827 20.4104L95.2988 22.3143C94.4405 21.8583 93.4804 21.6276 92.5086 21.6439C91.8147 21.6022 91.1297 21.8179 90.5849 22.2497C90.3991 22.4142 90.2507 22.6167 90.15 22.8435C90.0492 23.0703 89.9984 23.3161 90.001 23.5643C89.9962 23.8371 90.054 24.1073 90.17 24.3542C90.2861 24.6011 90.4573 24.8181 90.6704 24.9884C91.3109 25.477 92.0254 25.8601 92.7868 26.1233C93.834 26.4926 94.7815 27.0993 95.5551 27.8958C96.1567 28.5976 96.474 29.4991 96.4446 30.4231Z" fill="white"/>
<path d="M104.166 25.7519H101.592V30.8557C101.592 32.1535 102.046 32.8024 102.955 32.8024C103.304 32.8096 103.652 32.7728 103.992 32.6929L104.057 34.4664C103.471 34.6577 102.856 34.7452 102.241 34.725C101.841 34.7472 101.44 34.6834 101.067 34.5379C100.694 34.3924 100.356 34.1685 100.077 33.8814C99.4798 33.0637 99.2027 32.0555 99.2981 31.0475V25.7497H97.7644V23.997H99.2981V22.0722L101.592 21.3799V23.997H104.166V25.7519Z" fill="white"/>
<path d="M115.782 29.169C115.839 30.6228 115.344 32.0444 114.397 33.1488C113.91 33.6801 113.314 34.0987 112.648 34.3751C111.983 34.6516 111.265 34.7793 110.545 34.7493C109.856 34.7799 109.168 34.6584 108.531 34.3933C107.894 34.1282 107.323 33.7262 106.859 33.2157C105.926 32.1465 105.435 30.7623 105.485 29.3442C105.426 27.8782 105.933 26.4456 106.902 25.3436C107.387 24.8224 107.979 24.413 108.638 24.144C109.298 23.875 110.007 23.7528 110.718 23.7858C111.413 23.7564 112.106 23.8783 112.749 24.1431C113.393 24.4079 113.97 24.8093 114.443 25.3195C115.364 26.3852 115.842 27.7621 115.782 29.169ZM113.359 29.2446C113.384 28.3712 113.167 27.5078 112.732 26.7502C112.535 26.3651 112.235 26.0431 111.864 25.8208C111.493 25.5984 111.067 25.4847 110.635 25.4926C110.196 25.4803 109.763 25.5917 109.384 25.8141C109.005 26.0365 108.697 26.3608 108.494 26.7502C108.055 27.5223 107.838 28.4007 107.867 29.2884C107.841 30.1614 108.058 31.0245 108.494 31.7817C108.699 32.1637 109.004 32.4826 109.377 32.7041C109.749 32.9257 110.175 33.0416 110.609 33.0393C111.043 33.0371 111.467 32.9168 111.838 32.6913C112.208 32.4659 112.51 32.1439 112.711 31.7598C113.156 30.9992 113.38 30.1298 113.359 29.2489V29.2446Z" fill="white"/>
<path d="M123.373 26.0533C123.131 26.0094 122.884 25.9878 122.637 25.9887C122.267 25.9716 121.899 26.0479 121.566 26.2107C121.233 26.3734 120.947 26.6173 120.733 26.9198C120.324 27.5348 120.12 28.2632 120.149 29.0012V34.5071H117.815L117.837 27.3054C117.837 26.0938 117.808 24.9907 117.749 23.996H119.784L119.869 26.0073H119.934C120.155 25.3514 120.56 24.7733 121.101 24.3422C121.589 23.9775 122.181 23.78 122.79 23.7791C122.985 23.7781 123.18 23.7924 123.373 23.8218V26.0533Z" fill="white"/>
<path d="M133.819 28.7583C133.825 29.1134 133.797 29.4682 133.734 29.8177H126.723C126.707 30.2647 126.79 30.7097 126.966 31.1211C127.142 31.5325 127.406 31.9002 127.739 32.1981C128.391 32.7087 129.204 32.9694 130.031 32.9332C130.999 32.9459 131.961 32.7772 132.866 32.4359L133.232 34.0572C132.115 34.5141 130.915 34.7353 129.708 34.7068C129.003 34.7456 128.298 34.6378 127.637 34.3903C126.976 34.1427 126.373 33.7607 125.867 33.2684C125.39 32.7496 125.021 32.1411 124.782 31.4783C124.543 30.8156 124.437 30.1118 124.473 29.408C124.421 27.9761 124.882 26.5729 125.772 25.45C126.209 24.9003 126.77 24.4613 127.408 24.1684C128.047 23.8755 128.745 23.737 129.447 23.7641C130.117 23.7269 130.785 23.8624 131.388 24.1576C131.99 24.4528 132.507 24.8979 132.888 25.45C133.532 26.4303 133.858 27.5859 133.819 28.7583ZM131.592 28.1525C131.623 27.5223 131.465 26.8972 131.139 26.3571C130.946 26.041 130.671 25.7834 130.343 25.6118C130.015 25.4403 129.646 25.3612 129.276 25.3832C128.912 25.3763 128.551 25.4596 128.226 25.6257C127.901 25.7917 127.622 26.0354 127.414 26.3352C127.016 26.8628 126.776 27.4927 126.723 28.1514H131.588L131.592 28.1525Z" fill="white"/>
<path d="M47.5698 7.96733C47.8363 7.81045 48.1196 7.68404 48.4144 7.59048C48.7742 7.48094 49.1491 7.42882 49.5252 7.43602C50.1072 7.40342 50.6823 7.57635 51.1498 7.9246C51.344 8.08265 51.4988 8.28367 51.6021 8.51181C51.7053 8.73994 51.7541 8.98895 51.7446 9.23918C51.7568 9.64469 51.6147 10.0397 51.347 10.3445C51.0789 10.644 50.7238 10.852 50.3314 10.9394V10.9711C50.5529 11.0053 50.769 11.0679 50.9745 11.1574C51.172 11.2423 51.3521 11.363 51.5058 11.5134C51.6584 11.6626 51.7811 11.8396 51.8673 12.0348C51.9571 12.2422 52.0022 12.4661 51.9999 12.6921C52.0117 13.0407 51.9288 13.386 51.7599 13.6912C51.6041 13.9553 51.3897 14.1802 51.1333 14.3485C50.8692 14.5214 50.576 14.6454 50.2679 14.7144C49.9543 14.787 49.6335 14.8237 49.3116 14.8239C48.972 14.8226 48.6335 14.7859 48.3015 14.7144C47.9767 14.6471 47.6647 14.5288 47.377 14.3638L47.664 13.4874C47.8932 13.5965 48.1315 13.6856 48.376 13.7536C48.6623 13.8382 48.9593 13.881 49.2579 13.8807C49.6619 13.9067 50.0623 13.7904 50.3895 13.5521C50.5938 13.3678 50.7288 13.1192 50.7723 12.8476C50.8157 12.576 50.7649 12.2977 50.6283 12.0589C50.5228 11.901 50.3803 11.7713 50.2131 11.681C50.0355 11.5863 49.8434 11.5219 49.6446 11.4904C49.4394 11.4553 49.2316 11.4373 49.0235 11.4367H48.5447V10.5603H49.0235C49.2303 10.5626 49.4364 10.5338 49.6347 10.4749C49.8104 10.4247 49.9758 10.3438 50.1233 10.2361C50.2582 10.139 50.3703 10.0138 50.452 9.86907C50.5305 9.72189 50.5705 9.55718 50.5681 9.39035C50.5745 9.24742 50.547 9.10501 50.4877 8.97477C50.4285 8.84453 50.3393 8.73017 50.2274 8.64105C49.9631 8.44823 49.6405 8.3523 49.3138 8.36937C49.0465 8.37036 48.7811 8.41324 48.5272 8.49644C48.2874 8.57314 48.0528 8.66536 47.825 8.7725L47.5698 7.96733Z" fill="white"/>
<path d="M56.6964 14.7154L56.612 14.1206H56.5802C56.4077 14.3552 56.1795 14.5432 55.9161 14.6675C55.6528 14.7919 55.3626 14.8486 55.0718 14.8326C54.8536 14.8354 54.6371 14.7956 54.4342 14.7154C54.249 14.6418 54.0795 14.5336 53.9347 14.3966C53.793 14.2616 53.6811 14.0986 53.606 13.9179C53.5269 13.7258 53.4874 13.5198 53.4899 13.3121C53.4758 13.0215 53.5417 12.7327 53.6804 12.4769C53.8191 12.2212 54.0252 12.0084 54.2765 11.8617C54.9628 11.5016 55.7341 11.3346 56.5079 11.3786V11.2833C56.5079 10.6026 56.1508 10.2627 55.4366 10.2634C54.9598 10.2543 54.4911 10.3874 54.0902 10.6457L53.8569 9.89203C54.3932 9.57867 55.0075 9.42405 55.6283 9.44617C56.9794 9.44617 57.6549 10.1582 57.6549 11.5823V13.4841C57.6472 13.8962 57.6721 14.3083 57.7294 14.7165H56.6974L56.6964 14.7154ZM56.5375 12.1443C56.0479 12.1158 55.5582 12.1993 55.1057 12.3886C54.9574 12.4602 54.8335 12.5742 54.7499 12.7161C54.6662 12.8581 54.6265 13.0216 54.6358 13.1861C54.6269 13.2969 54.6419 13.4083 54.6796 13.5128C54.7174 13.6173 54.7772 13.7125 54.8549 13.7919C55.0089 13.9288 55.2098 14.001 55.4157 13.9935C55.5605 13.9942 55.7041 13.967 55.8386 13.9135C55.9685 13.8625 56.088 13.7883 56.1913 13.6944C56.2956 13.6 56.3804 13.4861 56.4411 13.3592C56.5042 13.2284 56.5364 13.0849 56.5353 12.9396L56.5375 12.1443Z" fill="white"/>
<path d="M63.1903 9.55151V10.4969H61.0432V14.7156H59.8962V9.55151H63.1903Z" fill="white"/>
<path d="M69.7569 12.0698C69.7612 12.4519 69.7038 12.8321 69.5871 13.196C69.4869 13.5157 69.3262 13.8132 69.1139 14.0723C68.9136 14.3159 68.6612 14.5112 68.3752 14.644C68.0893 14.7767 67.7771 14.8434 67.4619 14.8392C67.1738 14.8625 66.8848 14.8065 66.6263 14.6773C66.3677 14.5481 66.1494 14.3507 65.995 14.1063H65.9731V16.8264H64.8251V11.2515C64.8251 10.9754 64.8214 10.6972 64.8141 10.4167C64.8075 10.1374 64.7966 9.8482 64.7834 9.55023H65.7924L65.857 10.3685H65.8789C66.058 10.0706 66.3149 9.82709 66.622 9.66419C66.929 9.50129 67.2747 9.42515 67.6218 9.44397C67.9151 9.44289 68.2046 9.51002 68.4675 9.64006C68.7277 9.7695 68.9577 9.95242 69.1423 10.1768C69.3428 10.423 69.4958 10.7041 69.5937 11.0061C69.7057 11.3494 69.7609 11.7087 69.7569 12.0698ZM68.5891 12.1125C68.5911 11.874 68.5605 11.6363 68.4982 11.406C68.4453 11.2083 68.3553 11.0224 68.2331 10.8582C68.1193 10.7083 67.9743 10.5849 67.8081 10.4967C67.6484 10.4143 67.472 10.369 67.2924 10.3645C67.1127 10.3599 66.9343 10.3962 66.7706 10.4704C66.6172 10.5388 66.4784 10.6363 66.362 10.7574C66.1122 11.0219 65.9731 11.3719 65.9731 11.7357V12.5967C65.9711 12.7779 66.0019 12.9579 66.0641 13.128C66.1204 13.2849 66.2067 13.4292 66.3182 13.5531C66.4279 13.6737 66.5619 13.7697 66.7115 13.8346C66.8704 13.9036 67.0422 13.9379 67.2154 13.9354C67.4116 13.9437 67.6067 13.9029 67.7831 13.8166C67.9595 13.7303 68.1115 13.6013 68.2254 13.4414C68.4858 13.0488 68.6133 12.583 68.5891 12.1125Z" fill="white"/>
<path d="M75.922 9.55151L74.614 13.1326C74.361 13.8492 74.0576 14.547 73.7059 15.2206C73.4881 15.6575 73.2031 16.0575 72.8612 16.4059C72.5096 16.7376 72.0707 16.9622 71.596 17.0533L71.3199 16.0871C71.6339 16.0004 71.9244 15.8443 72.17 15.6303C72.4441 15.3962 72.6652 15.1064 72.8185 14.7802C72.8613 14.7086 72.89 14.6294 72.9029 14.5469C72.8925 14.463 72.8711 14.3809 72.8393 14.3026L70.9683 9.55261H72.2324L73.2107 12.4326C73.2611 12.5674 73.3104 12.7196 73.3597 12.8894C73.409 13.0592 73.4627 13.2476 73.5196 13.4525H73.5415C73.5766 13.343 73.616 13.1962 73.6577 13.022C73.6993 12.8478 73.7573 12.6484 73.8275 12.4217L74.7038 9.55261H75.9264L75.922 9.55151Z" fill="white"/>
<path d="M77.9091 11.6974H78.436C78.7512 11.7164 79.0651 11.6425 79.3387 11.4848C79.4322 11.4328 79.5108 11.3574 79.5666 11.266C79.6225 11.1747 79.6538 11.0704 79.6574 10.9634C79.6594 10.8624 79.6355 10.7625 79.588 10.6733C79.5404 10.5841 79.4708 10.5086 79.3858 10.454C79.1617 10.3145 78.9 10.2476 78.6365 10.2623C78.4258 10.2632 78.2166 10.2972 78.0164 10.3631C77.8156 10.4274 77.6216 10.5111 77.4369 10.6128L77.1433 9.87011C77.4211 9.71488 77.7206 9.60225 78.0318 9.53599C78.3233 9.47573 78.6203 9.44527 78.918 9.44507C79.1556 9.44528 79.3925 9.4684 79.6257 9.51408C79.8479 9.55493 80.0614 9.63387 80.2567 9.74742C80.4385 9.85398 80.593 10.0014 80.708 10.1779C80.8302 10.3748 80.8912 10.6036 80.8833 10.8352C80.8867 10.9844 80.8536 11.1322 80.7869 11.2657C80.7235 11.3903 80.6373 11.5017 80.5327 11.5944C80.4272 11.6901 80.3075 11.7688 80.1778 11.8277C80.0506 11.8867 79.9172 11.9316 79.7801 11.9614V11.9931C79.9495 12.0151 80.1155 12.0582 80.2742 12.1213C80.4292 12.1829 80.5743 12.2671 80.7047 12.3711C80.8305 12.4737 80.9351 12.5998 81.0126 12.7424C81.089 12.8957 81.1267 13.0653 81.1221 13.2365C81.1341 13.5091 81.0572 13.7782 80.903 14.0033C80.7546 14.2091 80.5593 14.3765 80.3334 14.4919C80.0944 14.6155 79.8386 14.7033 79.5742 14.7526C79.3085 14.8045 79.0386 14.8313 78.7679 14.8326C78.4501 14.8326 78.1332 14.7988 77.8225 14.7318C77.5278 14.6706 77.2441 14.565 76.9812 14.4185L77.2803 13.6637C77.4807 13.7702 77.6923 13.8539 77.9113 13.9135C78.1479 13.9804 78.3927 14.0143 78.6387 14.0143C78.9546 14.0343 79.2688 13.9546 79.5369 13.7864C79.6319 13.7249 79.7102 13.6407 79.7646 13.5415C79.8191 13.4423 79.8482 13.3311 79.8492 13.2179C79.8527 13.0839 79.8144 12.9522 79.7396 12.841C79.6633 12.734 79.5612 12.6481 79.4427 12.5913C79.3018 12.5234 79.1509 12.4786 78.9958 12.4587C78.8143 12.433 78.6313 12.4206 78.448 12.4215H77.9069L77.9091 11.6974Z" fill="white"/>
<path d="M84.0394 9.55175V11.379C84.0394 11.7975 84.0329 12.1732 84.0175 12.5052C84.0022 12.8371 83.9858 13.1887 83.9639 13.5568L83.9858 13.5776C84.1205 13.3081 84.2531 13.0452 84.3834 12.7856C84.5138 12.526 84.6485 12.2631 84.7833 11.9936L86.0584 9.54956H87.545V14.7136H86.4604V12.8864C86.4604 12.5041 86.4714 12.1195 86.4878 11.7394C86.5043 11.3593 86.524 10.9726 86.5459 10.5804H86.4922C86.3883 10.8637 86.2675 11.1407 86.1307 11.4097C86.0113 11.643 85.8908 11.884 85.7714 12.1327C85.5523 12.5577 85.3332 12.9828 85.1141 13.4078C84.895 13.8329 84.6668 14.2685 84.4294 14.7147H82.9451V9.55175H84.0394Z" fill="white"/>
<path d="M93.6028 9.55151V10.4969H92.0308V14.7156H90.9025V10.4969H89.3403V9.55151H93.6028Z" fill="white"/>
<path d="M99.457 11.8889C99.457 11.9875 99.457 12.0817 99.4461 12.1704C99.4405 12.2506 99.4299 12.3304 99.4143 12.4092H95.9712C95.9655 12.6196 96.0036 12.8289 96.0832 13.0237C96.1628 13.2186 96.2821 13.3947 96.4335 13.5409C96.7566 13.8168 97.1725 13.9594 97.5969 13.9396C98.0721 13.9447 98.5442 13.8619 98.9893 13.6953L99.1689 14.4928C98.6193 14.7169 98.0293 14.8254 97.4359 14.8116C97.0667 14.8173 96.6996 14.7541 96.3536 14.6254C96.0491 14.5109 95.7732 14.3315 95.5451 14.0996C95.3215 13.865 95.1495 13.5863 95.0401 13.2812C94.9206 12.9365 94.862 12.5736 94.867 12.2088C94.864 11.8366 94.9225 11.4664 95.0401 11.1133C95.1486 10.7929 95.3161 10.4956 95.5341 10.2369C95.7458 9.99019 96.0071 9.79086 96.301 9.65193C96.6163 9.5075 96.9598 9.43491 97.3066 9.43941C97.6117 9.43533 97.9143 9.49503 98.1951 9.61468C98.4561 9.72753 98.688 9.89837 98.8731 10.1142C99.0675 10.3411 99.2139 10.6049 99.3037 10.8898C99.4084 11.2124 99.4602 11.5498 99.457 11.8889ZM98.3616 11.592C98.379 11.2398 98.2762 10.8922 98.0702 10.6061C97.9699 10.4801 97.8408 10.3801 97.6939 10.3143C97.5469 10.2486 97.3863 10.219 97.2256 10.2281C97.0647 10.2263 96.9055 10.2595 96.7588 10.3256C96.6122 10.3916 96.4817 10.4888 96.3766 10.6105C96.1361 10.8821 95.9938 11.2266 95.9723 11.5887L98.3616 11.592Z" fill="white"/>
<path d="M104.081 9.59402C104.287 9.55897 104.548 9.53049 104.867 9.50858C105.185 9.48667 105.511 9.47681 105.845 9.47681C106.056 9.47681 106.296 9.48995 106.561 9.51405C106.821 9.53682 107.076 9.59392 107.32 9.68385C107.552 9.76572 107.76 9.90257 107.926 10.0826C108.098 10.2825 108.187 10.5411 108.173 10.8045C108.175 10.9489 108.146 11.092 108.087 11.2241C108.032 11.3471 107.955 11.4586 107.858 11.5527C107.761 11.6456 107.651 11.7226 107.53 11.7806C107.407 11.8412 107.276 11.8857 107.142 11.9131L107.153 11.9449C107.489 11.991 107.806 12.1311 108.066 12.3491C108.184 12.4561 108.277 12.5878 108.337 12.7348C108.398 12.8818 108.425 13.0404 108.417 13.1992C108.433 13.5138 108.326 13.8223 108.12 14.0603C107.917 14.276 107.665 14.4401 107.386 14.539C107.09 14.6467 106.78 14.7148 106.466 14.7417C106.145 14.769 105.856 14.7844 105.602 14.7844C105.317 14.7844 105.038 14.7778 104.767 14.7625C104.495 14.7471 104.266 14.734 104.082 14.7198L104.081 9.59402ZM105.185 11.6557H105.769C105.938 11.6565 106.107 11.6441 106.274 11.6185C106.419 11.5983 106.56 11.5592 106.694 11.5023C106.804 11.4565 106.902 11.3834 106.976 11.2898C107.046 11.1948 107.082 11.079 107.077 10.9612C107.083 10.8562 107.058 10.7519 107.006 10.6606C106.954 10.5693 106.877 10.4949 106.784 10.4463C106.495 10.3181 106.18 10.2617 105.866 10.282C105.746 10.282 105.641 10.282 105.551 10.2929L105.185 10.3247V11.6557ZM105.185 13.9398C105.327 13.954 105.446 13.9639 105.54 13.9715C105.634 13.9792 105.747 13.9825 105.877 13.9825C106.036 13.9826 106.196 13.972 106.354 13.9507C106.508 13.9323 106.659 13.8913 106.801 13.8291C106.929 13.777 107.042 13.6934 107.13 13.5859C107.216 13.4687 107.26 13.3252 107.254 13.1795C107.262 13.0489 107.228 12.919 107.157 12.8089C107.087 12.6987 106.982 12.614 106.86 12.5671C106.52 12.4411 106.159 12.3837 105.797 12.3984H105.191V13.9398H105.185Z" fill="white"/>
</svg>
