<svg width="402" height="402" viewBox="0 0 402 402" fill="none" xmlns="http://www.w3.org/2000/svg">
<path opacity="0.05" fill-rule="evenodd" clip-rule="evenodd" d="M342.276 142.68V58.7423H259.032L200.985 0L142.938 57.9081H58.8704V141.846L0 200.578L59.704 259.32V343.258H142.958L201.005 402L259.032 343.258H343.109V260.154L402 201.412L342.276 142.68ZM51.3484 218.206L37.8912 204.769C37.3871 204.277 36.9864 203.69 36.7129 203.041C36.4393 202.392 36.2984 201.694 36.2984 200.99C36.2984 200.286 36.4393 199.588 36.7129 198.939C36.9864 198.29 37.3871 197.703 37.8912 197.211L52.182 182.94C52.5877 182.564 53.1047 182.33 53.655 182.273C54.2053 182.217 54.759 182.341 55.2328 182.626C55.7065 182.912 56.0746 183.344 56.2815 183.858C56.4884 184.371 56.5229 184.938 56.3798 185.473L57.2134 215.683C57.2134 219.04 53.8491 219.884 51.3484 218.206ZM292.685 83.0834H312.027C314.538 83.0834 317.902 84.7718 317.049 88.1084V108.208C317.049 110.731 313.684 111.575 312.841 109.887L290.968 88.0682C290.48 87.7258 290.115 87.2348 289.929 86.6682C289.743 86.1017 289.745 85.4901 289.935 84.9248C290.125 84.3595 290.492 83.8708 290.982 83.5317C291.473 83.1925 292.059 83.0211 292.655 83.0432L292.685 83.0834ZM185.017 52.0389L198.474 38.6121C201.005 36.9338 204.359 36.0996 206.036 38.6121L220.327 52.0389C220.709 52.4968 220.949 53.0561 221.018 53.6484C221.087 54.2407 220.982 54.8403 220.715 55.3736C220.449 55.907 220.032 56.3509 219.518 56.6512C219.003 56.9514 218.412 57.0948 217.817 57.0639H187.548C186.942 57.1243 186.332 56.9996 185.799 56.7063C185.265 56.413 184.833 55.9648 184.559 55.4208C184.285 54.8767 184.182 54.2624 184.264 53.6587C184.346 53.055 184.608 52.4903 185.017 52.0389ZM82.4106 107.424V88.9526C83.2441 85.606 84.9413 83.0834 88.2956 83.0834H107.638C108.244 83.0231 108.853 83.1477 109.387 83.441C109.921 83.7344 110.353 84.1826 110.627 84.7266C110.901 85.2706 111.004 85.885 110.922 86.4886C110.84 87.0923 110.577 87.657 110.169 88.1084L88.3056 109.897C87.7852 110.28 87.174 110.52 86.5324 110.594C85.8908 110.669 85.2409 110.575 84.6468 110.321C84.0526 110.067 83.5349 109.663 83.1445 109.148C82.7541 108.633 82.5046 108.025 82.4206 107.384L82.4106 107.424ZM109.325 319.751H89.9828C89.3162 319.778 88.6512 319.666 88.0298 319.423C87.4084 319.18 86.8441 318.811 86.3723 318.339C85.9006 317.867 85.5317 317.302 85.2888 316.68C85.046 316.058 84.9345 315.393 84.9614 314.726L84.1279 295.43C84.0722 294.825 84.2002 294.218 84.495 293.688C84.7899 293.157 85.238 292.728 85.7806 292.456C86.3232 292.185 86.935 292.084 87.5361 292.166C88.1371 292.248 88.6994 292.51 89.1492 292.917L111.846 314.726C113.523 316.404 111.846 319.751 109.325 319.751ZM217.786 349.137L204.329 362.574C203.886 363.161 203.314 363.637 202.656 363.965C201.998 364.293 201.273 364.463 200.538 364.463C199.803 364.463 199.078 364.293 198.42 363.965C197.763 363.637 197.19 363.161 196.747 362.574L182.496 349.087C182.127 348.689 181.871 348.2 181.756 347.669C181.642 347.138 181.672 346.586 181.845 346.072C182.018 345.557 182.326 345.099 182.738 344.745C183.15 344.391 183.649 344.155 184.183 344.062H215.316C215.921 344.004 216.529 344.13 217.061 344.424C217.593 344.719 218.023 345.167 218.296 345.71C218.569 346.254 218.671 346.867 218.589 347.47C218.507 348.072 218.245 348.636 217.837 349.087L217.786 349.137ZM232.931 315.56H165.645C161.258 316.146 156.795 315.607 152.673 313.993C148.552 312.38 144.908 309.744 142.084 306.334L93.3471 257.632C89.6491 254.468 86.7919 250.436 85.0307 245.898C83.2695 241.359 82.6591 236.455 83.2542 231.622V165.292C83.1731 160.961 83.9496 156.657 85.5388 152.628C87.128 148.598 89.4985 144.924 92.5135 141.816L143.822 90.5606C146.622 87.9328 149.932 85.9081 153.545 84.6115C157.159 83.3151 161 82.7744 164.831 83.0231H233.784C237.969 82.4057 242.241 82.8506 246.209 84.317C250.176 85.7833 253.712 88.224 256.491 91.4148L306.122 140.931C309.378 143.719 311.969 147.2 313.706 151.12C315.444 155.039 316.284 159.298 316.165 163.584V235.763C316.752 239.982 316.118 244.28 314.338 248.149C312.558 252.018 309.707 255.295 306.122 257.592L259.022 305.44C255.736 309.014 251.671 311.78 247.142 313.523C242.613 315.266 237.742 315.939 232.911 315.49L232.931 315.56ZM317.852 312.203C317.029 314.706 315.331 318.072 311.977 318.072H292.655C292.051 318.128 291.444 318 290.914 317.705C290.384 317.41 289.955 316.962 289.684 316.419C289.412 315.876 289.311 315.263 289.393 314.662C289.476 314.06 289.737 313.498 290.144 313.047L312.007 291.219C312.409 290.695 312.958 290.304 313.585 290.098C314.211 289.891 314.885 289.878 315.519 290.06C316.153 290.242 316.718 290.611 317.139 291.119C317.561 291.627 317.82 292.25 317.882 292.907V312.213L317.852 312.203ZM348.141 218.216C346.474 219.884 343.12 218.216 343.923 216.527V185.473C343.079 182.106 347.297 181.272 348.944 182.94L362.402 196.377C364.069 198.89 364.912 202.246 362.402 203.915L348.101 218.196L348.141 218.216ZM288.417 250.114L203.496 101.555C200.131 95.666 195.08 95.666 190.882 101.555L108.461 249.29C106.774 253.481 108.461 258.506 116.034 258.506H281.738C287.623 258.506 290.978 255.994 288.457 250.124L288.417 250.114ZM265.74 240.868H144.655C143.72 240.991 142.769 240.851 141.909 240.463C141.049 240.075 140.314 239.454 139.787 238.671C139.26 237.888 138.962 236.973 138.926 236.03C138.89 235.087 139.118 234.152 139.584 233.331L200.161 125.896C202.672 121.695 206.89 122.53 209.421 125.896L270.792 234.155C272.469 238.356 269.958 240.858 265.771 240.858L265.74 240.868ZM257.315 224.095L212.745 144.368C212.39 143.795 211.895 143.322 211.306 142.993C210.717 142.665 210.055 142.493 209.381 142.493C208.707 142.493 208.044 142.665 207.455 142.993C206.866 143.322 206.371 143.795 206.016 144.368L161.457 223.251C161.2 223.853 161.086 224.506 161.124 225.16C161.163 225.813 161.353 226.449 161.679 227.016C162.006 227.583 162.459 228.067 163.005 228.429C163.55 228.79 164.172 229.02 164.821 229.1H253.97C257.335 228.266 258.992 227.432 257.335 224.075L257.315 224.095ZM191.746 209.814C190.058 209.814 189.225 208.97 190.058 207.301L212.775 167.041C214.462 165.353 215.306 165.353 216.129 167.041L239.69 207.301C240.533 208.98 239.69 209.814 238.002 209.814H191.746Z" fill="#DAB177"/>
</svg>
