<svg width="149" height="44" viewBox="0 0 149 44" fill="none" xmlns="http://www.w3.org/2000/svg">
<path d="M143.301 0H6.36654C3.34146 0 0.88916 2.45231 0.88916 5.47738V38.3416C0.88916 41.3667 3.34146 43.819 6.36654 43.819H143.301C146.326 43.819 148.778 41.3667 148.778 38.3416V5.47738C148.778 2.45231 146.326 0 143.301 0Z" fill="black"/>
<path d="M143.301 0.876381C144.521 0.876381 145.691 1.36113 146.554 2.22398C147.417 3.08684 147.902 4.25712 147.902 5.47738V38.3416C147.902 39.5619 147.417 40.7322 146.554 41.595C145.691 42.4579 144.521 42.9426 143.301 42.9426H6.36654C5.14628 42.9426 3.976 42.4579 3.11314 41.595C2.25029 40.7322 1.76554 39.5619 1.76554 38.3416V5.47738C1.76554 4.25712 2.25029 3.08684 3.11314 2.22398C3.976 1.36113 5.14628 0.876381 6.36654 0.876381H143.301ZM143.301 0H6.36654C4.91518 0.0043346 3.5245 0.582805 2.49823 1.60907C1.47197 2.63534 0.893495 4.02602 0.88916 5.47738V38.3416C0.893495 39.793 1.47197 41.1837 2.49823 42.2099C3.5245 43.2362 4.91518 43.8147 6.36654 43.819H143.301C144.752 43.8147 146.143 43.2362 147.169 42.2099C148.196 41.1837 148.774 39.793 148.778 38.3416V5.47738C148.774 4.02602 148.196 2.63534 147.169 1.60907C146.143 0.582805 144.752 0.0043346 143.301 0Z" fill="#A6A6A6"/>
<path d="M75.5307 23.8288C74.6097 23.8312 73.7101 24.1065 72.9455 24.6199C72.1809 25.1333 71.5856 25.8617 71.2348 26.7133C70.8841 27.5648 70.7935 28.5012 70.9746 29.4042C71.1558 30.3072 71.6005 31.1362 72.2525 31.7866C72.9046 32.437 73.7348 32.8795 74.6382 33.0583C75.5416 33.2371 76.4778 33.1441 77.3284 32.7911C78.1791 32.4382 78.906 31.841 79.4174 31.0751C79.9288 30.3092 80.2018 29.4089 80.2018 28.4879C80.2108 27.8725 80.0961 27.2616 79.8644 26.6915C79.6327 26.1214 79.2888 25.6036 78.853 25.169C78.4173 24.7344 77.8986 24.3918 77.3279 24.1616C76.7572 23.9314 76.146 23.8182 75.5307 23.8288ZM75.5307 31.3109C74.9636 31.3514 74.3975 31.2202 73.9061 30.9345C73.4147 30.6487 73.0207 30.2216 72.7754 29.7087C72.5301 29.1959 72.445 28.6211 72.531 28.0592C72.617 27.4972 72.8702 26.9742 73.2576 26.5582C73.645 26.1422 74.1487 25.8525 74.7031 25.7268C75.2575 25.6011 75.837 25.6452 76.3659 25.8534C76.8949 26.0616 77.3489 26.4243 77.6689 26.8942C77.9888 27.3641 78.1599 27.9194 78.1598 28.4879C78.177 28.847 78.1222 29.2058 77.9986 29.5434C77.875 29.8809 77.6851 30.1904 77.4401 30.4534C77.1951 30.7165 76.9 30.9279 76.572 31.0751C76.2441 31.2224 75.89 31.3026 75.5307 31.3109ZM65.3285 23.8288C64.4078 23.8323 63.5087 24.1085 62.7449 24.6225C61.981 25.1366 61.3865 25.8654 61.0366 26.7171C60.6867 27.5687 60.5969 28.5049 60.7786 29.4075C60.9604 30.3101 61.4055 31.1387 62.0578 31.7885C62.71 32.4383 63.5402 32.8803 64.4435 33.0587C65.3468 33.237 66.2827 33.1437 67.133 32.7906C67.9833 32.4375 68.7099 31.8403 69.2211 31.0745C69.7323 30.3087 70.0051 29.4086 70.0051 28.4879C70.0141 27.8721 69.8992 27.2607 69.6672 26.6902C69.4352 26.1197 69.0908 25.6017 68.6544 25.167C68.2181 24.7323 67.6988 24.3898 67.1274 24.16C66.5561 23.9301 65.9443 23.8175 65.3285 23.8288ZM65.3285 31.3109C64.7615 31.3514 64.1954 31.2202 63.7039 30.9345C63.2125 30.6487 62.8185 30.2216 62.5732 29.7087C62.328 29.1959 62.2428 28.6211 62.3288 28.0592C62.4148 27.4972 62.668 26.9742 63.0554 26.5582C63.4429 26.1422 63.9466 25.8525 64.501 25.7268C65.0554 25.6011 65.6348 25.6452 66.1638 25.8534C66.6927 26.0616 67.1468 26.4243 67.4667 26.8942C67.7867 27.3641 67.9577 27.9194 67.9576 28.4879C67.9748 28.847 67.92 29.2058 67.7964 29.5434C67.6728 29.8809 67.4829 30.1904 67.2379 30.4534C66.9929 30.7165 66.6978 30.9279 66.3699 31.0751C66.0419 31.2224 65.6879 31.3026 65.3285 31.3109ZM53.1917 25.2584V27.2303H57.9209C57.8528 28.1571 57.4737 29.0337 56.8451 29.7181C56.3711 30.2013 55.8011 30.5797 55.1718 30.829C54.5426 31.0782 53.868 31.1928 53.1917 31.1652C51.7971 31.1652 50.4597 30.6112 49.4736 29.6251C48.4874 28.639 47.9334 27.3015 47.9334 25.907C47.9334 24.5124 48.4874 23.1749 49.4736 22.1888C50.4597 21.2027 51.7971 20.6487 53.1917 20.6487C54.5208 20.6316 55.8028 21.1403 56.7586 22.064L58.1531 20.6695C57.5007 20.0239 56.726 19.515 55.8745 19.1724C55.023 18.8299 54.1116 18.6607 53.1939 18.6746C52.2362 18.6628 51.2856 18.8413 50.3973 19.1997C49.5091 19.558 48.7008 20.0892 48.0193 20.7623C47.3379 21.4354 46.7968 22.2371 46.4276 23.1209C46.0583 24.0047 45.8682 24.953 45.8682 25.9108C45.8682 26.8686 46.0583 27.8169 46.4276 28.7007C46.7968 29.5845 47.3379 30.3862 48.0193 31.0593C48.7008 31.7324 49.5091 32.2635 50.3973 32.6219C51.2856 32.9803 52.2362 33.1587 53.1939 33.147C54.131 33.1849 55.0655 33.023 55.9352 32.672C56.805 32.3211 57.5902 31.7892 58.2386 31.1116C59.3916 29.8532 60.0062 28.1934 59.9508 26.4876C59.9544 26.0734 59.9177 25.66 59.8413 25.253L53.1917 25.2584ZM102.826 26.7921C102.545 25.9483 102.012 25.2112 101.299 24.6808C100.585 24.1505 99.7256 23.8526 98.8369 23.8277C98.2382 23.8314 97.6464 23.9564 97.0974 24.1953C96.5483 24.4342 96.0535 24.782 95.6427 25.2176C95.232 25.6532 94.9139 26.1677 94.7076 26.7298C94.5014 27.2919 94.4114 27.89 94.4429 28.4879C94.4295 29.1005 94.5396 29.7094 94.7668 30.2785C94.994 30.8475 95.3335 31.3649 95.7651 31.7998C96.1967 32.2347 96.7115 32.5781 97.2788 32.8096C97.8462 33.041 98.4543 33.1558 99.0669 33.147C99.8345 33.1512 100.591 32.9647 101.269 32.6043C101.946 32.2439 102.524 31.7208 102.949 31.082L101.361 30.0227C101.123 30.4177 100.786 30.7442 100.384 30.97C99.982 31.1958 99.5281 31.3133 99.0669 31.3109C98.5923 31.3291 98.1231 31.2043 97.7201 30.9528C97.3172 30.7012 96.9991 30.3344 96.807 29.9L103.037 27.3223L102.826 26.7921ZM96.4718 28.3455C96.4508 28.0069 96.4974 27.6676 96.6089 27.3472C96.7204 27.0268 96.8946 26.7319 97.1212 26.4795C97.3479 26.2272 97.6225 26.0224 97.9291 25.8773C98.2357 25.7322 98.5681 25.6495 98.907 25.6342C99.2603 25.6104 99.6128 25.6912 99.9204 25.8666C100.228 26.0419 100.477 26.304 100.637 26.6201L96.4718 28.3455ZM91.4074 32.8643H93.457V19.1709H91.4074V32.8643ZM88.053 24.8673H87.9796C87.6684 24.5294 87.2886 24.2617 86.8656 24.0823C86.4426 23.9028 85.9862 23.8156 85.5269 23.8266C84.3262 23.8787 83.1919 24.3924 82.3607 25.2604C81.5295 26.1284 81.0655 27.2839 81.0655 28.4857C81.0655 29.6875 81.5295 30.843 82.3607 31.711C83.1919 32.579 84.3262 33.0927 85.5269 33.1448C85.9881 33.1569 86.4464 33.0684 86.87 32.8855C87.2936 32.7025 87.6722 32.4295 87.9796 32.0854H88.0497V32.7548C88.0497 34.5371 87.0978 35.4935 85.5619 35.4935C85.0501 35.4811 84.5535 35.3167 84.1354 35.0212C83.7173 34.7256 83.3967 34.3123 83.2143 33.8338L81.432 34.5755C81.768 35.3934 82.3405 36.0924 83.0763 36.5829C83.8121 37.0734 84.6776 37.333 85.5619 37.3284C87.9621 37.3284 89.992 35.9163 89.992 32.4754V24.1104H88.053V24.8673ZM85.7065 31.3087C84.9995 31.248 84.341 30.9242 83.8612 30.4014C83.3814 29.8786 83.1152 29.1948 83.1152 28.4852C83.1152 27.7755 83.3814 27.0917 83.8612 26.5689C84.341 26.0461 84.9995 25.7223 85.7065 25.6616C86.059 25.6787 86.4043 25.7667 86.7221 25.9201C87.0398 26.0736 87.3234 26.2894 87.5559 26.5548C87.7885 26.8202 87.9652 27.1296 88.0757 27.4647C88.1861 27.7999 88.228 28.1538 88.1987 28.5054C88.2263 28.8548 88.183 29.2061 88.0715 29.5383C87.96 29.8705 87.7826 30.1768 87.5499 30.4387C87.3172 30.7007 87.0339 30.913 86.7172 31.0629C86.4004 31.2128 86.0567 31.2971 85.7065 31.3109V31.3087ZM112.415 19.1709H107.517V32.8643H109.56V27.6761H112.415C112.993 27.7069 113.571 27.6197 114.113 27.4198C114.656 27.22 115.153 26.9117 115.572 26.5137C115.992 26.1157 116.326 25.6365 116.555 25.1051C116.783 24.5737 116.901 24.0014 116.901 23.423C116.901 22.8446 116.783 22.2722 116.555 21.7408C116.326 21.2095 115.992 20.7302 115.572 20.3322C115.153 19.9343 114.656 19.6259 114.113 19.4261C113.571 19.2262 112.993 19.139 112.415 19.1698V19.1709ZM112.468 25.7711H109.56V21.0759H112.468C112.78 21.0692 113.091 21.1249 113.382 21.2398C113.672 21.3547 113.937 21.5265 114.161 21.7451C114.384 21.9637 114.561 22.2248 114.683 22.5129C114.804 22.801 114.866 23.1104 114.866 23.423C114.866 23.7355 114.804 24.0449 114.683 24.3331C114.561 24.6212 114.384 24.8822 114.161 25.1008C113.937 25.3194 113.672 25.4912 113.382 25.6061C113.091 25.7211 112.78 25.7768 112.468 25.77V25.7711ZM125.101 23.8047C124.355 23.7612 123.612 23.9362 122.964 24.3085C122.316 24.6807 121.791 25.234 121.453 25.9004L123.268 26.6584C123.448 26.3275 123.721 26.0562 124.052 25.8778C124.384 25.6994 124.761 25.6216 125.136 25.6539C125.654 25.6043 126.171 25.7619 126.574 26.0921C126.977 26.4223 127.232 26.8984 127.285 27.4165V27.5567C126.629 27.2082 125.897 27.0268 125.153 27.0287C123.198 27.0287 121.21 28.1034 121.21 30.1114C121.229 30.5343 121.333 30.9491 121.515 31.3312C121.697 31.7134 121.954 32.055 122.271 32.3361C122.587 32.6171 122.957 32.8317 123.358 32.9672C123.759 33.1027 124.184 33.1564 124.606 33.125C125.121 33.1553 125.634 33.047 126.093 32.8113C126.552 32.5757 126.939 32.2214 127.214 31.7853H127.284V32.8424H129.256V27.5907C129.258 25.1598 127.444 23.8036 125.101 23.8036V23.8047ZM124.854 31.3098C124.184 31.3098 123.251 30.9757 123.251 30.1475C123.251 29.0904 124.413 28.6851 125.418 28.6851C126.068 28.6688 126.711 28.8269 127.28 29.143C127.205 29.7357 126.918 30.2813 126.472 30.6793C126.026 31.0773 125.452 31.3008 124.854 31.3087V31.3098ZM136.447 24.1005L134.104 30.038H134.033L131.601 24.1005H129.4L133.046 32.3987L130.965 37.0151H133.097L138.72 24.1005H136.447ZM118.035 32.8643H120.077V19.1709H118.033L118.035 32.8643Z" fill="white"/>
<path d="M12.3205 8.25746C11.962 8.68737 11.781 9.23784 11.8144 9.7966V34.0241C11.7808 34.5829 11.9618 35.1335 12.3205 35.5633L12.4016 35.6422L25.9756 22.0703V21.7504L12.4016 8.17749L12.3205 8.25746Z" fill="url(#paint0_linear)"/>
<path d="M30.498 26.5971L25.9758 22.0706V21.7507L30.5012 17.2253L30.6031 17.2845L35.9633 20.3299C37.4969 21.1997 37.4969 22.6227 35.9633 23.4926L30.6031 26.538L30.498 26.5971Z" fill="url(#paint1_linear)"/>
<path d="M30.6006 26.5378L25.9755 21.9094L12.3204 35.5634C12.6325 35.8387 13.0311 35.9961 13.4471 36.0083C13.8631 36.0205 14.2702 35.8868 14.5979 35.6303L30.6006 26.5378Z" fill="url(#paint2_linear)"/>
<path d="M30.6006 17.2833L14.5979 8.19081C14.2702 7.93431 13.8631 7.80057 13.4471 7.81278C13.0311 7.82498 12.6325 7.98236 12.3204 8.25763L25.9755 21.9094L30.6006 17.2833Z" fill="url(#paint3_linear)"/>
<path opacity="0.2" d="M30.4991 26.4363L14.5983 35.4707C14.2837 35.7097 13.9 35.8401 13.5048 35.8423C13.1097 35.8445 12.7246 35.7183 12.4074 35.4827L12.3252 35.5638L12.4063 35.6437C12.7235 35.8793 13.1086 36.0055 13.5037 36.0033C13.8989 36.0012 14.2826 35.8708 14.5972 35.6317L30.5999 26.5393L30.4991 26.4363Z" fill="black"/>
<path opacity="0.12" d="M12.3205 35.4039C11.9618 34.9741 11.7808 34.4235 11.8144 33.8647V34.0258C11.7816 34.5828 11.9627 35.1313 12.3205 35.5594L12.4027 35.4784L12.3205 35.4039Z" fill="black"/>
<path opacity="0.12" d="M35.9613 23.3335L30.4993 26.437L30.6011 26.5389L35.9613 23.4935C36.2769 23.3564 36.5499 23.137 36.7519 22.8584C36.9538 22.5798 37.0773 22.252 37.1094 21.9094C37.0422 22.2198 36.9034 22.5102 36.704 22.7575C36.5047 23.0047 36.2504 23.202 35.9613 23.3335Z" fill="black"/>
<path opacity="0.25" d="M14.5988 8.35192L35.9606 20.4898C36.2494 20.6209 36.5038 20.8176 36.7032 21.0642C36.9027 21.3109 37.0419 21.6007 37.1097 21.9106C37.0775 21.5683 36.9539 21.241 36.752 20.9627C36.55 20.6844 36.2771 20.4655 35.9617 20.3288L14.5999 8.19089C13.0662 7.32108 11.8163 8.04409 11.8163 9.79685V9.95789C11.8152 8.20513 13.0673 7.48211 14.5988 8.35192Z" fill="white"/>
<path d="M47.0242 15.6354H46.2168V13.4335H46.8587C47.1742 13.1004 47.4126 12.7021 47.557 12.2667C47.7015 11.8313 47.7484 11.3694 47.6946 10.9139V7.66797H52.0831V13.4335H52.817V15.6354H52.0097V14.2408H47.0242V15.6354ZM48.5425 10.9182C48.5964 11.8022 48.3785 12.6814 47.9181 13.4378H51.2374V8.47533H48.5425V10.9182Z" fill="white" stroke="white" stroke-width="0.2" stroke-miterlimit="10"/>
<path d="M59.404 13.3922C58.764 14.0298 57.8974 14.3879 56.994 14.3879C56.0905 14.3879 55.2239 14.0298 54.5839 13.3922C53.9619 12.733 53.6155 11.861 53.6155 10.9547C53.6155 10.0485 53.9619 9.17646 54.5839 8.5173C54.9001 8.20026 55.2757 7.94871 55.6893 7.77707C56.1029 7.60544 56.5462 7.51709 56.994 7.51709C57.4417 7.51709 57.8851 7.60544 58.2987 7.77707C58.7122 7.94871 59.0878 8.20026 59.404 8.5173C60.0267 9.17523 60.3737 10.0467 60.3737 10.9525C60.3737 11.8584 60.0267 12.7299 59.404 13.3878V13.3922ZM55.2073 12.8444C55.6812 13.3173 56.3234 13.5828 56.9929 13.5828C57.6624 13.5828 58.3045 13.3173 58.7785 12.8444C59.2487 12.3287 59.5093 11.6559 59.5093 10.958C59.5093 10.2601 59.2487 9.58737 58.7785 9.07162C58.3045 8.5988 57.6624 8.33327 56.9929 8.33327C56.3234 8.33327 55.6812 8.5988 55.2073 9.07162C54.7378 9.58771 54.4776 10.2603 54.4776 10.958C54.4776 11.6557 54.7378 12.3283 55.2073 12.8444Z" fill="white" stroke="white" stroke-width="0.2" stroke-miterlimit="10"/>
<path d="M64.623 14.3881C64.1708 14.3962 63.7216 14.3128 63.3025 14.1429C62.8833 13.973 62.5028 13.7201 62.1839 13.3994C61.8649 13.0787 61.6141 12.6968 61.4465 12.2767C61.2788 11.8567 61.1979 11.407 61.2084 10.9549C61.1979 10.5027 61.2788 10.0531 61.4465 9.63298C61.6141 9.2129 61.8649 8.83104 62.1839 8.51035C62.5028 8.18967 62.8833 7.93677 63.3025 7.76687C63.7216 7.59696 64.1708 7.51355 64.623 7.52164C65.0796 7.50787 65.5334 7.59725 65.9507 7.78312C66.368 7.969 66.7379 8.24658 67.0331 8.59521L66.4448 9.16486C66.2278 8.89158 65.9492 8.67351 65.6319 8.52843C65.3145 8.38336 64.9673 8.3154 64.6187 8.33011C64.2831 8.32227 63.9495 8.38249 63.6379 8.50713C63.3263 8.63177 63.0432 8.81825 62.8056 9.05531C62.3301 9.57364 62.0663 10.2515 62.0663 10.9549C62.0663 11.6583 62.3301 12.3361 62.8056 12.8544C63.0432 13.0915 63.3263 13.278 63.6379 13.4026C63.9495 13.5272 64.2831 13.5875 64.6187 13.5796C65.0052 13.5813 65.3872 13.4965 65.7368 13.3314C66.0863 13.1663 66.3945 12.9251 66.6387 12.6255L67.2259 13.2126C66.9184 13.5798 66.5325 13.8733 66.0965 14.0715C65.6347 14.2844 65.1315 14.3925 64.623 14.3881Z" fill="white" stroke="white" stroke-width="0.2" stroke-miterlimit="10"/>
<path d="M70.6458 14.2411H69.8012V8.47558H67.9652V7.66821H72.4818V8.47558H70.6458V14.2411Z" fill="white" stroke="white" stroke-width="0.2" stroke-miterlimit="10"/>
<path d="M78.2814 7.66821L75.7936 13.2124C75.6937 13.5445 75.4918 13.8368 75.2166 14.0478C74.9413 14.2587 74.6066 14.3777 74.2599 14.3879C74.0332 14.3832 73.8098 14.3333 73.6027 14.2411L73.8217 13.4611C73.9551 13.5379 74.1061 13.5787 74.2599 13.5794C74.4192 13.5907 74.578 13.5525 74.7146 13.4699C74.8475 13.3581 74.95 13.2145 75.0125 13.0525L75.2513 12.5288L73.0494 7.66821H74.0354L75.66 11.441H75.6961L77.2889 7.66821H78.2814Z" fill="white" stroke="white" stroke-width="0.2" stroke-miterlimit="10"/>
<path d="M79.2378 14.2411V7.66821H83.9922V14.2411H83.1475V8.47558H80.0802V14.2411H79.2378Z" fill="white" stroke="white" stroke-width="0.2" stroke-miterlimit="10"/>
<path d="M85.4969 14.2411V7.66821H86.3361V10.4858H89.6225V7.66821H90.4671V14.2411H89.6225V11.2756H86.3361V14.2411H85.4969Z" fill="white" stroke="white" stroke-width="0.2" stroke-miterlimit="10"/>
<path d="M97.3543 13.3922C96.7143 14.0298 95.8477 14.3879 94.9443 14.3879C94.0409 14.3879 93.1742 14.0298 92.5342 13.3922C91.9123 12.733 91.5658 11.861 91.5658 10.9547C91.5658 10.0485 91.9123 9.17646 92.5342 8.5173C92.8504 8.20026 93.2261 7.94871 93.6396 7.77707C94.0532 7.60544 94.4965 7.51709 94.9443 7.51709C95.3921 7.51709 95.8354 7.60544 96.249 7.77707C96.6625 7.94871 97.0382 8.20026 97.3543 8.5173C97.977 9.17523 98.324 10.0467 98.324 10.9525C98.324 11.8584 97.977 12.7299 97.3543 13.3878V13.3922ZM93.1587 12.8444C93.6325 13.3172 94.2744 13.5827 94.9437 13.5827C95.6131 13.5827 96.255 13.3172 96.7288 12.8444C97.199 12.3287 97.4596 11.6559 97.4596 10.958C97.4596 10.2601 97.199 9.58737 96.7288 9.07162C96.255 8.59886 95.6131 8.33336 94.9437 8.33336C94.2744 8.33336 93.6325 8.59886 93.1587 9.07162C92.6885 9.58737 92.4279 10.2601 92.4279 10.958C92.4279 11.6559 92.6885 12.3287 93.1587 12.8444Z" fill="white" stroke="white" stroke-width="0.2" stroke-miterlimit="10"/>
<path d="M101.776 14.2413V7.66844H104.153C104.647 7.66078 105.125 7.84314 105.489 8.17784C105.671 8.33675 105.816 8.53382 105.914 8.75512C106.012 8.97642 106.06 9.21653 106.055 9.45845C106.061 9.7524 105.975 10.0409 105.811 10.2844C105.65 10.5227 105.426 10.7107 105.163 10.8267V10.8629C105.481 10.9683 105.759 11.1663 105.963 11.4314C106.17 11.6998 106.28 12.0303 106.275 12.3691C106.281 12.6222 106.23 12.8734 106.128 13.1049C106.026 13.3365 105.874 13.5426 105.683 13.7089C105.301 14.0589 104.8 14.2495 104.283 14.2413H101.776ZM102.62 10.486H104.153C104.296 10.4921 104.439 10.467 104.572 10.4123C104.704 10.3576 104.823 10.2747 104.92 10.1694C105.102 9.98627 105.205 9.73913 105.206 9.48105C105.208 9.22298 105.108 8.97456 104.929 8.78912C104.836 8.6859 104.722 8.60432 104.595 8.55018C104.467 8.49603 104.329 8.47064 104.191 8.47581H102.62V10.486ZM102.62 13.4339H104.319C104.467 13.4388 104.615 13.4108 104.752 13.3519C104.888 13.293 105.01 13.2047 105.109 13.0932C105.3 12.8925 105.408 12.6267 105.411 12.3494C105.402 12.0577 105.279 11.7812 105.067 11.5801C104.856 11.379 104.573 11.2696 104.281 11.2758H102.62V13.4339Z" fill="white" stroke="white" stroke-width="0.2" stroke-miterlimit="10"/>
<defs>
<linearGradient id="paint0_linear" x1="24.7716" y1="189.829" x2="3.03676" y2="184.051" gradientUnits="userSpaceOnUse">
<stop stop-color="#00A0FF"/>
<stop offset="0.007" stop-color="#00A1FF"/>
<stop offset="0.26" stop-color="#00BEFF"/>
<stop offset="0.512" stop-color="#00D2FF"/>
<stop offset="0.76" stop-color="#00DFFF"/>
<stop offset="1" stop-color="#00E3FF"/>
</linearGradient>
<linearGradient id="paint1_linear" x1="37.96" y1="177.464" x2="11.4411" y2="177.464" gradientUnits="userSpaceOnUse">
<stop stop-color="#FFE000"/>
<stop offset="0.409" stop-color="#FFBD00"/>
<stop offset="0.775" stop-color="#FFA500"/>
<stop offset="1" stop-color="#FF9C00"/>
</linearGradient>
<linearGradient id="paint2_linear" x1="28.078" y1="175.074" x2="10.6231" y2="145.686" gradientUnits="userSpaceOnUse">
<stop stop-color="#FF3A44"/>
<stop offset="1" stop-color="#C31162"/>
</linearGradient>
<linearGradient id="paint3_linear" x1="8.88376" y1="199.297" x2="16.6828" y2="186.179" gradientUnits="userSpaceOnUse">
<stop stop-color="#32A071"/>
<stop offset="0.068" stop-color="#2DA771"/>
<stop offset="0.476" stop-color="#15CF74"/>
<stop offset="0.801" stop-color="#06E775"/>
<stop offset="1" stop-color="#00F076"/>
</linearGradient>
</defs>
</svg>
