<svg width="32" height="32" viewBox="0 0 32 32" fill="none" xmlns="http://www.w3.org/2000/svg">
<g clip-path="url(#clip0)">
<path d="M27.2417 11.3543L27.2349 4.67207L20.6099 4.6808L15.984 0.0102539L11.3668 4.62068L4.67345 4.62747L4.68217 11.3053L-0.000976562 15.9821L4.75684 20.6503L4.76314 27.3281L11.3881 27.3213L16.0141 31.9884L20.6293 27.3116L27.3227 27.3063L27.3159 20.6963L31.999 16.0195L27.2417 11.3543ZM4.08436 17.3809L3.01139 16.3143C2.93184 16.2358 2.88665 16.129 2.88574 16.0173C2.88483 15.9056 2.92827 15.7981 3.00654 15.7184L3.01139 15.7135L4.14884 14.577C4.18104 14.5473 4.22201 14.5288 4.26561 14.5243C4.30922 14.5198 4.3531 14.5296 4.39068 14.5521C4.42826 14.5747 4.45752 14.6088 4.47406 14.6494C4.4906 14.69 4.49353 14.7349 4.48242 14.7773L4.5503 17.1817C4.5503 17.4493 4.28314 17.5152 4.08484 17.3814L4.08436 17.3809ZM23.2848 6.61535H24.8267C25.0269 6.61535 25.2921 6.74674 25.2267 7.01535V8.61535C25.2267 8.81462 24.9605 8.88444 24.8907 8.74771L23.1481 7.01389C23.1086 6.98699 23.079 6.94792 23.0638 6.90263C23.0485 6.85734 23.0485 6.80831 23.0637 6.76301C23.0789 6.71772 23.1085 6.67863 23.148 6.65171C23.1875 6.62479 23.2347 6.61151 23.2824 6.61389L23.2848 6.61535ZM14.7113 4.15232L15.7838 3.08322C15.984 2.95038 16.2511 2.88395 16.3835 3.08322L17.521 4.14989C17.552 4.18598 17.5717 4.23038 17.5776 4.27758C17.5835 4.32478 17.5755 4.37269 17.5544 4.41533C17.5333 4.45798 17.5001 4.49347 17.459 4.5174C17.4179 4.54133 17.3706 4.55263 17.3231 4.54989L14.9149 4.55328C14.8663 4.55896 14.8172 4.54964 14.7741 4.52657C14.731 4.50351 14.696 4.4678 14.6738 4.42426C14.6515 4.38071 14.6432 4.33141 14.6498 4.28297C14.6564 4.23453 14.6777 4.18928 14.7108 4.15328L14.7113 4.15232ZM6.55078 8.56541V7.09728C6.61721 6.82819 6.75296 6.62941 7.02011 6.62941L8.55805 6.62601C8.60677 6.61983 8.65621 6.62887 8.69959 6.65189C8.74296 6.67491 8.77816 6.71078 8.80036 6.75459C8.82255 6.79839 8.83066 6.84799 8.82356 6.89658C8.81647 6.94517 8.79452 6.99038 8.76072 7.02601L7.02011 8.76177C6.97895 8.79261 6.93042 8.81213 6.87937 8.81838C6.82831 8.82463 6.77651 8.81738 6.72912 8.79737C6.68174 8.77735 6.64043 8.74527 6.6093 8.70432C6.57818 8.66336 6.55834 8.61497 6.55175 8.56395L6.55078 8.56541ZM8.71078 25.4546H7.17139C7.12086 25.4566 7.07044 25.4487 7.02299 25.4312C6.97554 25.4137 6.932 25.3871 6.89485 25.3528C6.85771 25.3184 6.82769 25.2772 6.8065 25.2312C6.78532 25.1853 6.77338 25.1357 6.77139 25.0852V25.0551L6.70351 23.5177C6.69804 23.4692 6.7076 23.4202 6.73089 23.3773C6.75418 23.3345 6.79007 23.2998 6.83371 23.278C6.87735 23.2562 6.92663 23.2484 6.97489 23.2555C7.02314 23.2626 7.06804 23.2844 7.10351 23.3179L8.91054 25.0536C9.04533 25.186 8.91054 25.4537 8.71127 25.4537L8.71078 25.4546ZM17.3522 27.7809L16.2807 28.852C16.2453 28.8986 16.1996 28.9364 16.1472 28.9624C16.0947 28.9884 16.037 29.0019 15.9784 29.0019C15.9199 29.0019 15.8621 28.9884 15.8097 28.9624C15.7572 28.9364 15.7115 28.8986 15.6761 28.852L14.5396 27.7829C14.511 27.7509 14.4913 27.7119 14.4826 27.6699C14.474 27.6278 14.4766 27.5842 14.4903 27.5435C14.504 27.5029 14.5283 27.4665 14.5606 27.4383C14.593 27.4101 14.6323 27.3909 14.6744 27.3829H17.1471C17.1959 27.3765 17.2455 27.3854 17.289 27.4083C17.3326 27.4312 17.368 27.467 17.3904 27.5108C17.4128 27.5546 17.4211 27.6042 17.4142 27.6529C17.4073 27.7017 17.3855 27.747 17.3517 27.7829L17.3522 27.7809ZM18.5513 25.1118L13.1951 25.1172C12.846 25.1633 12.4909 25.1205 12.1628 24.9926C11.8347 24.8648 11.5442 24.6562 11.3183 24.386L7.43175 20.5169C7.13732 20.2652 6.90978 19.9444 6.76943 19.5834C6.62908 19.2223 6.58028 18.8321 6.62739 18.4476L6.62205 13.17C6.61531 12.8259 6.67674 12.4838 6.80281 12.1635C6.92888 11.8432 7.11709 11.551 7.3566 11.3038L11.439 7.2248C11.6611 7.01472 11.9242 6.85273 12.2118 6.74895C12.4993 6.64517 12.8052 6.60183 13.1103 6.62165L18.5993 6.61825C18.9321 6.56797 19.2722 6.60252 19.5881 6.71873C19.904 6.83493 20.1854 7.02901 20.4063 7.28298L24.3641 11.2195C24.6236 11.4407 24.8302 11.7173 24.9685 12.029C25.1069 12.3406 25.1736 12.6793 25.1636 13.0202L25.1704 18.7627C25.2171 19.0982 25.1666 19.4401 25.0249 19.7477C24.8832 20.0554 24.6562 20.316 24.3709 20.4985L20.6254 24.3084C20.3646 24.5927 20.0417 24.813 19.6819 24.9521C19.3221 25.0913 18.935 25.1456 18.5508 25.1109L18.5513 25.1118ZM25.3115 24.8379C25.2436 25.0381 25.1113 25.3053 24.8441 25.3053L23.3023 25.3087C23.2538 25.3132 23.205 25.3029 23.1624 25.2793C23.1197 25.2556 23.0852 25.2197 23.0634 25.1761C23.0415 25.1326 23.0332 25.0834 23.0397 25.0351C23.0462 24.9868 23.0671 24.9415 23.0996 24.9053L24.8402 23.1681C24.8718 23.126 24.9154 23.0946 24.9652 23.0778C25.015 23.061 25.0687 23.0597 25.1193 23.074C25.1699 23.0883 25.215 23.1176 25.2486 23.158C25.2822 23.1984 25.3028 23.2481 25.3076 23.3004L25.3115 24.8379ZM27.7159 17.3562C27.5816 17.4886 27.3159 17.3596 27.3789 17.2238V14.754C27.3125 14.4869 27.648 14.419 27.7823 14.5513L28.8553 15.6209C28.9862 15.8192 29.0541 16.0864 28.8553 16.2187L27.7159 17.3562Z" fill="#E7B074"/>
<path d="M22.9696 19.9053L16.1967 8.09054C15.9277 7.62314 15.5247 7.62314 15.1921 8.09054L8.6433 19.8486C8.50899 20.1836 8.6433 20.5831 9.24742 20.5831L22.4353 20.5696C22.9041 20.5696 23.1732 20.3713 22.972 19.9053H22.9696ZM21.165 19.1693L11.5223 19.1781C11.4479 19.1879 11.3722 19.1767 11.3038 19.1458C11.2354 19.115 11.1769 19.0656 11.135 19.0034C11.0931 18.9411 11.0694 18.8684 11.0665 18.7934C11.0637 18.7184 11.0818 18.644 11.1189 18.5788L15.9315 10.0275C16.1337 9.69393 16.4649 9.75841 16.6738 10.0275L21.5621 18.6341C21.6944 18.9676 21.4957 19.1674 21.1621 19.1674" fill="#E7B074"/>
<path d="M20.4877 17.8346L16.9314 11.4952C16.9031 11.4499 16.8638 11.4126 16.8172 11.3867C16.7705 11.3608 16.718 11.3472 16.6647 11.3472C16.6113 11.3472 16.5588 11.3608 16.5122 11.3867C16.4655 11.4126 16.4262 11.4499 16.398 11.4952L12.8586 17.7735C12.8384 17.8214 12.8295 17.8733 12.8327 17.9253C12.8358 17.9772 12.851 18.0276 12.8769 18.0727C12.9028 18.1178 12.9388 18.1562 12.9821 18.1851C13.0253 18.2139 13.0747 18.2324 13.1263 18.239L20.223 18.2346C20.4906 18.1648 20.623 18.0998 20.4906 17.8346H20.4877ZM18.9488 16.6986L15.2669 16.7039C15.1311 16.7039 15.0676 16.6361 15.1311 16.5027L16.9352 13.2989C17.07 13.166 17.1364 13.166 17.2043 13.2989L19.0812 16.4989C19.1495 16.6332 19.0812 16.6991 18.9488 16.6991" fill="#E7B074"/>
</g>
<defs>
<clipPath id="clip0">
<rect width="32" height="32" fill="white"/>
</clipPath>
</defs>
</svg>
