<svg width="160" height="38" viewBox="0 0 160 38" fill="none" xmlns="http://www.w3.org/2000/svg">
<g clip-path="url(#clip0)">
<path d="M32.1185 13.4799L32.1104 5.53977L24.3 5.54994L18.8461 0L13.4024 5.47869L5.51109 5.48684L5.52119 13.4223L0 18.9797L5.60939 24.5269L5.6168 32.4623L13.4272 32.4541L18.8811 38L24.3222 32.4426L32.2134 32.4365L32.2053 24.5818L37.7266 19.0244L32.1185 13.4799ZM4.81623 20.6424L3.55107 19.3739C3.50409 19.3273 3.46676 19.2718 3.44129 19.2105C3.41582 19.1491 3.4027 19.0834 3.4027 19.017C3.4027 18.9505 3.41582 18.8848 3.44129 18.8235C3.46676 18.7622 3.50409 18.7066 3.55107 18.66L4.8923 17.3095C4.93029 17.2742 4.97863 17.2523 5.03003 17.247C5.08143 17.2416 5.13314 17.2533 5.17743 17.2801C5.22171 17.307 5.25619 17.3476 5.27568 17.3958C5.29516 17.444 5.29862 17.4973 5.28552 17.5477L5.36565 20.4048C5.36565 20.7231 5.05053 20.8011 4.8169 20.6424H4.81623ZM27.451 7.84919H29.269C29.5053 7.84919 29.8178 8.00528 29.7404 8.32424V10.2245C29.7404 10.4613 29.4266 10.544 29.3445 10.3819L27.2902 8.32153C27.2439 8.28945 27.2092 8.24304 27.1914 8.18934C27.1736 8.13563 27.1737 8.07755 27.1915 8.02388C27.2094 7.9702 27.2442 7.92385 27.2905 7.89185C27.3369 7.85984 27.3923 7.84392 27.4484 7.84648L27.451 7.84919ZM17.3432 4.92153L18.6077 3.6511C18.8441 3.49298 19.1585 3.41425 19.3148 3.6511L20.656 4.91949C20.6923 4.96241 20.7152 5.01511 20.7221 5.07107C20.729 5.12702 20.7194 5.18378 20.6947 5.23432C20.6699 5.28487 20.631 5.32698 20.5827 5.35545C20.5344 5.38393 20.4789 5.39752 20.423 5.39453L17.5836 5.39862C17.5264 5.40538 17.4685 5.39432 17.4177 5.36692C17.3669 5.33953 17.3256 5.29711 17.2994 5.24537C17.2732 5.19365 17.2634 5.13508 17.2712 5.07755C17.2791 5.02001 17.3042 4.96627 17.3432 4.92355V4.92153ZM7.72293 10.1681V8.42333C7.80104 8.10369 7.96128 7.86753 8.27639 7.86753L10.0896 7.86344C10.147 7.85621 10.2051 7.86701 10.2563 7.89436C10.3073 7.92171 10.3488 7.96428 10.3749 8.01626C10.401 8.06823 10.4107 8.12708 10.4024 8.18475C10.3941 8.24242 10.3684 8.29612 10.3287 8.3385L8.27639 10.4009C8.22789 10.4376 8.1707 10.4608 8.11051 10.4683C8.05033 10.4757 7.98926 10.4672 7.93338 10.4434C7.87751 10.4197 7.8288 10.3816 7.7921 10.3329C7.75541 10.2842 7.73203 10.2267 7.72428 10.166L7.72293 10.1681ZM10.2694 30.237H8.45146C8.3889 30.2394 8.32651 30.2289 8.26821 30.2059C8.20991 30.1829 8.15697 30.148 8.1127 30.1034C8.06844 30.0588 8.03381 30.0054 8.01099 29.9467C7.98818 29.8879 7.97767 29.825 7.98013 29.762L7.90001 27.935C7.89366 27.8775 7.90496 27.8193 7.93241 27.7685C7.95986 27.7177 8.00212 27.6765 8.05349 27.6506C8.10488 27.6248 8.16288 27.6154 8.21972 27.6237C8.27655 27.6321 8.32948 27.6578 8.37133 27.6975L10.5017 29.7599C10.6606 29.9174 10.5017 30.235 10.2668 30.235L10.2694 30.237ZM20.454 33.0004L19.1909 34.2729C19.149 34.3282 19.0951 34.3732 19.0333 34.4042C18.9714 34.435 18.9033 34.4512 18.8343 34.4512C18.7652 34.4512 18.6971 34.435 18.6353 34.4042C18.5735 34.3732 18.5195 34.3282 18.4778 34.2729L17.1379 33.0024C17.1043 32.9644 17.0812 32.9182 17.0711 32.8682C17.061 32.8183 17.0642 32.7666 17.0803 32.7184C17.0965 32.6701 17.125 32.627 17.163 32.5934C17.201 32.5599 17.2472 32.5371 17.2968 32.5274H20.213C20.2704 32.5201 20.3286 32.5308 20.3798 32.558C20.431 32.5853 20.4725 32.6277 20.4989 32.6796C20.5252 32.7316 20.535 32.7905 20.527 32.8482C20.519 32.906 20.4934 32.9599 20.454 33.0024V33.0004ZM21.8679 29.8285L15.5536 29.8346C15.1421 29.8894 14.7234 29.8385 14.3367 29.6865C13.9498 29.5347 13.6074 29.2868 13.341 28.9659L8.76252 24.3681C8.41549 24.0689 8.14732 23.6879 7.9819 23.2588C7.81649 22.8298 7.75897 22.3662 7.8145 21.9094L7.80844 15.6379C7.80043 15.229 7.87281 14.8225 8.02142 14.4418C8.17003 14.0612 8.39193 13.714 8.67432 13.4202L13.4871 8.57331C13.749 8.32373 14.0591 8.13128 14.3981 8.00797C14.7371 7.88466 15.0977 7.83316 15.4573 7.85666L21.9286 7.85259C22.3209 7.79283 22.7219 7.8339 23.0943 7.97199C23.4668 8.11008 23.7985 8.34073 24.059 8.64254L28.725 13.3204C29.0308 13.5834 29.2742 13.9122 29.4373 14.2824C29.6005 14.6527 29.6791 15.0552 29.6676 15.4602L29.6757 22.284C29.7308 22.6826 29.6712 23.0888 29.5042 23.4544C29.337 23.8199 29.0694 24.1295 28.733 24.3463L24.3174 28.8736C24.0096 29.2108 23.6288 29.4719 23.2045 29.6367C22.7803 29.8015 22.3241 29.8654 21.8713 29.8237L21.8679 29.8285ZM29.842 29.4993C29.7619 29.7375 29.6057 30.0544 29.2912 30.0544L27.4733 30.0585C27.4156 30.0651 27.3574 30.0537 27.3064 30.026C27.2553 29.9981 27.214 29.9552 27.188 29.903C27.1619 29.8507 27.1524 29.7917 27.1607 29.7339C27.169 29.676 27.1947 29.622 27.2343 29.5794L29.2866 27.5149C29.3238 27.4652 29.3751 27.4278 29.4339 27.408C29.4926 27.3881 29.5558 27.3866 29.6154 27.4036C29.675 27.4206 29.728 27.4554 29.7676 27.5033C29.8072 27.5513 29.8315 27.6102 29.8373 27.6724L29.842 29.4993ZM32.6767 20.6091C32.5185 20.7665 32.2053 20.6131 32.2794 20.4516V17.5165C32.2013 17.1989 32.5966 17.1181 32.7548 17.2756L34.0199 18.5467C34.1741 18.7822 34.2543 19.0997 34.0199 19.2572L32.6767 20.6091Z" fill="#303030"/>
<path d="M27.078 23.6413L19.0931 9.60211C18.776 9.04702 18.3006 9.04702 17.9087 9.60211L10.1879 23.574C10.0297 23.9725 10.1879 24.4468 10.9003 24.4468L26.4471 24.4306C26.9999 24.4306 27.317 24.1951 27.08 23.6413H27.078ZM24.9497 22.7665L13.5814 22.7767C13.4937 22.7883 13.4045 22.7751 13.3238 22.7384C13.2431 22.7018 13.1743 22.6431 13.1248 22.5692C13.0755 22.4952 13.0475 22.4088 13.0442 22.3197C13.0408 22.2306 13.0623 22.1423 13.1061 22.0648L18.7801 11.9034C19.0185 11.5071 19.4103 11.5838 19.6554 11.9034L25.4183 22.1306C25.5745 22.527 25.3402 22.7645 24.9469 22.7645" fill="#303030"/>
<path d="M24.1552 21.1804L19.9625 13.6475C19.9293 13.5931 19.883 13.5483 19.8277 13.5172C19.7725 13.4861 19.7103 13.4697 19.647 13.4697C19.5838 13.4697 19.5215 13.4861 19.4663 13.5172C19.4111 13.5483 19.3648 13.5931 19.3316 13.6475L15.1536 21.1051C15.1298 21.1621 15.1193 21.2238 15.123 21.2855C15.1268 21.3471 15.1447 21.4072 15.1752 21.4607C15.2058 21.5143 15.2483 21.56 15.2993 21.5942C15.3504 21.6285 15.4086 21.6504 15.4694 21.6582L23.8361 21.6527C24.1518 21.57 24.3073 21.4926 24.1518 21.1777L24.1552 21.1804ZM22.3339 19.8279L17.993 19.834C17.8328 19.834 17.758 19.7532 17.8328 19.5951L19.9598 15.7879C20.1187 15.6298 20.1968 15.6298 20.277 15.7879L22.4894 19.5883C22.5702 19.7478 22.4894 19.8266 22.3332 19.8266" fill="#303030"/>
<path d="M144.588 12.8914L144.594 17.4933C144.196 15.036 142.615 12.8955 139.461 12.8976L133.774 12.9037L133.783 21.3901L128.102 21.3962V20.1272H132.285V17.1906H128.1V16.0031L133.15 15.9949L133.146 12.9043L124.147 12.9125L124.15 16.005C123.673 13.947 122.173 12.9175 119.65 12.9166L113.413 12.924L113.419 20.6979C109.871 22.1285 107.583 21.6575 107.501 18.8798C107.501 16.024 109.547 15.306 112.784 16.2535L112.466 13.0822C108.519 12.2923 105.445 13.0903 103.632 16.2636C103.314 14.6016 102.366 13.0129 99.5209 12.9383L93.2078 12.9444L93.2199 21.3595H87.5337V20.1713L91.7164 20.1672V17.2307L87.5317 17.2362V15.9664L92.5816 15.9623L92.5742 12.9423L68.7387 12.9661L68.7448 19.3135L65.6624 12.9682L61.1606 12.9743L61.1686 21.3847L55.2503 21.3888L55.2462 20.2011L59.4328 20.195L59.4288 17.3379L55.2462 17.342V16.073L60.218 16.0655V13.0557L51.2986 13.0638L51.3067 20.7589C48.0747 22.1116 45.4676 21.878 45.4643 18.7814C45.4643 16.1605 47.9064 15.3712 50.8292 16.3973L50.434 13.1446C45.1451 12.0378 41.5133 14.1062 41.4412 19.0258C41.4452 23.1526 45.8663 25.6859 51.31 24.0918V24.4094L64.7286 24.3992L64.7225 18.4475L67.7288 24.3924H72.3827L72.3747 15.8958H76.0847L76.0927 24.3843L80.2 24.3802L80.1919 15.9651H83.5874L83.5955 24.3727L97.0124 24.3626L97.0019 15.9528H98.2667C98.9762 15.9528 99.5295 16.1896 99.5314 16.9851C99.4533 17.9352 98.6638 18.1733 97.3228 17.9352L99.1409 24.3612L103.401 24.3551L101.583 19.5964C101.99 19.4985 102.369 19.3029 102.685 19.0263C103.002 18.7498 103.247 18.4004 103.401 18.0077C103.407 24.5139 109.012 25.3053 113.433 23.95V24.3449H117.302L117.294 15.9351H118.557C119.499 15.9351 119.74 16.4882 119.744 16.9653C119.826 17.7587 118.88 18.1571 117.534 17.9154L119.433 24.3416L123.458 24.3375L121.718 19.5795C122.271 19.4884 122.79 19.2488 123.22 18.8859C123.65 18.523 123.975 18.0502 124.162 17.5171L124.168 24.3375L140.192 24.3212C142.402 24.3212 144.055 22.7311 144.606 20.1136L144.61 24.3212L148.717 24.3171L148.711 15.9074L152.736 15.9033L152.742 24.3137L156.85 24.3097L156.842 15.9005L160 15.8965L159.996 12.8826L144.588 12.8914ZM138.931 21.31H137.666V16.1523H139.089C139.874 16.1523 140.351 17.0264 140.351 18.6938C140.431 20.5154 139.88 21.3094 138.937 21.3094" fill="#303030"/>
</g>
<defs>
<clipPath id="clip0">
<rect width="160" height="38" fill="white"/>
</clipPath>
</defs>
</svg>
