<svg width="18" height="28" viewBox="0 0 18 28" fill="none" xmlns="http://www.w3.org/2000/svg">
<path d="M9.01468 0.253681C9.55396 0.254057 10.0802 0.42296 10.5227 0.737685C10.9651 1.05241 11.3026 1.49787 11.4897 2.01418C12.3134 4.27649 13.1123 6.54799 13.9201 8.81643C14.9178 11.6164 15.9104 14.4199 16.9201 17.2164C17.0135 17.4759 16.9437 17.5551 16.7221 17.6456C15.832 18.0095 14.9462 18.3844 14.065 18.77C13.8593 18.8575 13.777 18.8474 13.699 18.6033C13.3437 17.4942 12.9563 16.3961 12.595 15.2892C12.5771 15.1984 12.5255 15.1181 12.4509 15.0652C12.3764 15.0123 12.2848 14.9908 12.1951 15.0053C10.0548 15.0123 7.91454 15.0123 5.77426 15.0053C5.6898 14.9947 5.60464 15.0182 5.5368 15.0706C5.46896 15.123 5.42378 15.2003 5.41083 15.2862C5.04697 16.3931 4.66168 17.4925 4.30511 18.6016C4.22797 18.8413 4.13797 18.861 3.93568 18.7735C3.03311 18.3824 2.12711 17.9991 1.21768 17.6246C1.01368 17.5411 0.99697 17.4496 1.06768 17.251C2.70226 12.6857 4.33297 8.11949 5.95983 3.55156C6.14626 3.02874 6.3164 2.50156 6.51697 1.98312C6.71456 1.47155 7.05881 1.03277 7.50469 0.724204C7.95056 0.415635 8.4773 0.251642 9.01597 0.253681H9.01468ZM11.4451 11.8912L9.01768 4.64706C8.98861 4.69019 8.96254 4.73537 8.93968 4.78224C8.1704 7.07256 7.40026 9.36287 6.62926 11.6532C6.53797 11.9231 6.69311 11.8912 6.84783 11.8912H11.449H11.4451ZM9.00183 27.7392C6.24911 27.7392 3.4964 27.7344 0.743684 27.7466C0.440684 27.7466 0.35797 27.6617 0.363541 27.3577C0.380684 26.3654 0.376398 25.3727 0.363541 24.3827C0.360541 24.1359 0.425684 24.0633 0.675541 24.0637C6.22468 24.0707 11.7738 24.0699 17.3225 24.0616C17.5711 24.0616 17.638 24.1346 17.6354 24.3809C17.6235 25.3844 17.6235 26.3879 17.6354 27.3914C17.6393 27.6631 17.5694 27.7492 17.2925 27.7479C14.5304 27.7344 11.7661 27.7387 9.00183 27.7392Z" fill="#D6271F"/>
</svg>
