<svg width="20" height="20" viewBox="0 0 20 20" fill="none" xmlns="http://www.w3.org/2000/svg">
<path d="M9.48791 19.754C9.78191 19.911 10.1509 19.91 10.4449 19.753C18.4569 15.449 19.0259 7.03998 19.0189 4.64898C19.0181 4.45681 18.9614 4.26904 18.8555 4.10865C18.7496 3.94826 18.5993 3.82223 18.4229 3.74598L10.3729 0.179985C10.2448 0.123514 10.1063 0.094433 9.9663 0.0946053C9.8263 0.0947775 9.68788 0.124199 9.55991 0.180985L1.56591 3.74698C1.3921 3.82327 1.24389 3.94791 1.13893 4.10606C1.03397 4.26421 0.97669 4.4492 0.973906 4.63898C0.939906 7.01798 1.41891 15.445 9.48791 19.754Z" fill="#B3B6BA"/>
</svg>
