<svg width="16" height="17" viewBox="0 0 16 17" fill="none" xmlns="http://www.w3.org/2000/svg">
<path d="M15.729 15.3149L11.7917 11.1513C12.7685 9.96749 13.3189 8.48033 13.3518 6.93552C13.3848 5.39071 12.8984 3.88069 11.973 2.65497C11.0476 1.42925 9.73861 0.561194 8.26229 0.194225C6.78597 -0.172744 5.23069 -0.0166608 3.85343 0.636685C2.47617 1.29003 1.35936 2.40154 0.687536 3.78755C0.0157099 5.17356 -0.170926 6.75112 0.158468 8.25957C0.487861 9.76801 1.31357 11.1171 2.49916 12.0838C3.68475 13.0506 5.15927 13.5772 6.67907 13.5766C8.04898 13.5802 9.38612 13.1508 10.5055 12.348L14.4759 16.5427C14.5537 16.6323 14.6485 16.705 14.7547 16.7563C14.8609 16.8076 14.9762 16.8366 15.0937 16.8414C15.2112 16.8462 15.3284 16.8268 15.4383 16.7843C15.5482 16.7418 15.6485 16.6772 15.7332 16.5942C15.8178 16.5113 15.8851 16.4117 15.9309 16.3017C15.9767 16.1916 16.0001 16.0732 15.9998 15.9536C15.9994 15.8341 15.9752 15.7159 15.9286 15.6061C15.8821 15.4963 15.8142 15.3973 15.729 15.3149ZM6.67907 1.76688C7.65541 1.76688 8.60983 2.06123 9.42163 2.61272C10.2334 3.1642 10.8662 3.94805 11.2398 4.86513C11.6134 5.78222 11.7112 6.79135 11.5207 7.76492C11.3302 8.73849 10.8601 9.63278 10.1697 10.3347C9.47931 11.0366 8.59971 11.5146 7.64213 11.7082C6.68454 11.9019 5.69198 11.8025 4.78996 11.4226C3.88793 11.0428 3.11696 10.3995 2.57453 9.57414C2.03211 8.74878 1.74259 7.77843 1.74259 6.78578C1.74412 5.45517 2.2647 4.17949 3.19014 3.2386C4.11558 2.29771 5.3703 1.76844 6.67907 1.76688Z" fill="#141414"/>
</svg>
