<svg width="583" height="272" viewBox="0 0 583 272" fill="none" xmlns="http://www.w3.org/2000/svg">
<g clip-path="url(#clip0)">
<path d="M64.5542 270.662L63.5537 270.437C74.7091 220.893 102.744 175.903 142.493 143.753C172.544 119.485 208.286 103.254 246.353 96.5895C284.419 89.9245 323.558 93.0446 360.084 105.656C396.61 118.267 429.321 139.955 455.137 168.677C480.954 197.399 499.026 232.21 507.652 269.833L506.653 270.06C483.038 166.513 392.168 94.1942 285.672 94.1942C180.571 94.1942 87.5775 168.41 64.5542 270.662Z" fill="#3F3D56"/>
<path d="M539.159 247.078L540.697 258.344L529.93 259.368L531.468 245.542L539.159 247.078Z" fill="#A0616A"/>
<path d="M488.397 92.4303C488.397 92.4303 489.423 106.256 489.423 106.769C489.423 107.281 482.244 142.614 482.244 142.614C482.244 142.614 471.989 162.073 482.244 161.561C492.499 161.049 489.423 143.126 489.423 143.126L500.191 113.426L495.576 92.4303H488.397Z" fill="#A0616A"/>
<path d="M505.318 247.078L503.779 258.344L514.547 259.368L513.009 245.542L505.318 247.078Z" fill="#A0616A"/>
<path d="M493.525 141.59L490.961 145.174C490.961 145.174 489.423 160.537 490.961 165.658C492.499 170.778 495.576 194.334 495.576 195.87C495.576 197.406 496.089 198.431 495.576 198.943C495.063 199.455 493.525 199.455 494.55 200.479C495.576 201.503 495.576 204.575 495.576 204.575V207.136L502.242 245.03C502.242 245.03 498.14 249.638 501.216 249.638C504.293 249.638 515.573 249.638 515.06 244.518L514.035 244.006C514.035 244.006 512.497 210.208 513.009 208.672C513.522 207.136 513.009 204.063 513.009 204.063C513.009 204.063 511.984 202.527 513.009 202.015C514.035 201.503 514.035 197.406 514.035 197.406L518.65 166.17C518.65 166.17 522.752 187.165 525.315 189.213C527.879 191.261 527.366 196.382 527.366 196.382L529.417 241.445C529.417 241.445 527.366 246.566 529.417 247.59C531.468 248.614 540.185 252.199 540.698 247.078C541.211 241.957 543.774 197.406 543.774 195.358C543.774 193.31 543.262 192.286 543.774 190.749C544.287 189.213 543.262 189.213 543.774 189.213C544.287 189.213 542.749 187.677 542.749 186.653V161.561C542.749 161.561 543.262 156.44 543.774 155.416C544.287 154.392 543.262 153.368 543.774 151.831C544.287 150.295 542.749 145.174 542.749 145.174L519.675 139.029L493.525 141.59Z" fill="#2F2E41"/>
<path d="M511.471 256.295C511.471 256.295 514.035 253.735 510.446 253.735C508.141 253.782 505.872 254.305 503.78 255.271L501.216 264.489C501.216 264.489 490.705 272.938 502.498 271.914C514.291 270.89 512.497 271.658 512.497 271.658C512.497 271.658 516.086 270.634 516.599 269.61C517.112 268.585 515.573 253.735 515.573 253.735C515.573 253.735 514.035 257.832 511.471 256.295Z" fill="#2F2E41"/>
<path d="M533.519 256.295C533.519 256.295 530.956 253.735 534.545 253.735C536.849 253.782 539.119 254.305 541.211 255.271L543.774 264.489C543.774 264.489 554.286 272.938 542.492 271.914C530.699 270.89 530.956 271.658 530.956 271.658C530.956 271.658 527.366 270.634 526.854 269.61C526.341 268.585 529.417 253.735 529.417 253.735C529.417 253.735 530.956 257.832 533.519 256.295Z" fill="#2F2E41"/>
<path d="M151.285 90.8591H146.72V270.933H151.285V90.8591Z" fill="#3F3D56"/>
<path d="M193.413 113.807C193.703 176.775 149.344 228.025 149.344 228.025C149.344 228.025 104.514 177.186 104.223 114.218C103.933 51.2505 148.292 0 148.292 0C148.292 0 193.122 50.84 193.413 113.807Z" fill="#7DCEA0"/>
<path d="M468.913 196.382H115.626V271.146H468.913V196.382Z" fill="#F2F2F2"/>
<path d="M104.346 204.575L142.802 124.179H449.941L478.655 204.575H104.346Z" fill="#3F3D56"/>
<path d="M342.776 129.3H200.23V176.411H342.776V129.3Z" fill="#F2F2F2"/>
<path d="M209.46 90.894L186.898 138.005H356.107L342.775 90.894H209.46Z" fill="#3F3D56"/>
<path d="M325.341 211.233H212.792V271.146H325.341V211.233Z" fill="#CCCCCC"/>
<path d="M189.462 213.281H129.47V271.146H189.462V213.281Z" fill="#CCCCCC"/>
<path d="M375.848 216.865H344.826V271.146H375.848V216.865Z" fill="#3F3D56"/>
<path d="M583 270.89H0V271.914H583V270.89Z" fill="#3F3D56"/>
<path d="M95.2594 152.118H92.2471V270.947H95.2594V152.118Z" fill="#3F3D56"/>
<path d="M123.06 167.261C123.251 208.813 93.9791 242.633 93.9791 242.633C93.9791 242.633 64.3958 209.084 64.2041 167.532C64.0123 125.98 93.2846 92.1603 93.2846 92.1603C93.2846 92.1603 122.868 125.709 123.06 167.261Z" fill="#7DCEA0"/>
<path opacity="0.1" d="M123.06 167.261C123.251 208.813 93.9791 242.633 93.9791 242.633C93.9791 242.633 64.3958 209.084 64.2041 167.532C64.0123 125.98 93.2846 92.1603 93.2846 92.1603C93.2846 92.1603 122.868 125.709 123.06 167.261Z" fill="black"/>
<path d="M56.0992 152.118H53.0869V270.947H56.0992V152.118Z" fill="#3F3D56"/>
<path d="M83.8995 167.261C84.0913 208.813 54.8189 242.633 54.8189 242.633C54.8189 242.633 25.2356 209.084 25.0439 167.532C24.8522 125.98 54.1245 92.1603 54.1245 92.1603C54.1245 92.1603 83.7078 125.709 83.8995 167.261Z" fill="#7DCEA0"/>
<path d="M424.56 219.938H409.434V234.02H424.56V219.938Z" fill="#3F3D56"/>
<path d="M444.813 219.938H429.687V234.02H444.813V219.938Z" fill="#3F3D56"/>
<path d="M424.56 239.141H409.434V253.735H424.56V239.141Z" fill="#3F3D56"/>
<path d="M444.813 239.141H429.687V253.735H444.813V239.141Z" fill="#3F3D56"/>
<path d="M225.143 142.191H213.305V153.212H225.143V142.191Z" fill="#3F3D56"/>
<path d="M240.994 142.191H229.156V153.212H240.994V142.191Z" fill="#3F3D56"/>
<path d="M225.143 157.219H213.305V168.641H225.143V157.219Z" fill="#3F3D56"/>
<path d="M240.994 157.219H229.156V168.641H240.994V157.219Z" fill="#3F3D56"/>
<path d="M313.85 142.191H302.012V153.212H313.85V142.191Z" fill="#3F3D56"/>
<path d="M329.7 142.191H317.862V153.212H329.7V142.191Z" fill="#3F3D56"/>
<path d="M313.85 157.219H302.012V168.641H313.85V157.219Z" fill="#3F3D56"/>
<path d="M329.7 157.219H317.862V168.641H329.7V157.219Z" fill="#3F3D56"/>
<path d="M269.753 142.191H257.915V153.212H269.753V142.191Z" fill="#3F3D56"/>
<path d="M285.604 142.191H273.766V153.212H285.604V142.191Z" fill="#3F3D56"/>
<path d="M269.753 157.219H257.915V168.641H269.753V157.219Z" fill="#3F3D56"/>
<path d="M285.604 157.219H273.766V168.641H285.604V157.219Z" fill="#3F3D56"/>
<path d="M359.202 222.365H351.748V229.304H359.202V222.365Z" fill="#F2F2F2"/>
<path d="M369.182 222.365H361.729V229.304H369.182V222.365Z" fill="#F2F2F2"/>
<path d="M359.202 231.827H351.748V239.018H359.202V231.827Z" fill="#F2F2F2"/>
<path d="M369.182 231.827H361.729V239.018H369.182V231.827Z" fill="#F2F2F2"/>
<path d="M371.745 249.895C372.878 249.895 373.796 248.977 373.796 247.846C373.796 246.715 372.878 245.798 371.745 245.798C370.613 245.798 369.694 246.715 369.694 247.846C369.694 248.977 370.613 249.895 371.745 249.895Z" fill="#F2F2F2"/>
<path d="M325.598 217.634H212.792V218.658H325.598V217.634Z" fill="#F2F2F2"/>
<path d="M325.598 222.242H212.792V223.266H325.598V222.242Z" fill="#F2F2F2"/>
<path d="M325.598 226.851H212.792V227.875H325.598V226.851Z" fill="#F2F2F2"/>
<path d="M325.598 231.46H212.792V232.484H325.598V231.46Z" fill="#F2F2F2"/>
<path d="M325.598 236.068H212.792V237.093H325.598V236.068Z" fill="#F2F2F2"/>
<path d="M325.598 240.677H212.792V241.701H325.598V240.677Z" fill="#F2F2F2"/>
<path d="M325.598 245.286H212.792V246.31H325.598V245.286Z" fill="#F2F2F2"/>
<path d="M325.598 249.895H212.792V250.919H325.598V249.895Z" fill="#F2F2F2"/>
<path d="M325.598 254.503H212.792V255.527H325.598V254.503Z" fill="#F2F2F2"/>
<path d="M325.598 259.112H212.792V260.136H325.598V259.112Z" fill="#F2F2F2"/>
<path d="M325.598 263.721H212.792V264.745H325.598V263.721Z" fill="#F2F2F2"/>
<path d="M189.462 217.634H129.47V218.658H189.462V217.634Z" fill="#F2F2F2"/>
<path d="M189.462 222.242H129.47V223.266H189.462V222.242Z" fill="#F2F2F2"/>
<path d="M189.462 226.851H129.47V227.875H189.462V226.851Z" fill="#F2F2F2"/>
<path d="M189.462 231.46H129.47V232.484H189.462V231.46Z" fill="#F2F2F2"/>
<path d="M189.462 236.068H129.47V237.093H189.462V236.068Z" fill="#F2F2F2"/>
<path d="M189.462 240.677H129.47V241.701H189.462V240.677Z" fill="#F2F2F2"/>
<path d="M189.462 245.286H129.47V246.31H189.462V245.286Z" fill="#F2F2F2"/>
<path d="M189.462 249.895H129.47V250.919H189.462V249.895Z" fill="#F2F2F2"/>
<path d="M189.462 254.503H129.47V255.527H189.462V254.503Z" fill="#F2F2F2"/>
<path d="M189.462 259.112H129.47V260.136H189.462V259.112Z" fill="#F2F2F2"/>
<path d="M189.462 263.721H129.47V264.745H189.462V263.721Z" fill="#F2F2F2"/>
<path d="M449.684 165.401C472.622 165.401 491.217 146.831 491.217 123.923C491.217 101.015 472.622 82.4447 449.684 82.4447C426.746 82.4447 408.151 101.015 408.151 123.923C408.151 146.831 426.746 165.401 449.684 165.401Z" fill="#7DCEA0"/>
<path d="M475.835 119.827H453.787V97.8071H445.583V119.827H423.534V128.02H445.583V150.039H453.787V128.02H475.835V119.827Z" fill="white"/>
<path d="M500.19 51.976C507.553 51.976 513.521 46.0151 513.521 38.662C513.521 31.3088 507.553 25.3479 500.19 25.3479C492.827 25.3479 486.858 31.3088 486.858 38.662C486.858 46.0151 492.827 51.976 500.19 51.976Z" fill="#A0616A"/>
<path d="M495.575 48.3914C495.575 48.3914 497.626 58.633 497.626 60.1692C497.626 61.7055 506.343 66.3142 506.343 66.3142L516.085 54.0243C516.085 54.0243 509.932 45.3189 509.932 43.2706L495.575 48.3914Z" fill="#A0616A"/>
<path d="M503.267 61.7055C503.267 61.7055 498.798 60.5175 497.443 58.5511C497.443 58.5511 483.27 72.4591 483.27 75.0195L494.55 94.9906C494.55 94.9906 494.55 102.16 495.576 102.672C496.601 103.184 495.576 102.672 495.576 104.72C495.576 106.768 492.499 120.082 493.525 122.131C494.55 124.179 495.576 122.643 494.55 125.715C493.525 128.788 490.961 145.174 490.961 145.174C490.961 145.174 500.19 142.102 513.522 147.223C526.854 152.343 542.749 145.174 542.749 145.174C542.749 145.174 538.647 135.957 539.672 132.884C540.698 129.812 537.109 124.179 537.109 124.179L534.545 77.0678C534.545 77.0678 538.134 56.0726 535.57 55.0484L530.443 53.0001L514.022 50.9846C514.022 50.9846 509.933 61.1934 503.267 61.7055Z" fill="#D0CDE1"/>
<path d="M488.397 71.4351L483.269 75.0196C483.269 75.0196 480.706 82.7008 483.269 86.2854C485.833 89.8699 486.859 94.9907 486.859 94.9907L497.114 93.9665L488.397 71.4351Z" fill="#D0CDE1"/>
<path d="M526.341 76.0437C526.341 76.0437 523.372 83.669 523.992 91.2134C524.105 92.5641 524.561 93.8639 525.315 94.9906L488.938 112.238C488.938 112.238 472.502 113.938 476.604 121.107C480.706 128.276 495.576 117.522 495.576 117.522C495.576 117.522 534.545 111.889 537.621 106.256C540.698 100.623 542.749 77.0679 542.749 77.0679L526.341 76.0437Z" fill="#A0616A"/>
<path d="M490.012 24.5912L487.7 23.6666C487.7 23.6666 492.535 18.3503 499.262 18.8126L497.37 16.7323C497.37 16.7323 501.995 14.8831 506.2 19.7371C508.41 22.2888 510.967 25.2882 512.562 28.6669H515.038L514.005 30.9398L517.622 33.2127L513.909 32.8045C514.261 34.7668 514.14 36.7844 513.558 38.6911L513.657 40.4876C513.657 40.4876 509.353 33.837 509.353 32.9124V35.2239C509.353 35.2239 507.041 33.1436 507.041 31.7567L505.779 33.3748L505.149 30.8321L497.37 33.3748L498.632 31.2945L493.796 31.9879L495.689 29.4453C495.689 29.4453 490.223 32.4501 490.012 34.9928C489.802 37.5354 487.069 40.7714 487.069 40.7714L485.808 38.4599C485.808 38.4599 483.916 28.0584 490.012 24.5912Z" fill="#2F2E41"/>
<path d="M527.879 55.0485H535.571C535.571 55.0485 541.211 56.0726 542.749 66.3142C544.287 76.5558 545.826 79.1162 544.287 79.1162C542.749 79.1162 524.29 78.6041 524.29 78.092C524.29 77.5799 527.879 55.0485 527.879 55.0485Z" fill="#D0CDE1"/>
</g>
<defs>
<clipPath id="clip0">
<rect width="583" height="272" fill="white"/>
</clipPath>
</defs>
</svg>
