<svg width="533" height="384" viewBox="0 0 533 384" fill="none" xmlns="http://www.w3.org/2000/svg">
<g clip-path="url(#clip0)">
<path opacity="0.1" d="M524.56 258.161C512.198 283.831 487.096 300.995 461.083 312.315C426.062 327.56 387.496 333.606 349.46 331.049C342.794 330.603 336.149 329.889 329.523 328.909C306.513 325.53 284.079 318.954 262.864 309.369C256.741 306.594 250.742 303.564 244.867 300.279C235.055 294.804 225.653 288.615 216.737 281.761C214.494 280.037 212.283 278.27 210.102 276.459C208.59 275.204 207.092 273.92 205.571 272.675C202.36 270.047 199.057 267.551 195.372 265.682C194.26 265.118 193.12 264.612 191.957 264.165C180.288 259.697 166.832 261.383 154.684 264.867C145.444 267.518 136.436 271.148 127.205 273.738C123.099 274.925 118.915 275.82 114.685 276.417C105.239 277.62 95.6469 276.772 86.5543 273.93L85.7773 273.686C84.4745 273.274 83.1826 272.823 81.9016 272.333L81.1246 272.033C79.8839 271.552 78.6695 271.035 77.4815 270.483L76.7045 270.127C75.4638 269.546 74.2495 268.933 73.0615 268.286C72.6334 268.061 72.21 267.818 71.7913 267.588C65.0321 263.788 58.8882 258.973 53.5713 253.309C53.4177 253.154 53.2735 252.995 53.106 252.84C52.3662 252.035 51.6404 251.215 50.9378 250.377C50.6773 250.068 50.4167 249.759 50.1608 249.44C49.3265 248.416 48.5215 247.368 47.7461 246.298C47.6298 246.143 47.5181 245.984 47.4064 245.829C44.2294 241.405 41.5954 236.61 39.562 231.549C39.4968 231.395 39.4364 231.236 39.3805 231.081C38.7602 229.473 38.1941 227.839 37.6823 226.177C37.4729 225.484 37.2729 224.772 37.096 224.079C37.0356 223.873 36.9797 223.662 36.9285 223.456C34.3603 213.279 34.0671 202.699 34.0671 192.18C34.0671 190.953 34.0671 189.728 34.0671 188.504C34.1416 171.489 34.4021 154.184 36.896 137.403C36.896 137.286 36.9286 137.169 36.9472 137.056C37.7818 131.407 38.9172 125.807 40.3483 120.28C41.8461 114.481 43.7603 108.799 46.0758 103.279C51.8126 89.6973 60.1549 77.3377 69.4184 65.882C92.7517 37.0554 123.353 12.8561 159.169 3.79831C197.763 -5.9573 240.657 3.39085 271.788 28.3395C281.279 35.9454 289.808 44.9517 300.467 50.7826C309.773 55.8594 320.665 57.9623 330.631 53.9673C338.866 50.6655 344.226 49.0263 353.475 49.5274C372.624 50.6179 391.501 54.5979 409.475 61.3344C410.201 61.6013 410.927 61.8777 411.648 62.154C458.506 80.1993 498.784 116.051 519.721 162.122C520.276 163.34 520.815 164.567 521.336 165.803C533.819 195.154 538.332 229.554 524.56 258.161Z" fill="#27AE60"/>
<path opacity="0.1" d="M55.972 347.975C78.6566 347.975 97.0461 345.002 97.0461 341.334C97.0461 337.666 78.6566 334.693 55.972 334.693C33.2874 334.693 14.8979 337.666 14.8979 341.334C14.8979 345.002 33.2874 347.975 55.972 347.975Z" fill="#27AE60"/>
<path d="M490.386 50.4641H59.8479C56.6384 50.4641 54.0366 53.0831 54.0366 56.3137V296.738C54.0366 299.969 56.6384 302.588 59.8479 302.588H490.386C493.595 302.588 496.197 299.969 496.197 296.738V56.3137C496.197 53.0831 493.595 50.4641 490.386 50.4641Z" fill="url(#paint0_linear)"/>
<path d="M489.735 54.0094H60.5505C57.341 54.0094 54.7393 56.6284 54.7393 59.859V295.9C54.7393 299.13 57.341 301.749 60.5505 301.749H489.735C492.944 301.749 495.546 299.13 495.546 295.9V59.859C495.546 56.6284 492.944 54.0094 489.735 54.0094Z" fill="white"/>
<path d="M489.735 54.0094H60.5505C57.341 54.0094 54.7393 56.6284 54.7393 59.859V295.9C54.7393 299.13 57.341 301.749 60.5505 301.749H489.735C492.944 301.749 495.546 299.13 495.546 295.9V59.859C495.546 56.6284 492.944 54.0094 489.735 54.0094Z" fill="white"/>
<path opacity="0.04" d="M489.735 54.0094H60.5505C57.341 54.0094 54.7393 56.6284 54.7393 59.859V295.9C54.7393 299.13 57.341 301.749 60.5505 301.749H489.735C492.944 301.749 495.546 299.13 495.546 295.9V59.859C495.546 56.6284 492.944 54.0094 489.735 54.0094Z" fill="white"/>
<path d="M493.308 51.1666H56.9772C56.3837 51.1666 55.8144 51.404 55.3947 51.8264C54.975 52.2489 54.7393 52.8219 54.7393 53.4194V62.9408H495.527V53.4194C495.527 52.8251 495.294 52.255 494.878 51.833C494.463 51.4111 493.898 51.1716 493.308 51.1666Z" fill="#5A5773"/>
<path d="M63.5418 60.0979C65.2121 60.0979 66.5661 58.7349 66.5661 57.0536C66.5661 55.3724 65.2121 54.0094 63.5418 54.0094C61.8716 54.0094 60.5176 55.3724 60.5176 57.0536C60.5176 58.7349 61.8716 60.0979 63.5418 60.0979Z" fill="white"/>
<path d="M71.6842 60.0979C73.3544 60.0979 74.7084 58.7349 74.7084 57.0536C74.7084 55.3724 73.3544 54.0094 71.6842 54.0094C70.0139 54.0094 68.6599 55.3724 68.6599 57.0536C68.6599 58.7349 70.0139 60.0979 71.6842 60.0979Z" fill="white"/>
<path d="M79.8263 60.0979C81.4965 60.0979 82.8505 58.7349 82.8505 57.0536C82.8505 55.3724 81.4965 54.0094 79.8263 54.0094C78.156 54.0094 76.802 55.3724 76.802 57.0536C76.802 58.7349 78.156 60.0979 79.8263 60.0979Z" fill="white"/>
<path opacity="0.2" d="M209.339 85.0841H91.0442V95.191H209.339V85.0841Z" fill="#27AE60"/>
<path opacity="0.1" d="M459.241 125.61H91.0442V281.081H459.241V125.61Z" fill="#5A5773"/>
<path opacity="0.1" d="M459.241 110.646H421.972V119.503H459.241V110.646Z" fill="#5A5773"/>
<path opacity="0.1" d="M402.18 212.188C402.146 212.819 402.057 213.446 401.915 214.061C401.915 213.888 401.915 213.79 401.877 213.776C401.738 213.738 401.905 213.022 402.18 212.188Z" fill="black"/>
<path opacity="0.1" d="M449.219 357.955C449.219 357.955 457.984 358.639 458.855 359.323C459.725 360.007 449.219 357.955 449.219 357.955Z" fill="black" stroke="#27AE60" stroke-miterlimit="10"/>
<path opacity="0.1" d="M397.029 351.019C397.029 351.019 398.89 353.361 398.099 354.438C397.308 355.515 397.029 351.019 397.029 351.019Z" fill="black" stroke="#27AE60" stroke-miterlimit="10"/>
<path opacity="0.1" d="M399.263 359.463C399.263 359.463 402.659 357.215 404.018 358.709C405.376 360.203 399.263 359.463 399.263 359.463Z" fill="black" stroke="#27AE60" stroke-miterlimit="10"/>
<path d="M266.6 110.529L212.629 143.97C212.629 143.97 212.629 212.943 266.6 250.564C320.571 212.943 320.571 143.97 320.571 143.97L266.6 110.529Z" fill="#3F3D56"/>
<path opacity="0.04" d="M267.057 110.529L266.135 111.101V249.912C266.441 250.13 266.748 250.348 267.057 250.564C321.037 212.943 321.037 143.97 321.037 143.97L267.057 110.529Z" fill="#27AE60"/>
<path d="M256.073 178.814L264.308 186.468L275.975 169.072L280.093 172.551L264.308 193.426L252.642 180.206L256.073 178.814Z" fill="#3AD29F"/>
<path d="M441.721 249.61C445.391 249.61 448.366 246.616 448.366 242.921C448.366 239.227 445.391 236.232 441.721 236.232C438.051 236.232 435.076 239.227 435.076 242.921C435.076 246.616 438.051 249.61 441.721 249.61Z" fill="#FF6584"/>
<path d="M494.106 315.735V239.574" stroke="#3F3D56" stroke-width="2" stroke-miterlimit="10"/>
<path d="M494.106 250.345C500.015 250.345 504.806 245.523 504.806 239.574C504.806 233.626 500.015 228.804 494.106 228.804C488.197 228.804 483.406 233.626 483.406 239.574C483.406 245.523 488.197 250.345 494.106 250.345Z" fill="#3F3D56"/>
<path d="M473.034 282.217C457.579 306.075 461.814 336.418 461.814 336.418C461.814 336.418 491.106 328.081 506.561 304.224C522.015 280.366 517.781 250.023 517.781 250.023C517.781 250.023 488.489 258.36 473.034 282.217Z" fill="#3F3D56"/>
<path d="M461.731 336.141C461.731 336.141 461.355 336.08 460.663 335.939C460.11 335.826 459.35 335.665 458.421 335.444C450.12 333.473 428.05 326.814 413.622 309.304C395.562 287.378 396.323 256.746 396.323 256.746C396.323 256.746 423.936 261.263 442.131 280.952C442.92 281.798 443.687 282.675 444.433 283.583C460.146 302.66 461.611 328.329 461.727 334.674C461.743 335.625 461.731 336.141 461.731 336.141Z" fill="#27AE60"/>
<path d="M450.593 282.217C466.048 306.075 461.814 336.418 461.814 336.418C461.814 336.418 432.522 328.081 417.067 304.224C401.612 280.366 405.846 250.023 405.846 250.023C405.846 250.023 435.138 258.36 450.593 282.217Z" stroke="#3F3D56" stroke-width="2" stroke-miterlimit="10"/>
<path opacity="0.1" d="M461.727 334.674C461.319 335.17 460.959 335.593 460.663 335.939C460.006 336.693 459.634 337.087 459.634 337.087C459.634 337.087 459.182 336.515 458.421 335.444C454.247 329.586 440.818 308.756 441.855 284.695C441.911 283.434 442.003 282.187 442.131 280.952C442.92 281.798 443.687 282.675 444.433 283.583C460.146 302.66 461.611 328.329 461.727 334.674Z" fill="black"/>
<path d="M484.643 286.435C483.421 314.89 462.437 337.088 462.437 337.088C462.437 337.088 443.434 313.151 444.655 284.696C445.877 256.241 466.861 234.043 466.861 234.043C466.861 234.043 485.865 257.98 484.643 286.435Z" fill="#27AE60"/>
<path d="M462.437 336.282L467.051 235.204" stroke="#3F3D56" stroke-width="2" stroke-miterlimit="10"/>
<path d="M22.1106 336.393H501.412" stroke="#3F3D56" stroke-width="2" stroke-miterlimit="10"/>
<path d="M123.908 213.125C137.278 213.125 148.116 202.215 148.116 188.757C148.116 175.299 137.278 164.389 123.908 164.389C110.538 164.389 99.7 175.299 99.7 188.757C99.7 202.215 110.538 213.125 123.908 213.125Z" fill="#27AE60"/>
<path d="M82.7605 270.474C96.1302 270.474 106.968 259.564 106.968 246.106C106.968 232.648 96.1302 221.739 82.7605 221.739C69.3908 221.739 58.5525 232.648 58.5525 246.106C58.5525 259.564 69.3908 270.474 82.7605 270.474Z" fill="#27AE60"/>
<path d="M32.1177 316.274C45.4874 316.274 56.3257 305.364 56.3257 291.906C56.3257 278.448 45.4874 267.538 32.1177 267.538C18.748 267.538 7.90967 278.448 7.90967 291.906C7.90967 305.364 18.748 316.274 32.1177 316.274Z" fill="#27AE60"/>
<path d="M32.0962 335.975V291.772" stroke="#3F3D56" stroke-width="2" stroke-miterlimit="10"/>
<path d="M32.0963 298.023C35.5259 298.023 38.3061 295.225 38.3061 291.772C38.3061 288.32 35.5259 285.522 32.0963 285.522C28.6667 285.522 25.8865 288.32 25.8865 291.772C25.8865 295.225 28.6667 298.023 32.0963 298.023Z" fill="#3F3D56"/>
<path d="M32.0962 319.015C32.0962 319.015 31.2091 299.809 13.0232 302.042Z" fill="#3F3D56"/>
<path d="M123.923 336.285V188.846" stroke="#3F3D56" stroke-width="2" stroke-miterlimit="10"/>
<path d="M123.923 195.027C127.353 195.027 130.133 192.229 130.133 188.776C130.133 185.324 127.353 182.526 123.923 182.526C120.494 182.526 117.713 185.324 117.713 188.776C117.713 192.229 120.494 195.027 123.923 195.027Z" fill="#3F3D56"/>
<path d="M104.85 301.7C108.28 301.7 111.06 298.901 111.06 295.449C111.06 291.997 108.28 289.198 104.85 289.198C101.42 289.198 98.6401 291.997 98.6401 295.449C98.6401 298.901 101.42 301.7 104.85 301.7Z" fill="#3F3D56"/>
<path d="M123.923 220.706C123.923 220.706 123.036 201.5 104.85 203.733Z" fill="#3F3D56"/>
<path d="M123.923 275.153C123.923 275.153 123.036 255.947 104.85 258.18Z" fill="#3F3D56"/>
<path d="M123.923 334.567C123.923 334.567 127.915 297.235 104.85 295.449" stroke="#3F3D56" stroke-width="2" stroke-miterlimit="10"/>
<path d="M142.999 301.7C146.428 301.7 149.209 298.901 149.209 295.449C149.209 291.997 146.428 289.198 142.999 289.198C139.569 289.198 136.789 291.997 136.789 295.449C136.789 298.901 139.569 301.7 142.999 301.7Z" fill="#3F3D56"/>
<path d="M123.926 334.567C123.926 334.567 119.934 297.235 142.999 295.449" stroke="#3F3D56" stroke-width="2" stroke-miterlimit="10"/>
<path d="M143.377 243.065C146.807 243.065 149.587 240.266 149.587 236.814C149.587 233.362 146.807 230.563 143.377 230.563C139.947 230.563 137.167 233.362 137.167 236.814C137.167 240.266 139.947 243.065 143.377 243.065Z" fill="#3F3D56"/>
<path d="M124.304 273.94C124.304 273.94 120.312 238.6 143.377 236.814" stroke="#3F3D56" stroke-width="2" stroke-miterlimit="10"/>
<path d="M82.7827 336.077V246.079" stroke="#3F3D56" stroke-width="2" stroke-miterlimit="10"/>
<path d="M82.7828 252.33C86.2124 252.33 88.9927 249.531 88.9927 246.079C88.9927 242.627 86.2124 239.828 82.7828 239.828C79.3532 239.828 76.573 242.627 76.573 246.079C76.573 249.531 79.3532 252.33 82.7828 252.33Z" fill="#3F3D56"/>
<path d="M82.7827 271.536C82.7827 271.536 81.8956 252.33 63.7097 254.562Z" fill="#3F3D56"/>
<path d="M82.7827 334.359C82.7827 334.359 86.7748 297.425 63.7097 295.639" stroke="#3F3D56" stroke-width="2" stroke-miterlimit="10"/>
<path d="M63.7096 301.89C67.1392 301.89 69.9194 299.092 69.9194 295.639C69.9194 292.187 67.1392 289.389 63.7096 289.389C60.28 289.389 57.4998 292.187 57.4998 295.639C57.4998 299.092 60.28 301.89 63.7096 301.89Z" fill="#3F3D56"/>
<path opacity="0.1" d="M315.883 315.162C302.875 321.116 286.122 320.694 286.122 320.694H267.993V317.209C275.381 315.133 285.595 313.85 296.887 313.85C303.242 313.828 309.59 314.266 315.883 315.162V315.162Z" fill="black"/>
<path opacity="0.1" d="M337.677 325.256C337.677 331.557 319.412 336.661 296.887 336.661C274.361 336.661 256.096 331.557 256.096 325.256C256.096 322.113 260.64 319.268 267.993 317.209V320.693H286.122C286.122 320.693 302.875 321.115 315.883 315.162C328.839 317.066 337.677 320.87 337.677 325.256Z" fill="black"/>
<path d="M302.097 254.239H284.741V271.74H302.097V254.239Z" fill="#2F2E41"/>
<path d="M291.195 266.615C291.195 266.615 292.632 271.676 290.118 272.038C288.557 272.283 287.079 272.903 285.808 273.846L290.477 279.991H299.096L304.483 274.569C304.483 274.569 297.301 269.146 298.737 265.892C300.174 262.639 291.195 266.615 291.195 266.615Z" fill="#FFB9B9"/>
<path opacity="0.1" d="M291.195 266.615C291.195 266.615 292.632 271.676 290.118 272.038C288.557 272.283 287.079 272.903 285.808 273.846L290.477 279.991H299.096L304.483 274.569C304.483 274.569 297.301 269.146 298.737 265.892C300.174 262.639 291.195 266.615 291.195 266.615Z" fill="black"/>
<path d="M293.35 329.52L301.611 332.411L307.356 332.773L306.997 327.712L295.146 324.183L293.35 329.52Z" fill="#FFB9B9"/>
<path d="M303.945 328.435C303.945 328.435 303.945 333.496 304.663 333.496C305.381 333.496 315.078 332.412 317.951 333.496C320.825 334.581 325.134 330.604 322.979 328.435C320.824 326.266 317.31 323.012 315.116 323.735C312.923 324.458 303.945 326.266 303.945 326.266L303.945 328.435Z" fill="#2F2E41"/>
<path d="M277.547 323.735C277.547 323.735 273.238 332.412 276.111 333.135C278.984 333.858 282.216 332.773 282.575 332.412C282.935 332.05 287.963 330.604 288.681 331.327C289.399 332.05 289.399 328.435 289.399 328.435L277.547 323.735Z" fill="#2F2E41"/>
<path d="M281.139 311.805C281.139 311.805 274.315 321.205 279.343 323.735C284.371 326.266 308.434 326.266 310.23 323.735C312.025 321.205 312.744 313.251 310.23 312.528C307.716 311.805 281.139 311.805 281.139 311.805Z" fill="#2F2E41"/>
<path opacity="0.2" d="M281.139 311.805C281.139 311.805 274.315 321.205 279.343 323.735C284.371 326.266 308.434 326.266 310.23 323.735C312.025 321.205 312.744 313.251 310.23 312.528C307.716 311.805 281.139 311.805 281.139 311.805Z" fill="black"/>
<path d="M294.068 269.146C298.63 269.146 302.328 265.423 302.328 260.831C302.328 256.239 298.63 252.516 294.068 252.516C289.506 252.516 285.808 256.239 285.808 260.831C285.808 265.423 289.506 269.146 294.068 269.146Z" fill="#FFB9B9"/>
<path d="M281.139 273.846L288.322 272.4C288.322 272.4 290.117 278.184 295.864 277.099C301.61 276.015 303.047 272.4 303.047 272.4C303.047 272.4 307.356 274.207 307.715 274.207C308.075 274.207 312.744 276.015 312.744 277.099C312.744 278.184 307.356 289.029 307.356 289.029L308.075 308.551L281.498 307.828L283.294 288.668L281.139 273.846Z" fill="#27AE60"/>
<path d="M277.188 283.245C277.188 283.245 275.034 302.406 276.47 303.852C277.907 305.298 283.653 309.275 283.653 309.275V304.936L280.78 299.514L283.653 286.86L277.188 283.245Z" fill="#FFB9B9"/>
<path d="M314.36 282.703C314.36 282.703 313.103 302.406 313.103 303.129C313.103 303.852 309.87 306.382 308.793 306.382C307.716 306.382 306.997 304.575 306.997 304.575L309.511 301.683L307.716 286.86L314.36 282.703Z" fill="#FFB9B9"/>
<path d="M310.948 310.359C310.948 310.359 327.109 301.321 327.469 310.359C327.828 319.397 319.208 323.012 319.208 323.012C319.208 323.012 296.941 329.733 296.043 327.277C295.146 324.82 293.35 320.843 294.786 320.482C296.223 320.12 298.019 319.397 298.737 320.12C299.455 320.843 308.434 314.697 308.434 314.697L310.948 310.359Z" fill="#2F2E41"/>
<path opacity="0.2" d="M318.49 309.275C318.49 309.275 315.258 310.721 314.18 311.805C313.103 312.89 308.434 314.697 308.434 314.697" stroke="black" stroke-width="2" stroke-miterlimit="10"/>
<path d="M283.294 274.569L281.139 273.846C281.139 273.846 273.238 282.161 275.752 284.33C278.266 286.499 279.702 287.222 280.421 287.945C281.139 288.668 284.73 289.029 284.73 289.029L283.294 274.569Z" fill="#27AE60"/>
<path d="M309.511 276.376L312.744 277.099C312.744 277.099 315.258 282.522 315.976 283.245C316.694 283.968 314.899 283.607 313.821 285.053C312.744 286.499 311.666 289.029 309.511 289.029C307.357 289.029 304.483 285.414 304.483 285.414L309.511 276.376Z" fill="#27AE60"/>
<path d="M281.857 313.613C281.857 313.613 268.21 303.852 263.541 311.082C258.872 318.312 283.653 328.073 287.244 329.52C290.836 330.966 294.068 332.412 294.068 332.412C294.068 332.412 297.3 324.458 297.3 323.012C297.3 321.566 294.786 321.566 294.068 321.566C293.35 321.566 290.117 320.843 289.399 319.759C288.681 318.674 281.857 313.613 281.857 313.613Z" fill="#2F2E41"/>
<path opacity="0.2" d="M274.315 311.082C274.315 311.082 277.906 313.974 281.139 314.697C284.371 315.42 285.448 317.228 285.448 317.228" stroke="black" stroke-width="2" stroke-miterlimit="10"/>
<path d="M279.379 297.489L279.666 312.796C279.676 313.302 279.884 313.783 280.244 314.135C280.605 314.487 281.089 314.682 281.591 314.676L309.889 314.356C310.372 314.351 310.834 314.161 311.182 313.826C311.531 313.491 311.741 313.035 311.768 312.55L312.627 297.563C312.642 297.303 312.604 297.042 312.515 296.797C312.427 296.552 312.289 296.327 312.111 296.138C311.933 295.948 311.719 295.797 311.481 295.693C311.243 295.59 310.986 295.537 310.727 295.537H281.283C281.03 295.537 280.779 295.588 280.546 295.686C280.313 295.785 280.101 295.929 279.924 296.111C279.747 296.293 279.607 296.508 279.514 296.745C279.42 296.982 279.375 297.235 279.379 297.489V297.489Z" fill="#575A89"/>
<path d="M276.106 273.937C276.877 272.225 277.913 270.618 278.406 268.805C278.998 266.633 278.768 264.334 278.697 262.082C278.585 260.091 278.753 258.093 279.198 256.15C279.649 254.197 280.663 252.421 282.111 251.044C285.875 247.662 292.763 247.419 297.359 248.827C299.171 249.382 301.101 250.439 301.55 252.291C301.618 252.571 301.648 252.859 301.724 253.136C302.1 254.515 303.501 255.388 304.007 256.724C304.661 258.452 303.653 260.332 303.521 262.177C303.367 264.33 304.419 266.365 305.455 268.255C306.072 269.379 306.712 270.576 306.651 271.858C306.6 272.56 306.388 273.239 306.032 273.844C305.372 274.941 304.445 275.851 303.34 276.489C302.234 277.127 300.986 277.472 299.712 277.491C298.884 277.558 298.056 277.361 297.345 276.929C296.223 276.151 295.895 274.586 296.128 273.236C296.362 271.885 297.043 270.664 297.576 269.403C297.74 269.016 297.888 268.622 298.024 268.224C299.679 267.295 300.954 265.806 301.624 264.022C302.294 262.238 302.317 260.273 301.687 258.474C301.058 256.675 299.817 255.157 298.184 254.19C296.551 253.222 294.631 252.866 292.763 253.185C290.895 253.504 289.198 254.477 287.974 255.933C286.749 257.389 286.075 259.233 286.07 261.14C286.066 263.048 286.73 264.896 287.948 266.357C289.165 267.819 290.856 268.801 292.723 269.13C293.125 271.17 292.942 273.283 292.196 275.223C291.517 276.801 290.664 278.297 289.654 279.684C289.241 280.395 288.69 281.015 288.034 281.508C287.602 281.766 287.139 281.965 286.655 282.102C284.626 282.758 282.49 283.287 280.38 282.991C278.269 282.696 276.179 281.414 275.46 279.395C274.829 277.626 275.336 275.649 276.106 273.937Z" fill="#2F2E41"/>
<path d="M293.668 261.163C298.509 261.163 302.434 258.924 302.434 256.162C302.434 253.401 298.509 251.162 293.668 251.162C288.826 251.162 284.902 253.401 284.902 256.162C284.902 258.924 288.826 261.163 293.668 261.163Z" fill="#2F2E41"/>
</g>
<defs>
<linearGradient id="paint0_linear" x1="275.115" y1="302.588" x2="275.115" y2="50.4641" gradientUnits="userSpaceOnUse">
<stop stop-color="#808080" stop-opacity="0.25"/>
<stop offset="0.54" stop-color="#808080" stop-opacity="0.12"/>
<stop offset="1" stop-color="#808080" stop-opacity="0.1"/>
</linearGradient>
<clipPath id="clip0">
<rect width="533" height="384" fill="white"/>
</clipPath>
</defs>
</svg>
