<svg width="330" height="296" viewBox="0 0 330 296" fill="none" xmlns="http://www.w3.org/2000/svg">
<g clip-path="url(#clip0)">
<path d="M40.2463 230.574L36.5607 215.992C30.0254 213.214 23.3392 210.808 16.5338 208.785L16.0684 215.562L14.1814 208.096C5.7416 205.678 0 204.613 0 204.613C0 204.613 7.75557 234.197 24.0223 256.814L42.9767 260.154L28.2516 262.284C30.2986 264.754 32.4985 267.093 34.8383 269.286C58.5018 291.319 84.8585 301.428 93.7077 291.865C102.557 282.302 90.5474 256.688 66.8839 234.655C59.5479 227.824 50.3325 222.343 41.1078 218.029L40.2463 230.574Z" fill="#E6E6E6"/>
<path d="M75.2999 214.738L79.659 200.344C75.4961 194.577 71.0124 189.051 66.229 183.79L62.3385 189.35L64.5704 181.981C58.5913 175.535 54.2249 171.646 54.2249 171.646C54.2249 171.646 45.6196 200.993 47.89 228.789L62.3948 241.476L48.692 235.664C49.1715 238.84 49.8497 241.983 50.7225 245.073C59.6259 276.204 76.9793 298.524 89.4825 294.926C101.986 291.328 104.904 263.174 96.0004 232.043C93.2402 222.392 88.1759 212.921 82.5022 204.445L75.2999 214.738Z" fill="#E6E6E6"/>
<path d="M229.792 273.614L232.534 270.643C232.202 268.756 231.764 266.888 231.223 265.051L229.629 265.938L231.033 264.417C230.341 262.151 229.739 260.694 229.739 260.694C229.739 260.694 224.216 266.785 221.508 273.784L223.533 278.566L220.896 275.543C220.64 276.368 220.436 277.209 220.285 278.061C218.792 286.649 220.378 294.1 223.827 294.703C227.277 295.307 231.283 288.834 232.776 280.246C233.186 277.502 233.175 274.711 232.742 271.971L229.792 273.614Z" fill="#E6E6E6"/>
<path d="M270.366 279.49L274.245 278.369C274.933 276.581 275.52 274.756 276.004 272.901L274.182 272.835L276.168 272.261C276.743 269.962 276.979 268.403 276.979 268.403C276.979 268.403 269.112 270.753 263.187 275.34L262.456 280.484L261.757 276.529C261.112 277.103 260.504 277.717 259.937 278.367C254.233 284.945 251.751 292.146 254.393 294.451C257.035 296.756 263.8 293.292 269.503 286.714C271.268 284.578 272.697 282.184 273.738 279.614L270.366 279.49Z" fill="#E6E6E6"/>
<path d="M214.955 20.0827V274.66C214.954 279.985 212.844 285.093 209.09 288.859C205.336 292.625 200.244 294.741 194.934 294.742H96.3102C90.9995 294.743 85.906 292.628 82.15 288.861C78.394 285.095 76.283 279.987 76.2815 274.66V20.0827C76.283 14.7555 78.394 9.64699 82.15 5.88084C85.906 2.1147 90.9995 -0.000671684 96.3102 1.59985e-07H108.274C107.687 1.44917 107.463 3.02089 107.623 4.57703C107.783 6.13317 108.321 7.62608 109.191 8.92454C110.061 10.223 111.236 11.2872 112.611 12.0238C113.987 12.7603 115.522 13.1465 117.082 13.1484H173.311C174.871 13.1465 176.406 12.7603 177.782 12.0238C179.158 11.2873 180.332 10.223 181.202 8.92457C182.072 7.6261 182.61 6.13319 182.77 4.57704C182.93 3.0209 182.707 1.44917 182.119 6.50557e-06H194.934C200.244 0.00108368 205.335 2.11728 209.09 5.88329C212.844 9.64929 214.954 14.7568 214.955 20.0827Z" fill="#3F3D56"/>
<path fill-rule="evenodd" clip-rule="evenodd" d="M188.95 119.12V93.2164H163.325L145.456 75.0883L127.587 92.9589H101.708V118.862L83.5854 136.987L101.964 155.116V181.019H127.593L145.462 199.147L163.325 181.019H189.207V155.373L207.335 137.245L188.95 119.12ZM99.3923 142.427L95.2497 138.281C95.0945 138.129 94.9712 137.948 94.887 137.747C94.8028 137.547 94.7594 137.332 94.7594 137.115C94.7594 136.897 94.8028 136.682 94.887 136.482C94.9712 136.281 95.0945 136.1 95.2497 135.948L99.6489 131.544C99.7738 131.428 99.933 131.356 100.102 131.339C100.272 131.321 100.442 131.359 100.588 131.448C100.734 131.536 100.847 131.669 100.911 131.828C100.975 131.986 100.985 132.161 100.941 132.326L101.198 141.649C101.198 142.685 100.162 142.945 99.3923 142.427ZM173.684 100.728H179.639C180.411 100.728 181.447 101.249 181.184 102.279V108.482C181.184 109.26 180.149 109.521 179.889 109L173.156 102.266C173.006 102.161 172.893 102.009 172.836 101.834C172.779 101.66 172.779 101.471 172.838 101.296C172.896 101.122 173.009 100.971 173.16 100.866C173.311 100.762 173.492 100.709 173.675 100.716L173.684 100.728ZM140.54 91.1477L144.683 87.0041C145.462 86.4862 146.495 86.2287 147.011 87.0041L151.41 91.1477C151.528 91.289 151.601 91.4616 151.623 91.6444C151.644 91.8272 151.611 92.0122 151.529 92.1768C151.447 92.3414 151.319 92.4784 151.161 92.571C151.002 92.6637 150.82 92.708 150.637 92.6984H141.319C141.133 92.717 140.945 92.6786 140.781 92.588C140.617 92.4975 140.484 92.3592 140.399 92.1913C140.315 92.0234 140.283 91.8338 140.308 91.6475C140.334 91.4612 140.414 91.287 140.54 91.1477ZM108.954 108.24V102.539C109.211 101.507 109.733 100.728 110.766 100.728H116.72C116.907 100.71 117.094 100.748 117.259 100.838C117.423 100.929 117.556 101.067 117.64 101.235C117.725 101.403 117.756 101.593 117.731 101.779C117.706 101.965 117.625 102.14 117.499 102.279L110.769 109.003C110.609 109.121 110.421 109.195 110.223 109.218C110.026 109.241 109.826 109.212 109.643 109.134C109.46 109.055 109.3 108.931 109.18 108.772C109.06 108.613 108.983 108.425 108.957 108.227L108.954 108.24ZM117.24 173.765H111.285C111.08 173.773 110.875 173.739 110.684 173.664C110.493 173.589 110.319 173.475 110.174 173.329C110.029 173.183 109.915 173.009 109.84 172.817C109.766 172.625 109.731 172.42 109.74 172.214L109.483 166.259C109.466 166.073 109.505 165.885 109.596 165.721C109.687 165.558 109.825 165.425 109.992 165.341C110.159 165.258 110.347 165.226 110.532 165.252C110.717 165.277 110.89 165.358 111.029 165.484L118.016 172.214C118.532 172.732 118.016 173.765 117.24 173.765ZM150.628 182.833L146.485 186.98C146.349 187.161 146.173 187.308 145.97 187.409C145.768 187.51 145.544 187.563 145.318 187.563C145.092 187.563 144.869 187.51 144.666 187.409C144.464 187.308 144.288 187.161 144.151 186.98L139.764 182.818C139.651 182.695 139.572 182.544 139.537 182.38C139.501 182.216 139.511 182.046 139.564 181.887C139.617 181.729 139.712 181.587 139.839 181.478C139.965 181.369 140.119 181.296 140.284 181.267H149.867C150.054 181.249 150.241 181.288 150.405 181.379C150.568 181.47 150.701 181.608 150.785 181.776C150.869 181.944 150.9 182.133 150.875 182.319C150.85 182.505 150.769 182.679 150.643 182.818L150.628 182.833ZM155.29 172.471H134.577C133.226 172.652 131.852 172.486 130.584 171.988C129.315 171.49 128.193 170.676 127.324 169.624L112.321 154.594C111.183 153.618 110.303 152.374 109.761 150.973C109.219 149.573 109.031 148.059 109.214 146.568V126.098C109.189 124.762 109.428 123.433 109.917 122.19C110.407 120.946 111.136 119.812 112.064 118.853L127.859 103.036C128.721 102.225 129.74 101.6 130.852 101.2C131.965 100.8 133.147 100.633 134.326 100.71H155.553C156.841 100.519 158.156 100.656 159.377 101.109C160.599 101.561 161.687 102.315 162.543 103.299L177.821 118.58C178.823 119.441 179.621 120.515 180.156 121.724C180.69 122.934 180.949 124.248 180.912 125.571V147.846C181.093 149.148 180.898 150.474 180.35 151.668C179.802 152.862 178.924 153.873 177.821 154.582L163.322 169.348C162.31 170.451 161.059 171.305 159.665 171.843C158.27 172.381 156.771 172.588 155.284 172.45L155.29 172.471ZM181.432 171.435C181.178 172.208 180.656 173.247 179.623 173.247H173.675C173.489 173.264 173.302 173.224 173.139 173.133C172.976 173.042 172.844 172.904 172.76 172.736C172.677 172.569 172.646 172.38 172.671 172.194C172.696 172.009 172.777 171.835 172.902 171.696L179.632 164.96C179.756 164.798 179.925 164.677 180.118 164.614C180.311 164.55 180.518 164.546 180.714 164.602C180.909 164.658 181.083 164.772 181.212 164.929C181.342 165.086 181.422 165.278 181.441 165.481V171.439L181.432 171.435ZM190.756 142.431C190.243 142.945 189.21 142.431 189.457 141.909V132.326C189.198 131.287 190.496 131.029 191.003 131.544L195.146 135.691C195.659 136.466 195.919 137.502 195.146 138.017L190.743 142.424L190.756 142.431ZM172.37 152.275L146.229 106.429C145.193 104.611 143.638 104.611 142.346 106.429L116.974 152.02C116.454 153.314 116.974 154.864 119.305 154.864H170.315C172.126 154.864 173.159 154.089 172.383 152.278L172.37 152.275ZM165.39 149.421H128.116C127.828 149.459 127.535 149.416 127.27 149.296C127.005 149.176 126.779 148.985 126.617 148.743C126.455 148.501 126.363 148.219 126.352 147.928C126.341 147.637 126.411 147.348 126.554 147.095L145.202 113.94C145.975 112.644 147.274 112.901 148.053 113.94L166.945 147.349C167.461 148.646 166.688 149.418 165.399 149.418L165.39 149.421ZM162.796 144.245L149.076 119.641C148.967 119.464 148.814 119.318 148.633 119.217C148.452 119.115 148.248 119.062 148.04 119.062C147.833 119.062 147.629 119.115 147.448 119.217C147.266 119.318 147.114 119.464 147.005 119.641L133.288 143.984C133.208 144.17 133.173 144.372 133.185 144.573C133.197 144.775 133.256 144.971 133.356 145.146C133.457 145.321 133.596 145.471 133.764 145.582C133.932 145.694 134.123 145.765 134.323 145.789H161.767C162.802 145.532 163.312 145.275 162.802 144.239L162.796 144.245ZM142.612 139.838C142.092 139.838 141.836 139.577 142.092 139.062L149.085 126.638C149.605 126.117 149.864 126.117 150.118 126.638L157.37 139.062C157.63 139.58 157.37 139.838 156.851 139.838H142.612Z" fill="#45435E"/>
<path d="M131.721 105.438C131.721 103.694 132.179 101.981 133.048 100.471C133.917 98.9604 135.168 97.7065 136.674 96.835C135.168 95.9624 133.46 95.5028 131.721 95.5024C129.982 95.5021 128.274 95.9609 126.768 96.8329C125.262 97.7049 124.011 98.9592 123.141 100.47C122.272 101.98 121.814 103.694 121.814 105.438C121.814 107.183 122.272 108.896 123.141 110.407C124.011 111.918 125.262 113.172 126.768 114.044C128.274 114.916 129.982 115.375 131.721 115.374C133.46 115.374 135.168 114.914 136.674 114.042C135.168 113.17 133.917 111.916 133.048 110.406C132.179 108.896 131.721 107.182 131.721 105.438Z" fill="white"/>
<path d="M144.174 105.438C144.173 103.694 144.631 101.981 145.5 100.471C146.37 98.9604 147.62 97.7065 149.126 96.835C147.62 95.9624 145.912 95.5028 144.173 95.5024C142.434 95.5021 140.726 95.9609 139.22 96.8329C137.714 97.7049 136.463 98.9592 135.594 100.47C134.724 101.98 134.266 103.694 134.266 105.438C134.266 107.183 134.724 108.896 135.594 110.407C136.463 111.918 137.714 113.172 139.22 114.044C140.726 114.916 142.434 115.375 144.173 115.374C145.912 115.374 147.62 114.914 149.126 114.042C147.62 113.17 146.37 111.916 145.5 110.406C144.631 108.896 144.173 107.182 144.174 105.438Z" fill="white"/>
<path d="M156.343 115.374C161.813 115.374 166.248 110.926 166.248 105.438C166.248 99.9509 161.813 95.5024 156.343 95.5024C150.872 95.5024 146.438 99.9509 146.438 105.438C146.438 110.926 150.872 115.374 156.343 115.374Z" fill="#27AE60"/>
<path d="M189.932 170.464H101.394V171.296H189.932V170.464Z" fill="white"/>
<path d="M104.19 165.271C105.734 165.271 106.986 164.015 106.986 162.466C106.986 160.917 105.734 159.662 104.19 159.662C102.646 159.662 101.394 160.917 101.394 162.466C101.394 164.015 102.646 165.271 104.19 165.271Z" fill="#27AE60"/>
<path d="M189.932 198.511H101.394V199.343H189.932V198.511Z" fill="white"/>
<path d="M104.19 193.317C105.734 193.317 106.986 192.062 106.986 190.513C106.986 188.964 105.734 187.708 104.19 187.708C102.646 187.708 101.394 188.964 101.394 190.513C101.394 192.062 102.646 193.317 104.19 193.317Z" fill="#27AE60"/>
<path d="M172.896 136.472H115.168C114.618 136.471 114.091 136.252 113.703 135.862C113.314 135.472 113.096 134.944 113.095 134.392V76.4846C113.096 75.9333 113.314 75.4048 113.703 75.015C114.091 74.6252 114.618 74.4059 115.168 74.4053H172.896C173.445 74.4059 173.972 74.6252 174.361 75.015C174.75 75.4048 174.968 75.9333 174.969 76.4846V134.392C174.968 134.944 174.75 135.472 174.361 135.862C173.972 136.252 173.445 136.471 172.896 136.472ZM115.168 75.237C114.838 75.2374 114.522 75.3689 114.289 75.6028C114.056 75.8367 113.924 76.1538 113.924 76.4846V134.392C113.924 134.723 114.056 135.04 114.289 135.274C114.522 135.508 114.838 135.64 115.168 135.64H172.896C173.226 135.64 173.542 135.508 173.775 135.274C174.008 135.04 174.139 134.723 174.14 134.392V76.4846C174.139 76.1538 174.008 75.8367 173.775 75.6028C173.542 75.3689 173.226 75.2374 172.896 75.237H115.168Z" fill="white"/>
<path d="M188.274 217.157H160.369C159.453 217.157 158.711 217.902 158.711 218.82V228.582C158.711 229.5 159.453 230.245 160.369 230.245H188.274C189.19 230.245 189.932 229.5 189.932 228.582V218.82C189.932 217.902 189.19 217.157 188.274 217.157Z" fill="#27AE60"/>
<path d="M330 294.335H0.32959V295.167H330V294.335Z" fill="#3F3D56"/>
</g>
<defs>
<clipPath id="clip0">
<rect width="330" height="296" fill="white"/>
</clipPath>
</defs>
</svg>
