<svg width="392" height="288" viewBox="0 0 392 288" fill="none" xmlns="http://www.w3.org/2000/svg">
<g clip-path="url(#clip0)">
<path opacity="0.1" d="M28.3492 115.572C36.5984 134.218 26.0732 155.696 13.7035 171.886C9.55515 177.305 4.99517 182.977 4.4133 189.799C3.72059 198.118 9.34932 205.767 16.031 210.766C28.2107 219.877 44.8515 222.694 59.3468 218.098C71.8749 214.137 82.408 205.157 95.0429 201.536C116.188 195.479 138.584 205.521 156.678 218.027C169.483 226.877 183.199 237.636 198.636 235.746C209.506 234.415 218.728 226.782 224.983 217.79C228.003 213.432 230.631 208.587 235.033 205.656C237.649 203.913 240.721 202.99 243.796 202.332C271.861 196.331 301.639 210.98 329.332 203.446C348.035 198.355 362.95 183.56 372.22 166.53C381.49 149.5 385.821 130.264 389.427 111.206C391.988 97.6624 394.114 83.0491 388.239 70.5868C382.009 57.4035 367.589 49.4135 353.097 47.9201C338.606 46.4267 324.067 50.5663 310.716 56.4052C294.031 63.706 277.68 73.9262 259.467 73.9618C247.066 73.9856 235.243 69.2082 223.383 65.5916C203.521 59.5188 182.937 56.5003 162.382 53.7155C142.713 51.0495 122.854 48.5658 103.066 50.1503C89.0659 51.2635 76.704 56.6192 63.1191 59.095C54.2643 60.7112 45.366 59.4911 36.6775 62.2284C25.9901 65.5757 14.9701 73.3439 14.3803 85.5645C13.8222 97.1831 23.9713 105.672 28.3492 115.572Z" fill="#27AE60"/>
<g opacity="0.5">
<path opacity="0.5" d="M276.247 72.5556C274.268 73.126 271.81 74.5996 270.606 78.6442C268.231 86.5668 273.725 91.9859 271.924 100.214C271.432 102.401 270.488 104.461 269.154 106.262C266.949 109.253 264.55 110.671 262.23 112.767C259.282 115.443 257.169 118.916 256.147 122.765C255.026 127.015 254.932 131.47 255.873 135.762C256.701 139.351 258.11 141.962 259.337 144.874C260.865 148.589 262.057 152.433 262.899 156.361C263.367 158.27 263.633 160.224 263.691 162.188C263.731 164.656 263.347 167.338 262.971 169.984L259.618 193.4C259.171 196.517 258.719 199.686 258.704 202.653C258.68 206.08 259.23 209.023 259.776 211.895C260.964 218.091 262.219 224.52 264.922 227.788C267.626 231.056 272.209 229.923 275.032 223.252C277.715 216.914 277.771 208.437 280.138 201.655C283.867 190.96 291.285 189.533 295.397 179.341C299.356 169.564 298.136 157.554 300.147 146.414C301.58 138.424 304.632 131.136 306.441 123.241C309.042 111.868 308.784 100.063 306.706 91.3243C304.628 82.5857 300.899 76.5843 296.783 72.0327C295.037 70.1035 293.173 68.3883 290.98 68.2179C288.648 68.0397 286.626 70.9909 284.31 71.8584C281.626 72.8606 278.95 71.7871 276.247 72.5556Z" fill="#27AE60"/>
<path opacity="0.5" d="M288.87 68.7722C288.87 68.7722 284.912 169.897 268.314 229.531" stroke="#535461" stroke-width="2" stroke-miterlimit="10"/>
<path opacity="0.5" d="M270.504 79.1394C270.504 79.1394 288.229 95.3055 284.884 126.109" stroke="#535461" stroke-width="2" stroke-miterlimit="10"/>
<path opacity="0.5" d="M255.611 125.138C255.611 125.138 284.745 131.001 282.583 148.439" stroke="#535461" stroke-width="2" stroke-miterlimit="10"/>
<path opacity="0.5" d="M306.741 91.083C306.741 91.083 294.958 101.41 284.452 130.661" stroke="#535461" stroke-width="2" stroke-miterlimit="10"/>
<path opacity="0.5" d="M295.219 179.488C295.219 179.488 287.176 185.826 280.72 163.718" stroke="#535461" stroke-width="2" stroke-miterlimit="10"/>
<path opacity="0.5" d="M260.521 192.382C260.521 192.382 276.924 190.238 278.436 179.955" stroke="#535461" stroke-width="2" stroke-miterlimit="10"/>
</g>
<path d="M315.897 4.72986C311.836 5.33198 306.952 7.21361 304.945 13.0249C301.006 24.4176 312.984 33.0414 310.225 44.9452C309.398 48.5104 307.359 51.4101 305.21 53.5254C300.998 57.669 296.205 59.4674 291.653 62.28C287.101 65.0925 282.374 69.5054 280.241 76.2832C278.187 82.8036 279.077 90.0092 281.211 95.3927C283.344 100.776 286.574 104.789 289.46 109.218C292.974 114.67 295.912 120.473 298.228 126.533C299.261 129.199 300.207 132.011 300.543 135.204C300.915 138.844 300.444 142.762 299.977 146.597L295.813 180.664C295.259 185.2 294.701 189.815 295.021 194.184C295.381 199.227 296.87 203.624 298.338 207.918C301.505 217.18 304.893 226.802 310.858 231.931C316.824 237.061 326.197 235.94 331.24 226.449C336.041 217.413 335.159 204.955 339.252 195.25C345.704 179.955 360.884 178.719 368.187 164.201C375.197 150.273 371.274 132.455 374.089 116.269C376.107 104.67 381.566 94.3033 384.38 82.8907C388.418 66.4473 386.49 49.0373 381.146 35.9213C375.803 22.8054 367.379 13.524 358.323 6.3342C354.483 3.28794 350.406 0.534826 345.862 0.0277767C341.017 -0.510963 337.154 3.5692 332.487 4.59518C327.064 5.81131 321.403 3.91383 315.897 4.72986Z" fill="#27AE60"/>
<path d="M341.571 0.649658C341.571 0.649658 345.391 149.104 318.074 234.95" stroke="#535461" stroke-width="2" stroke-miterlimit="10"/>
<path d="M304.786 13.7378C304.786 13.7378 343.427 39.6528 340.118 84.6138" stroke="#535461" stroke-width="2" stroke-miterlimit="10"/>
<path d="M279.422 79.7136C279.422 79.7136 340.412 91.8036 338.005 117.223" stroke="#535461" stroke-width="2" stroke-miterlimit="10"/>
<path d="M381.201 35.6279C381.201 35.6279 358.021 49.4371 339.762 91.2647" stroke="#535461" stroke-width="2" stroke-miterlimit="10"/>
<path d="M367.83 164.446C367.83 164.446 351.934 172.821 335.954 139.49" stroke="#535461" stroke-width="2" stroke-miterlimit="10"/>
<path d="M297.52 179.321C297.52 179.321 331.217 178.109 333.144 163.151" stroke="#535461" stroke-width="2" stroke-miterlimit="10"/>
<path opacity="0.1" d="M193.249 247.895C286.743 247.895 362.534 240.61 362.534 231.622C362.534 222.635 286.743 215.349 193.249 215.349C99.7555 215.349 23.9639 222.635 23.9639 231.622C23.9639 240.61 99.7555 247.895 193.249 247.895Z" fill="#27AE60"/>
<path d="M26.6198 212.252C26.6198 212.252 29.9369 216.609 25.088 223.145C20.239 229.682 16.2411 235.235 17.8759 239.319C17.8759 239.319 25.1909 227.146 31.1442 226.976C37.0975 226.806 33.1708 219.572 26.6198 212.252Z" fill="#27AE60"/>
<path opacity="0.1" d="M26.6195 212.252C26.9086 212.672 27.1365 213.13 27.2964 213.614C33.1072 220.444 36.1986 226.817 30.6174 226.98C25.4162 227.13 19.1779 236.436 17.6816 238.789C17.731 238.97 17.7905 239.149 17.8598 239.323C17.8598 239.323 25.1747 227.15 31.128 226.98C37.0814 226.81 33.1705 219.572 26.6195 212.252Z" fill="black"/>
<path d="M32.7868 217.786C32.7868 219.315 32.6166 220.559 32.391 220.559C32.1653 220.559 31.9951 219.319 31.9951 217.786C31.9951 216.253 32.2089 216.993 32.4187 216.993C32.6285 216.993 32.7868 216.257 32.7868 217.786Z" fill="#FFD037"/>
<path d="M34.8965 219.608C33.5547 220.341 32.387 220.796 32.288 220.594C32.189 220.392 33.1905 219.663 34.5324 218.934C35.8742 218.206 35.3438 218.736 35.4467 218.934C35.5496 219.132 36.2423 218.871 34.8965 219.608Z" fill="#FFD037"/>
<path d="M9.09537 212.252C9.09537 212.252 5.7783 216.609 10.6272 223.145C15.4762 229.682 19.4582 235.235 17.8749 239.319C17.8749 239.319 10.5599 227.146 4.60664 226.976C-1.34667 226.806 2.54831 219.572 9.09537 212.252Z" fill="#27AE60"/>
<path opacity="0.1" d="M9.09603 212.252C8.80697 212.672 8.57907 213.13 8.41916 213.614C2.60835 220.444 -0.4831 226.817 5.09813 226.98C10.2994 227.13 16.5377 236.436 18.0339 238.789C17.9845 238.97 17.9251 239.149 17.8558 239.323C17.8558 239.323 10.5408 227.15 4.5875 226.98C-1.36581 226.81 2.54897 219.572 9.09603 212.252Z" fill="black"/>
<path d="M2.93359 217.786C2.93359 219.315 3.1038 220.559 3.32943 220.559C3.55505 220.559 3.72526 219.319 3.72526 217.786C3.72526 216.253 3.51151 216.993 3.30172 216.993C3.09193 216.993 2.93359 216.257 2.93359 217.786Z" fill="#FFD037"/>
<path d="M0.815179 219.608C2.15705 220.341 3.32475 220.796 3.42371 220.594C3.52267 220.392 2.52121 219.663 1.17934 218.934C-0.162526 218.206 0.36789 218.736 0.264974 218.934C0.162057 219.132 -0.52669 218.871 0.815179 219.608Z" fill="#FFD037"/>
<path d="M3.98633 238.753C3.98633 238.753 13.2607 238.468 16.0552 236.475C18.8498 234.483 30.3052 232.118 31.0137 235.287C31.7223 238.456 44.9509 251.176 34.4812 251.259C24.0114 251.342 10.1534 249.627 7.36277 247.927C4.57216 246.228 3.98633 238.753 3.98633 238.753Z" fill="#A8A8A8"/>
<path opacity="0.2" d="M34.6702 250.165C24.2004 250.249 10.3424 248.533 7.55174 246.834C5.42613 245.539 4.57905 240.892 4.29801 238.749H3.98926C3.98926 238.749 4.57509 246.236 7.3657 247.935C10.1563 249.635 24.0144 251.354 34.5 251.271C37.5241 251.247 38.5652 250.169 38.5097 248.577C38.0624 249.539 36.9185 250.142 34.6702 250.165Z" fill="black"/>
<path d="M124.699 178.636C124.699 178.636 171.11 148.961 203.197 148.961C203.197 148.961 241.826 142.94 283.843 153.117C325.861 163.293 341.381 176.489 353.031 172.614L304.09 174.048L124.699 178.636Z" fill="#8CD0F3"/>
<path opacity="0.1" d="M124.699 178.636C124.699 178.636 171.11 148.961 203.197 148.961C203.197 148.961 241.826 142.94 283.843 153.117C325.861 163.293 341.381 176.489 353.031 172.614L304.09 174.048L124.699 178.636Z" fill="#8CD0F3"/>
<path d="M343.455 224.052H60.4033L68.1854 192.849L116.318 180.042L343.455 186.016V224.052Z" fill="#121C3F"/>
<path d="M358.355 204.554V214.513C358.355 214.513 349.951 220.614 349.187 225.391C349.187 225.391 337.154 228.449 333.718 228.449C333.406 228.449 333.065 228.449 332.709 228.485C333.246 227.043 333.665 225.561 333.964 224.052C334.806 219.818 334.7 215.449 333.653 211.261C332.605 207.072 330.643 203.169 327.906 199.831C325.17 196.493 321.728 193.804 317.828 191.958C313.928 190.111 309.667 189.154 305.353 189.154C301.039 189.154 296.778 190.111 292.878 191.958C288.978 193.804 285.536 196.493 282.8 199.831C280.063 203.169 278.1 207.072 277.053 211.261C276.006 215.449 275.899 219.818 276.742 224.052C277.147 226.093 277.77 228.085 278.599 229.994H262.283C262.283 229.994 262.132 230.046 261.887 230.152C261.012 230.549 258.95 231.594 258.653 233.238H123.433L120.662 233.215C121.251 232.225 121.779 231.201 122.245 230.149C123.114 228.198 123.759 226.156 124.169 224.06C124.974 220.058 124.932 215.932 124.045 211.947C123.159 207.962 121.448 204.208 119.023 200.925C116.599 197.642 113.513 194.905 109.966 192.889C106.419 190.872 102.49 189.622 98.4304 189.219C94.3712 188.816 90.2726 189.268 86.3989 190.547C82.5251 191.826 78.9621 193.903 75.9396 196.645C72.9171 199.386 70.5021 202.731 68.8504 206.464C67.1987 210.196 66.3468 214.234 66.3498 218.316C66.3497 220.241 66.5379 222.16 66.9118 224.048C67.5498 227.244 68.7192 230.311 70.3714 233.12C68.4398 232.648 64.2241 231.309 64.2241 231.309C64.2241 231.309 46.2732 229.4 41.6895 225.367L42.3822 224.888L45.3192 222.88L43.9813 217.73C43.8198 217.513 43.6868 217.276 43.5855 217.025C43.2292 216.165 42.9165 214.569 44.1753 212.564C46.0832 209.506 45.1292 198.612 45.1292 198.612C45.1292 198.612 71.1037 180.648 122.289 176.631C122.289 176.631 123.512 177.582 126.037 177.78C127.747 177.918 130.055 177.709 132.988 176.631C132.988 176.631 137.188 178.54 155.155 168.221C155.155 168.221 185.717 147.194 225.826 149.112C225.826 149.112 267.08 146.624 302.222 160.203C317.366 166.05 328.889 169.168 337.103 170.816C344.687 172.341 349.449 172.622 351.63 172.646H351.677C352.39 172.646 352.813 172.646 352.964 172.646H353.027C353.027 172.646 353.027 177.198 353.268 182.573V182.601C353.355 184.471 353.474 186.439 353.64 188.353V188.471C354.1 193.799 354.891 198.64 356.265 199.599L358.355 204.554Z" fill="#2856B8"/>
<path d="M49.2568 198.177C49.2568 198.177 60.7636 189.193 75.0888 191.106C75.0888 191.106 62.0541 201.429 56.1799 200.76L55.1785 199.9L49.241 200.233C49.241 200.233 48.3543 198.846 49.2568 198.177Z" fill="#8CD0F3"/>
<path opacity="0.2" d="M60.4276 213.721V219.026C60.4276 219.026 60.0318 224.092 55.4599 224.282L42.3975 224.928L45.3306 222.92L43.9927 217.77C43.8304 217.555 43.6974 217.319 43.5968 217.069C44.7843 215.975 47.5829 214.129 53.2749 213.733L60.4276 213.721Z" fill="white"/>
<path opacity="0.2" d="M121.212 191.49L131.238 191.094C131.238 191.094 127.181 194.295 124.315 194.584C121.449 194.873 121.212 191.49 121.212 191.49Z" fill="white"/>
<path opacity="0.2" d="M142.317 221.929C142.317 221.929 232.991 209.312 254.908 213.325C254.908 213.325 261.352 213.757 263.79 216.336C266.229 218.915 263.79 217.243 263.79 217.243L142.317 221.929Z" fill="white"/>
<path opacity="0.5" d="M193.075 186.519C193.075 186.519 194.223 184.368 196.084 184.32L208.164 183.698C208.164 183.698 207.974 185.37 205.825 185.992L193.075 186.519Z" fill="#18218A"/>
<path opacity="0.5" d="M262.979 182.887C262.979 182.887 264.126 180.736 265.987 180.688L278.068 180.05C278.068 180.05 277.878 181.722 275.728 182.344L262.979 182.887Z" fill="#18218A"/>
<path d="M221.729 153.414L212.459 177.744L179.035 177.78H170.429H162.944H156.472H149.142C149.142 177.78 153.607 174.5 160.799 170.321C163.174 168.934 165.869 167.453 168.795 165.963C171.486 164.585 174.384 163.19 177.428 161.867C179.803 160.822 182.304 159.815 184.861 158.877C196.455 154.634 209.486 151.786 221.729 153.414Z" fill="#8CD0F3"/>
<path d="M274.248 171.181C274.248 171.181 260.283 173.253 246.955 174.786C241.861 175.372 236.862 175.879 232.769 176.16L232.199 176.2C230.615 176.303 229.147 176.37 227.9 176.394C225.921 176.43 224.44 176.342 223.7 176.105L227.552 152.832C227.552 152.832 232.302 152.884 239.328 153.228L240.863 153.311C242.324 153.395 243.864 153.49 245.471 153.601C247.767 153.759 250.185 153.949 252.679 154.179C264.72 155.284 278.361 157.269 286.998 160.842C305.376 168.455 274.248 171.181 274.248 171.181Z" fill="#8CD0F3"/>
<path d="M338.61 182.886V189.097C338.61 189.097 328.583 189.24 330.733 187.236C332.124 185.905 333.387 184.446 334.505 182.878L338.61 182.886Z" fill="#8CD0F3"/>
<path d="M353.633 188.464L345.49 189.101V181.634C345.49 181.634 349.263 176.33 353.035 182.209L353.253 182.553L353.633 188.464Z" fill="#8CD0F3"/>
<path d="M95.5497 241.637C108.419 241.637 118.852 231.196 118.852 218.316C118.852 205.437 108.419 194.996 95.5497 194.996C82.68 194.996 72.2471 205.437 72.2471 218.316C72.2471 231.196 82.68 241.637 95.5497 241.637Z" fill="#182A7C"/>
<path d="M114.24 218.296C114.249 223.108 112.41 227.74 109.104 231.234C105.798 234.728 101.277 236.818 96.4753 237.072C91.6736 237.326 86.9578 235.724 83.3023 232.598C79.6467 229.472 77.3306 225.06 76.8324 220.274C76.3342 215.488 77.692 210.693 80.6253 206.88C83.5586 203.067 87.8433 200.527 92.5942 199.785C97.3451 199.043 102.199 200.156 106.154 202.893C110.109 205.63 112.862 209.783 113.845 214.493C114.105 215.744 114.238 217.019 114.24 218.296Z" fill="#3F8FFE"/>
<path opacity="0.5" d="M95.5219 234.411C104.395 234.411 111.589 227.195 111.589 218.292C111.589 209.39 104.395 202.174 95.5219 202.174C86.6484 202.174 79.4551 209.39 79.4551 218.292C79.4551 227.195 86.6484 234.411 95.5219 234.411Z" fill="#18218A"/>
<path d="M100.897 200.3V200.982L95.5496 218.701L91.2588 200.007C94.4424 199.264 97.7646 199.365 100.897 200.3Z" fill="#3F8FFE"/>
<path d="M100.857 236.301C97.7944 237.209 94.5508 237.32 91.4326 236.626L95.5453 218.701L100.857 236.301Z" fill="#3F8FFE"/>
<path d="M114.241 218.296C114.243 220.251 113.942 222.195 113.346 224.056H113.271L95.5654 218.704L113.877 214.498C114.126 215.748 114.248 217.021 114.241 218.296Z" fill="#3F8FFE"/>
<path d="M95.55 218.701L77.8444 224.052H77.7059C76.7198 220.959 76.5439 217.663 77.1952 214.482L95.55 218.701Z" fill="#3F8FFE"/>
<path d="M95.5221 220.349C96.6567 220.349 97.5765 219.428 97.5765 218.293C97.5765 217.157 96.6567 216.237 95.5221 216.237C94.3875 216.237 93.4678 217.157 93.4678 218.293C93.4678 219.428 94.3875 220.349 95.5221 220.349Z" fill="#182A7C"/>
<path d="M305.21 241.637C318.079 241.637 328.512 231.196 328.512 218.316C328.512 205.437 318.079 194.996 305.21 194.996C292.34 194.996 281.907 205.437 281.907 218.316C281.907 231.196 292.34 241.637 305.21 241.637Z" fill="#182A7C"/>
<path d="M323.906 218.296C323.914 223.108 322.075 227.74 318.769 231.234C315.463 234.728 310.942 236.818 306.14 237.072C301.339 237.326 296.623 235.724 292.967 232.598C289.312 229.472 286.996 225.06 286.497 220.274C285.999 215.488 287.357 210.693 290.29 206.88C293.224 203.067 297.508 200.527 302.259 199.785C307.01 199.043 311.864 200.156 315.819 202.893C319.774 205.63 322.527 209.783 323.51 214.493C323.77 215.744 323.903 217.019 323.906 218.296Z" fill="#3F8FFE"/>
<path opacity="0.5" d="M305.186 234.411C314.059 234.411 321.253 227.195 321.253 218.292C321.253 209.39 314.059 202.174 305.186 202.174C296.313 202.174 289.119 209.39 289.119 218.292C289.119 227.195 296.313 234.411 305.186 234.411Z" fill="#18218A"/>
<path d="M310.557 200.3V200.982L305.21 218.701L300.919 200.007C304.103 199.264 307.425 199.365 310.557 200.3Z" fill="#3F8FFE"/>
<path d="M310.522 236.301C307.459 237.209 304.216 237.32 301.098 236.626L305.21 218.701L310.522 236.301Z" fill="#3F8FFE"/>
<path d="M323.905 218.297C323.908 220.251 323.606 222.195 323.01 224.056H322.919L305.21 218.701L323.521 214.494C323.777 215.745 323.906 217.019 323.905 218.297Z" fill="#3F8FFE"/>
<path d="M305.21 218.701L287.505 224.052H287.366C286.38 220.959 286.204 217.663 286.855 214.482L305.21 218.701Z" fill="#3F8FFE"/>
<path d="M305.186 220.349C306.321 220.349 307.241 219.428 307.241 218.293C307.241 217.157 306.321 216.237 305.186 216.237C304.052 216.237 303.132 217.157 303.132 218.293C303.132 219.428 304.052 220.349 305.186 220.349Z" fill="#182A7C"/>
<path opacity="0.2" d="M168.798 165.988L162.944 177.796H156.472L160.798 170.345C163.185 168.959 165.873 167.481 168.798 165.988Z" fill="white"/>
<path opacity="0.2" d="M184.862 158.9L179.031 177.784H170.426L177.432 161.883C179.823 160.845 182.309 159.847 184.862 158.9Z" fill="white"/>
<path opacity="0.2" d="M245.479 153.62L232.777 176.164L232.207 176.203C230.624 176.306 229.155 176.374 227.908 176.397L239.336 153.251L240.872 153.335C242.312 153.414 243.864 153.509 245.479 153.62Z" fill="white"/>
<path opacity="0.2" d="M149.363 177.717L142.111 227.705L202.678 226.378L212.621 177.935L149.363 177.717Z" stroke="white" stroke-miterlimit="10"/>
<path opacity="0.5" d="M261.89 230.137C261.015 230.533 258.953 231.579 258.656 233.223H123.432L120.661 233.199C121.25 232.21 121.779 231.186 122.244 230.133L261.89 230.137Z" fill="#18218A"/>
<path d="M144.981 266.26C145.904 265.401 146.77 264.387 147.04 263.155C147.309 261.923 146.782 260.441 145.603 259.986C144.285 259.479 142.871 260.382 141.803 261.321C140.734 262.259 139.507 263.301 138.11 263.103C138.829 262.45 139.368 261.621 139.672 260.698C139.977 259.775 140.037 258.788 139.847 257.835C139.786 257.441 139.619 257.071 139.364 256.765C138.632 255.973 137.302 256.318 136.427 256.935C133.657 258.916 132.865 262.691 132.845 266.106C132.564 264.874 132.802 263.591 132.794 262.327C132.786 261.063 132.441 259.665 131.377 258.983C130.713 258.627 129.968 258.452 129.215 258.476C127.96 258.429 126.563 258.556 125.708 259.475C124.643 260.616 124.917 262.529 125.847 263.785C126.777 265.04 128.182 265.829 129.477 266.696C130.516 267.316 131.402 268.162 132.069 269.172C132.148 269.313 132.213 269.462 132.263 269.616H140.124C141.887 268.722 143.521 267.593 144.981 266.26Z" fill="#27AE60"/>
<path d="M309.287 272.923C310.013 272.331 310.541 271.533 310.803 270.634C311.001 269.723 310.613 268.633 309.742 268.3C308.769 267.928 307.728 268.602 306.94 269.287C306.152 269.972 305.246 270.749 304.213 270.602C304.744 270.12 305.141 269.509 305.366 268.828C305.59 268.147 305.635 267.419 305.495 266.716C305.45 266.424 305.327 266.15 305.139 265.924C304.597 265.345 303.619 265.595 302.97 266.05C300.911 267.5 300.337 270.297 300.326 272.816C300.12 271.909 300.294 270.962 300.286 270.043C300.278 269.124 300.025 268.063 299.241 267.579C298.755 267.318 298.209 267.188 297.658 267.203C296.731 267.168 295.702 267.263 295.069 267.94C294.277 268.78 294.487 270.194 295.172 271.109C295.857 272.024 296.894 272.614 297.852 273.256C298.619 273.713 299.274 274.337 299.767 275.082C299.825 275.186 299.873 275.294 299.91 275.407H305.709C307.008 274.744 308.212 273.909 309.287 272.923Z" fill="#27AE60"/>
<path d="M335.016 285.524C335.741 284.932 336.27 284.134 336.532 283.234C336.73 282.323 336.342 281.234 335.471 280.901C334.497 280.529 333.456 281.202 332.668 281.888C331.881 282.573 330.974 283.349 329.941 283.203C330.472 282.721 330.869 282.11 331.094 281.429C331.319 280.748 331.363 280.02 331.224 279.317C331.179 279.025 331.056 278.751 330.867 278.524C330.325 277.946 329.347 278.196 328.698 278.651C326.64 280.101 326.066 282.898 326.054 285.417C325.848 284.51 326.022 283.563 326.014 282.644C326.007 281.725 325.753 280.664 324.969 280.18C324.483 279.919 323.938 279.789 323.386 279.804C322.46 279.768 321.431 279.863 320.797 280.541C320.006 281.381 320.216 282.795 320.9 283.71C321.585 284.625 322.622 285.215 323.58 285.857C324.348 286.314 325.003 286.938 325.496 287.683C325.554 287.786 325.602 287.895 325.638 288.008H331.437C332.737 287.345 333.94 286.51 335.016 285.524Z" fill="#27AE60"/>
<path d="M260.627 259.043C260.627 259.043 259.245 259.795 258.616 255.533C258.22 252.76 257.068 247.044 256.312 243.332L256.217 242.861C256.434 242.793 256.646 242.714 256.854 242.623C256.854 242.623 252.453 225.589 253.458 221.818C254.464 218.047 253.458 211.289 253.458 211.289L250.818 202.392C250.818 202.392 244.279 200.134 241.765 199.508C239.252 198.882 232.21 194.493 232.21 194.493C232.331 194.634 232.444 194.781 232.55 194.933L232.269 194.762C231.756 194.282 231.291 193.751 230.884 193.178C232.288 191.683 233.198 189.79 233.488 187.759C234.428 185.976 234.871 183.973 234.772 181.96C234.673 179.946 234.036 177.997 232.926 176.315C233.354 175.779 233.68 175.169 233.888 174.516C233.972 174.217 234.008 173.907 233.995 173.597C234.041 173.1 233.933 172.601 233.687 172.167C233.441 171.733 233.068 171.384 232.618 171.169C232.317 171.044 231.995 170.981 231.67 170.984C231.344 170.988 231.023 171.057 230.726 171.189C230.167 171.442 229.728 171.918 229.118 172.044C228.101 172.254 227.23 171.438 226.431 170.832C225.188 169.905 223.706 169.355 222.16 169.248C221.489 169.172 220.809 169.262 220.181 169.509C219.584 169.847 219.033 170.261 218.542 170.741C216.729 172.203 214.188 172.611 211.912 173.407C211.476 173.557 210.993 173.803 210.914 174.199C210.898 174.278 210.898 174.359 210.914 174.437C210.896 174.538 210.904 174.641 210.938 174.738C206.695 175.451 202.542 178.676 202.542 178.676L201.846 179.321C201.618 179.198 201.359 179.144 201.101 179.166C200.843 179.187 200.597 179.284 200.393 179.444L198.992 180.545C198.738 180.744 198.566 181.028 198.508 181.345C198.45 181.662 198.509 181.989 198.675 182.264L188.427 191.772L188.205 191.978V191.942C188.205 191.942 180.289 197.959 180.289 202.218C180.289 205.296 182.664 207.193 183.958 208.013C182.797 209.106 181.919 210.466 181.401 211.974V212.014V212.069V212.113V212.161V212.2V212.244V212.283V212.323V212.359V212.394V212.426V212.462V212.489V212.533V212.573V212.596V212.62V212.794V212.842V212.937V213.004V213.072L181.369 213.246V213.317L181.35 213.436V213.484V213.599V213.682L181.322 213.84L181.286 214.038V214.078L181.258 214.244V214.323L181.227 214.506V214.553L181.191 214.759V214.85L181.1 215.369L181.053 215.65V215.698L181.001 215.987V216.027L180.95 216.32V216.344L180.894 216.653V216.72L180.839 217.025V217.092L180.787 217.393V217.429L180.728 217.77V217.833L180.593 218.594L180.526 218.99V219.049L180.459 219.445V219.473L180.312 220.265V220.333L180.241 220.729V220.784L180.087 221.62V221.656L180.008 222.08V222.115L179.849 222.979V223.034L179.77 223.462V223.494L179.604 224.377V224.425L179.521 224.861V224.892L179.351 225.788V225.823L179.267 226.259V226.295L178.543 227.19V227.229L178.456 227.661V227.685L178.278 228.564V228.588L178.191 229.016V229.04L178.017 229.88V229.915L177.933 230.311V230.347L177.763 231.139V231.167L177.68 231.563V231.603L177.514 232.351V232.371L177.435 232.724V232.759C177.379 232.997 177.325 233.227 177.272 233.449L177.193 233.774V233.801C177.14 234.018 177.089 234.225 177.039 234.423L176.964 234.708V234.74L176.892 235.013C176.576 236.202 176.299 236.994 176.101 237.18C175.9 237.391 175.743 237.638 175.638 237.909L175.606 237.988L175.574 238.076L175.547 238.163L175.416 238.282L175.388 238.373L175.365 238.456L175.341 238.551V238.638L175.321 238.733V238.82C175.321 238.884 175.31 238.947 175.289 239.01V239.09V239.197V239.28V239.387V239.47V239.577V239.66V239.767V239.846C175.289 239.977 175.289 240.104 175.289 240.242C175.289 240.266 175.289 240.29 175.289 240.318C175.289 240.345 175.289 240.385 175.289 240.421C175.289 240.456 175.289 240.472 175.289 240.496C175.289 240.52 175.289 240.563 175.289 240.595C175.289 240.627 175.289 240.642 175.289 240.67C175.289 240.698 175.289 240.734 175.289 240.765V240.837C175.289 240.868 175.289 240.9 175.289 240.932V240.995C175.289 241.053 175.289 241.11 175.289 241.165V241.791V241.878V242.128L176.477 242.488C176.477 242.488 177.075 242.817 177.997 243.245C177.866 247.242 177.498 252.653 176.497 255.965C174.264 256.08 168.75 256.313 167.753 255.913C166.494 255.41 158.447 254.158 160.964 259.922C162.017 262.339 164.309 264.161 166.613 265.468C166.328 265.562 166.037 265.637 165.742 265.694C163.691 266.09 163.121 266.775 163.201 267.48C163.054 268.669 165.073 269.996 165.239 270.079C165.492 270.206 174.038 271.584 176.053 270.954C178.068 270.325 186.238 268.823 186.238 268.823C186.238 268.823 186.238 268.732 186.238 268.574C186.238 268.574 186.127 266.11 185.818 263.773C186.745 263.638 187.754 263.515 188.736 263.44C188.862 264.032 189.121 264.588 189.495 265.065C189.868 265.542 190.345 265.928 190.889 266.193C196.296 268.966 198.058 265.191 198.058 265.191C198.058 265.191 205.369 266.597 209.454 265.587C209.881 265.983 210.245 266.264 210.503 266.454C211.829 267.409 215.399 268.063 219.393 268.11C220.456 268.215 221.528 268.185 222.583 268.019C224.346 267.903 226.095 267.628 227.808 267.199C232.618 265.951 233.674 261.475 233.904 259.443C234.094 259.387 234.229 259.189 234.3 258.817C234.395 258.614 234.451 258.395 234.466 258.171C234.571 257.252 234.743 256.341 234.981 255.446L240.918 255.779C243.57 260.596 245.914 264.426 245.914 264.426L249.935 263.923C248.146 262.49 246.579 260.8 245.284 258.908C243.273 255.901 243.273 241.478 243.273 241.478L243.499 232.696V232.787V232.363C243.871 234.966 246.82 242.516 247.153 242.627C247.394 242.706 247.632 242.778 247.865 242.845L248.079 243.407C249.757 247.86 254.016 259.253 254.317 261.051C254.713 263.309 270.412 264.185 273.931 263.056C277.449 261.927 260.627 259.043 260.627 259.043ZM204.549 209.162L198.794 217.813C196.728 214.248 194.574 210.968 192.627 208.797C197.733 208.968 203.619 209.15 204.549 209.162ZM203.674 186.978C203.898 187.084 204.146 187.125 204.391 187.098C204.636 187.071 204.869 186.976 205.064 186.824L205.555 186.428C205.805 186.233 205.977 185.954 206.039 185.643C206.101 185.332 206.048 185.008 205.891 184.732L206.184 184.443C208.211 184.1 210.211 183.614 212.169 182.989C212.243 184.778 212.746 186.522 213.634 188.076C213.809 189.07 214.134 190.032 214.599 190.928C213.697 190.853 212.715 190.801 211.777 190.809C210.957 190.792 210.138 190.844 209.327 190.964C206.311 191.467 205.931 196.981 205.931 196.981C205.931 196.981 199.87 199.112 196.229 199.187C195.767 199.189 195.308 199.121 194.867 198.985L194.499 198.961L194.994 197.607C194.994 197.607 194.78 197.674 194.428 197.745C194.541 197.574 194.66 197.399 194.784 197.222C197.088 193.915 201.078 189.652 203.674 186.986V186.978ZM191.222 253.905C190.758 254.698 190.342 255.518 189.975 256.361C188.546 256.638 186.598 256.793 185.565 255.909C185.099 255.527 184.513 255.321 183.911 255.327L183.934 255.28C184.647 253.913 185.252 250.851 185.727 247.682C188.031 247.682 190.22 245.753 190.22 245.753L193.122 246.747L193.228 246.949L193.3 247.08L193.414 247.294L193.486 247.428L193.6 247.638L193.676 247.773L193.79 247.979L193.866 248.114L193.977 248.316L194.052 248.45L194.167 248.652L194.242 248.783L194.357 248.981L194.428 249.108L194.543 249.306L194.614 249.429L194.725 249.623L194.796 249.746L194.911 249.94L194.978 250.051L195.093 250.241L195.16 250.352L195.275 250.542L195.334 250.641L195.453 250.835L195.497 250.906C195.702 251.243 195.892 251.564 196.086 251.865L196.114 251.908L196.225 252.083L196.272 252.158L196.371 252.316L196.427 252.4L196.518 252.542L196.573 252.633L196.656 252.764L196.716 252.855L196.795 252.978L196.85 253.065L196.922 253.176L196.977 253.263L197.044 253.366L197.1 253.453L197.163 253.548L197.218 253.632C195.237 253.959 193.224 254.05 191.222 253.905Z" fill="url(#paint0_linear)"/>
<path d="M272.537 262.343C269.106 263.448 253.783 262.588 253.415 260.362C253.122 258.591 248.97 247.448 247.331 243.091L246.674 241.348L254.642 239.628C254.642 239.628 254.935 241.027 255.339 243.019C256.075 246.656 257.187 252.269 257.583 254.963C258.196 259.134 259.562 258.397 259.562 258.397C259.562 258.397 275.957 261.237 272.537 262.343Z" fill="#FFBDC6"/>
<path d="M229.249 189.953C229.249 189.953 228.636 193.633 233.908 197.084C239.181 200.534 234.645 212.909 234.645 212.909L230.746 213.127C228.27 213.266 225.836 212.439 223.957 210.82C222.077 209.2 220.898 206.915 220.668 204.444C220.668 204.444 222.873 200.879 218.827 191.684L229.249 189.953Z" fill="#FFBDC6"/>
<path d="M206.465 185.425C206.465 185.425 198.877 192.829 195.35 197.931C194.932 198.523 194.55 199.139 194.206 199.777C191.633 204.685 185.648 196.707 187.719 193.95L189.147 192.615L202.907 179.78C202.907 179.78 212.347 172.42 217.125 177.697C221.903 182.973 206.465 185.425 206.465 185.425Z" fill="#FFBDC6"/>
<path d="M223.321 194.564C229.414 194.564 234.353 189.621 234.353 183.524C234.353 177.427 229.414 172.484 223.321 172.484C217.228 172.484 212.289 177.427 212.289 183.524C212.289 189.621 217.228 194.564 223.321 194.564Z" fill="#A66477"/>
<path d="M178.397 255.347C178.397 255.347 170.183 255.838 168.956 255.347C167.729 254.856 159.888 253.632 162.354 259.277C164.82 264.921 174.122 267.251 174.122 267.251L180.851 265.531L178.397 255.347Z" fill="#7679B4"/>
<path opacity="0.05" d="M178.397 255.347C178.397 255.347 170.183 255.838 168.956 255.347C167.729 254.856 159.888 253.632 162.354 259.277C164.82 264.921 174.122 267.251 174.122 267.251L180.851 265.531L178.397 255.347Z" fill="black"/>
<path d="M207.693 231.183L224.179 237.885L233.556 257.819C233.556 257.819 233.679 264.81 227.552 266.407C221.424 268.003 212.842 267.266 210.634 265.67C208.425 264.073 199.356 254.63 199.356 254.63L207.693 231.183Z" fill="#7679B4"/>
<path opacity="0.05" d="M206.572 231.183L220.842 236.534L228.961 252.487C228.961 252.487 229.068 258.084 223.763 259.359C218.459 260.635 211.03 260.045 209.118 258.769C207.206 257.494 199.356 249.932 199.356 249.932L206.572 231.183Z" fill="black"/>
<path d="M192.369 255.347C192.369 255.347 188.079 256.82 186.365 255.347C184.651 253.873 181.583 255.715 181.583 255.715L182.937 263.689C182.937 263.689 189.064 262.339 192.377 262.707L192.369 255.347Z" fill="#FFBDC6"/>
<path opacity="0.05" d="M192.369 255.347C192.369 255.347 188.079 256.82 186.365 255.347C184.651 253.873 181.583 255.715 181.583 255.715L182.937 263.689C182.937 263.689 189.064 262.339 192.377 262.707L192.369 255.347Z" fill="black"/>
<path d="M194.813 246.763L190.898 245.412C190.898 245.412 186.607 249.215 183.773 246.026C180.939 242.837 186.346 229.586 186.346 229.586L192.105 220.261L196.273 233.389L200.073 239.767L194.813 246.763Z" fill="#565388"/>
<path opacity="0.05" d="M194.813 246.763L190.898 245.412C190.898 245.412 186.607 249.215 183.773 246.026C180.939 242.837 186.346 229.586 186.346 229.586L192.105 220.261L196.273 233.389L200.073 239.767L194.813 246.763Z" fill="black"/>
<path d="M232.207 246.026L241.034 247.25L242.752 255.347L231.843 254.733L232.207 246.026Z" fill="#565388"/>
<path opacity="0.05" d="M232.207 246.026L241.034 247.25L242.752 255.347L231.843 254.733L232.207 246.026Z" fill="black"/>
<path opacity="0.1" d="M219.829 201.619C219.829 201.619 223.506 215.726 235.266 205.545L238.453 246.026C238.453 246.026 234.53 252.281 233.917 257.91C233.303 263.539 222.639 240.48 216.266 240.369C209.894 240.258 203.58 231.353 203.58 231.353L210.753 216.569L219.829 201.619Z" fill="black"/>
<path d="M219.951 201.251C219.951 201.251 223.628 215.357 235.388 205.177L238.575 245.657C238.575 245.657 234.652 251.912 234.039 257.541C233.425 263.17 222.761 240.112 216.389 240.001C210.016 239.89 203.702 230.985 203.702 230.985L210.875 216.201L219.951 201.251Z" fill="#F2F1F2"/>
<path opacity="0.1" d="M217.989 192.172C217.989 192.172 212.843 191.312 209.898 191.803C206.953 192.294 206.589 197.69 206.589 197.69C206.589 197.69 198.253 200.633 195.434 199.67C195.434 199.67 181.58 198.688 181.58 202.859C181.58 207.031 185.998 208.968 185.998 208.968C185.998 208.968 205.231 209.617 205.366 209.582C209.779 208.354 205.243 209.582 205.243 209.582L197.275 221.604L204.629 231.785L212.475 226.021C212.475 226.021 213.456 220.622 216.037 217.924C217.874 215.995 220.277 207.312 221.5 202.507C221.757 201.495 221.811 200.442 221.658 199.409C221.505 198.376 221.148 197.383 220.609 196.489L217.989 192.172Z" fill="black"/>
<path opacity="0.1" d="M195.35 197.931C194.932 198.523 194.55 199.14 194.206 199.777C191.633 204.685 185.648 196.707 187.719 193.95L189.147 192.615C188.625 198.945 193.775 198.272 195.35 197.931Z" fill="black"/>
<path opacity="0.1" d="M205.243 209.102H205.104C205.104 209.102 209.657 207.874 205.243 209.102Z" fill="black"/>
<path d="M217.619 192.172C217.619 192.172 212.474 191.312 209.529 191.803C206.584 192.294 206.22 197.69 206.22 197.69C206.22 197.69 197.883 200.633 195.065 199.67L195.556 198.32C195.556 198.32 188.083 200.649 188.938 192.786C188.938 192.786 181.215 198.672 181.215 202.843C181.215 207.015 185.628 208.968 185.628 208.968C185.628 208.968 204.862 209.617 204.996 209.582C209.41 208.354 204.874 209.582 204.874 209.582L196.906 221.604L204.26 231.785L212.106 226.021C212.106 226.021 213.087 220.622 215.668 217.924C217.505 215.995 219.907 207.312 221.131 202.507C221.388 201.495 221.441 200.442 221.289 199.409C221.136 198.376 220.779 197.383 220.24 196.489L217.619 192.172Z" fill="#565388"/>
<path opacity="0.1" d="M242.874 232.042V232.716C242.822 232.494 242.822 232.264 242.874 232.042Z" fill="black"/>
<path opacity="0.1" d="M255.339 243.035C252.733 243.838 249.95 243.863 247.331 243.106L246.674 241.363L254.642 239.644C254.642 239.644 254.931 241.054 255.339 243.035Z" fill="black"/>
<path opacity="0.1" d="M231.475 195.238C231.475 195.238 238.338 199.532 240.792 200.146C243.247 200.76 249.62 202.966 249.62 202.966L252.192 211.681C252.192 211.681 253.174 218.305 252.192 221.981C251.211 225.657 242.02 232.652 242.51 231.547L242.265 241.237C242.265 241.237 242.265 255.343 244.244 258.27C246.223 261.198 240.504 255.386 240.504 255.386C240.504 255.386 233.576 245.142 232.721 238.642C231.866 232.141 233.208 207.138 233.208 207.138L231.981 205.418C231.981 205.418 234.538 198.795 231.475 195.238Z" fill="black"/>
<path d="M231.842 195.238C231.842 195.238 238.706 199.532 241.16 200.146C243.614 200.76 249.987 202.966 249.987 202.966L252.56 211.681C252.56 211.681 253.541 218.305 252.56 221.981C251.578 225.657 255.869 242.346 255.869 242.346C255.869 242.346 251.91 244.176 246.428 242.346C246.06 242.223 242.383 232.656 242.866 231.551L242.62 241.241C242.62 241.241 242.62 255.347 244.599 258.274C245.861 260.125 247.39 261.779 249.136 263.182L245.213 263.674C245.213 263.674 233.924 245.166 233.065 238.678C232.206 232.189 233.556 207.149 233.556 207.149L232.329 205.43C232.329 205.43 234.906 198.795 231.842 195.238Z" fill="#565388"/>
<path d="M198.375 254.126C198.375 254.126 190.162 242.242 190.53 236.697C190.53 236.697 189.548 244.302 188.448 244.794C187.348 245.285 176.312 241.846 176.312 241.846C176.312 241.846 175.821 238.281 177.048 237.061C178.275 235.841 182.075 213.139 182.075 213.139C182.075 213.139 183.425 207.007 189.307 206.638C195.189 206.27 208.43 236.201 208.43 236.201C208.43 236.201 210.389 254.126 198.375 254.126Z" fill="#7679B4"/>
<path d="M179.011 237.929C179.011 237.929 179.256 255.101 176.193 257.926C173.129 260.75 185.142 262.22 185.142 262.22C185.142 262.22 183.06 258.049 184.774 254.737C186.488 251.425 187.592 237.929 187.592 237.929H179.011Z" fill="#FFBDC6"/>
<path opacity="0.05" d="M179.62 257.692C179.62 257.692 178.393 254.626 175.084 257.078C175.084 257.078 172.143 263.947 166.993 264.929C161.844 265.912 166.257 268.855 166.502 268.978C166.748 269.101 175.084 270.451 177.043 269.837C179.003 269.223 186.971 267.754 186.971 267.754C186.971 267.754 186.603 259.657 185.388 259.039C184.172 258.421 184.77 262.711 179.62 257.692Z" fill="black"/>
<path d="M179.62 257.926C179.62 257.926 178.393 254.86 175.084 257.312C175.084 257.312 172.143 264.181 166.993 265.163C161.844 266.145 166.257 269.089 166.502 269.211C166.748 269.334 175.084 270.685 177.043 270.071C179.003 269.457 186.975 267.991 186.975 267.991C186.975 267.991 186.607 259.894 185.392 259.277C184.176 258.659 184.77 262.953 179.62 257.926Z" fill="#7679B4"/>
<path d="M202.701 180.842C203.736 182.451 204.851 184.007 206.042 185.505C206.155 185.637 206.241 185.792 206.293 185.959C206.345 186.126 206.363 186.301 206.346 186.475C206.328 186.649 206.276 186.818 206.192 186.971C206.108 187.124 205.993 187.259 205.856 187.366L205.377 187.743C205.24 187.85 205.083 187.928 204.915 187.974C204.747 188.019 204.572 188.03 204.4 188.006C204.228 187.982 204.062 187.923 203.913 187.834C203.764 187.744 203.634 187.626 203.532 187.485C202.459 185.997 201.117 184.725 199.574 183.734C199.398 183.624 199.25 183.473 199.145 183.295C199.039 183.116 198.978 182.914 198.966 182.707C198.954 182.5 198.993 182.292 199.078 182.103C199.163 181.914 199.292 181.747 199.455 181.618L200.821 180.541C200.961 180.43 201.123 180.35 201.296 180.304C201.469 180.259 201.65 180.251 201.827 180.279C202.003 180.307 202.172 180.372 202.323 180.469C202.473 180.566 202.602 180.693 202.701 180.842Z" fill="#565388"/>
<path opacity="0.1" d="M230.671 194.311C229.087 192.08 229.388 190.314 229.388 190.314L218.958 192.049C219.682 193.667 220.278 195.34 220.739 197.052C222.486 197.563 224.34 197.577 226.094 197.093C227.848 196.608 229.433 195.645 230.671 194.311Z" fill="black"/>
<path d="M223.383 197.076C228.798 197.076 233.188 192.683 233.188 187.264C233.188 181.844 228.798 177.451 223.383 177.451C217.968 177.451 213.578 181.844 213.578 187.264C213.578 192.683 217.968 197.076 223.383 197.076Z" fill="#FFBDC6"/>
<path opacity="0.1" d="M219.069 182.149C219.995 181.995 220.818 181.452 221.756 181.404C222.944 181.345 224.016 182.106 224.852 182.89C225.687 183.674 226.498 184.57 227.646 184.91C228.38 185.082 229.137 185.133 229.887 185.061C230.304 185.082 230.717 184.977 231.074 184.76C231.254 184.593 231.39 184.385 231.47 184.154C231.79 183.416 231.952 182.619 231.946 181.815C231.94 181.01 231.766 180.216 231.434 179.483C231.342 179.331 231.303 179.153 231.324 178.976C231.359 178.871 231.417 178.775 231.494 178.695C232.285 177.76 233.121 176.825 233.441 175.692C233.762 174.559 233.37 173.165 232.202 172.662C231.911 172.536 231.597 172.472 231.28 172.472C230.963 172.472 230.649 172.536 230.358 172.662C229.811 172.911 229.388 173.375 228.774 173.498C227.781 173.704 226.93 172.904 226.154 172.309C224.945 171.403 223.501 170.863 221.994 170.756C221.335 170.681 220.667 170.769 220.05 171.014C219.474 171.341 218.942 171.74 218.467 172.202C216.698 173.632 214.22 174.032 212.003 174.813C211.579 174.963 211.108 175.185 211.029 175.605C210.95 176.025 211.425 176.449 211.9 176.631C212.375 176.813 212.921 176.932 213.238 177.301C213.634 177.776 213.507 178.449 213.578 179.047C213.725 180.236 214.766 180.882 215.918 181.226C216.872 181.531 218.123 182.308 219.069 182.149Z" fill="black"/>
<path d="M219.069 181.904C219.995 181.749 220.818 181.206 221.756 181.159C222.944 181.099 224.017 181.86 224.852 182.644C225.687 183.429 226.499 184.324 227.646 184.665C228.38 184.837 229.137 184.888 229.887 184.815C230.304 184.836 230.718 184.731 231.074 184.514C231.254 184.348 231.39 184.139 231.47 183.908C231.79 183.17 231.952 182.373 231.946 181.569C231.94 180.765 231.766 179.971 231.435 179.238C231.342 179.086 231.303 178.907 231.324 178.731C231.36 178.626 231.418 178.53 231.494 178.449C232.286 177.515 233.121 176.58 233.441 175.447C233.762 174.314 233.37 172.919 232.202 172.416C231.911 172.291 231.597 172.226 231.28 172.226C230.963 172.226 230.649 172.291 230.358 172.416C229.812 172.666 229.388 173.129 228.775 173.252C227.781 173.458 226.93 172.658 226.154 172.064C224.957 171.178 223.534 170.651 222.049 170.543C221.39 170.467 220.723 170.555 220.106 170.8C219.53 171.127 218.998 171.526 218.523 171.988C216.753 173.419 214.275 173.819 212.059 174.599C211.635 174.75 211.164 174.971 211.085 175.391C211.006 175.811 211.481 176.235 211.956 176.417C212.431 176.599 212.977 176.718 213.294 177.087C213.689 177.562 213.563 178.235 213.634 178.834C213.78 180.022 214.822 180.668 215.973 181.012C216.872 181.286 218.123 182.062 219.069 181.904Z" fill="#A66477"/>
<path opacity="0.05" d="M211.156 229.107C211.156 229.107 218.159 230.295 219.908 234.078C221.658 237.861 232.179 248.097 232.179 248.097" fill="black"/>
<g opacity="0.05">
<path opacity="0.05" d="M188.693 243.938C187.589 244.429 176.557 240.995 176.557 240.995C176.421 239.927 176.433 238.846 176.593 237.782C175.959 239.311 176.312 241.854 176.312 241.854C176.312 241.854 187.343 245.289 188.448 244.798C188.812 244.635 189.164 243.692 189.473 242.5C189.228 243.264 188.966 243.827 188.693 243.938Z" fill="black"/>
<path opacity="0.05" d="M182.305 212.386C182.215 212.635 182.138 212.889 182.075 213.147C182.075 213.147 179.415 229.044 177.828 234.934C179.297 230.153 182.067 213.8 182.305 212.386Z" fill="black"/>
<path opacity="0.05" d="M198.62 253.263C198.62 253.263 190.407 241.379 190.775 235.833C190.775 235.833 190.688 236.522 190.533 237.497C190.905 243.296 198.375 254.126 198.375 254.126C204.086 254.126 206.64 250.078 207.744 245.827C206.525 249.741 203.948 253.263 198.62 253.263Z" fill="black"/>
</g>
<path d="M177.463 242.207C177.463 242.207 184.952 246.335 187.652 244.37C190.351 242.406 188.633 239.339 188.633 239.339L186.547 235.905H179.561L177.233 239.953L177.463 242.207Z" fill="#7679B4"/>
<path d="M228.534 258.417C228.534 258.417 229.024 248.605 216.52 248.728C204.016 248.85 216.029 248.728 216.029 248.728C216.029 248.728 211.125 247.254 204.997 250.708C198.87 254.163 191.879 253.406 191.879 253.406C191.879 253.406 186.239 262.731 191.511 265.429C196.784 268.126 198.498 264.426 198.498 264.426C198.498 264.426 209.284 266.51 211.738 263.69C213.49 265.427 215.714 266.611 218.133 267.094C220.552 267.577 223.059 267.338 225.343 266.407C225.343 266.407 231.475 263.69 228.534 258.417Z" fill="#7679B4"/>
</g>
<defs>
<linearGradient id="paint0_linear" x1="217.437" y1="271.113" x2="217.437" y2="169.24" gradientUnits="userSpaceOnUse">
<stop stop-color="#808080" stop-opacity="0.25"/>
<stop offset="0.54" stop-color="#808080" stop-opacity="0.12"/>
<stop offset="1" stop-color="#808080" stop-opacity="0.1"/>
</linearGradient>
<clipPath id="clip0">
<rect width="392" height="288" fill="white"/>
</clipPath>
</defs>
</svg>
