<svg width="421" height="272" viewBox="0 0 421 272" fill="none" xmlns="http://www.w3.org/2000/svg">
<path d="M421 268.926H0V272H421V268.926Z" fill="#85848B"/>
<path d="M333.542 214.641C333.542 217.006 319.748 223.9 303.362 223.9C286.977 223.9 274.209 217.006 274.209 214.641C274.209 212.276 287.49 213.038 303.892 213.038C320.293 213.038 333.542 212.272 333.542 214.641Z" fill="#504F60"/>
<path opacity="0.2" d="M333.542 214.641C333.542 217.006 319.748 223.9 303.362 223.9C286.977 223.9 274.209 217.006 274.209 214.641" fill="black"/>
<path d="M168.527 171.247C171.187 171.588 173.946 171.804 176.493 170.979C176.894 170.854 177.336 170.578 177.296 170.177C177.267 170.031 177.205 169.894 177.115 169.776C176.155 168.337 175.348 166.802 174.708 165.195C174.683 165.111 174.631 165.038 174.56 164.986C174.477 164.956 174.386 164.956 174.303 164.986C173.128 165.295 172.113 166.052 170.946 166.377C170.351 166.54 169.73 166.586 169.117 166.513C168.587 166.453 167.865 166.016 167.384 166.072C167.657 167.824 168.323 169.459 168.527 171.247Z" fill="#6C63FF"/>
<path d="M218.823 166.81C220.576 165.607 222.393 164.345 223.428 162.489C223.502 162.378 223.545 162.249 223.553 162.116C223.535 161.985 223.484 161.861 223.404 161.755C222.418 160.189 221.149 158.821 219.662 157.719C218.886 158.267 218.184 158.914 217.576 159.643C217.135 160.108 215.915 160.845 215.903 161.555C215.903 161.956 216.369 162.421 216.585 162.757C216.878 163.19 217.155 163.631 217.42 164.08C217.572 164.301 218.964 166.722 218.823 166.81Z" fill="#6C63FF"/>
<path d="M178.952 176.614C178.983 177.027 178.87 177.438 178.631 177.777C178.444 177.965 178.212 178.103 177.957 178.177C174.239 179.508 169.935 177.849 166.225 179.159C165.463 179.428 164.741 179.817 163.974 180.073C163.061 180.348 162.119 180.515 161.167 180.57C159.855 180.695 158.535 180.775 157.22 180.811C156.22 180.882 155.216 180.794 154.243 180.55C153.757 180.426 153.303 180.201 152.91 179.889C152.516 179.578 152.193 179.187 151.961 178.743C151.759 178.344 151.719 177.883 151.849 177.456C151.907 177.309 151.99 177.174 152.093 177.055C152.345 176.773 152.64 176.534 152.968 176.346L154.336 175.464C154.977 175.011 155.674 174.641 156.409 174.366C156.951 174.189 157.525 174.113 158.074 173.965C159.995 173.404 161.463 171.88 162.827 170.417L164.688 168.433C164.862 168.215 165.083 168.038 165.334 167.916C165.592 167.83 165.867 167.804 166.136 167.84C167.944 167.969 169.69 168.554 171.211 169.54C171.599 169.831 172.019 170.078 172.462 170.277C173.553 170.702 174.953 170.381 175.96 169.844C176.437 169.588 176.333 169.443 176.533 168.986C176.734 168.529 177.223 168.237 177.648 168.654C177.777 168.798 177.868 168.971 177.913 169.159C178.314 170.481 178.162 171.904 178.162 173.291C178.15 173.508 178.177 173.725 178.242 173.933C178.344 174.142 178.467 174.34 178.607 174.526C178.636 174.575 178.661 174.626 178.683 174.678C178.929 175.292 179.021 175.957 178.952 176.614Z" fill="#514E7F"/>
<path d="M178.952 176.614C178.983 177.027 178.87 177.438 178.631 177.777C178.444 177.965 178.212 178.103 177.957 178.178C174.239 179.508 169.935 177.849 166.225 179.16C165.463 179.428 164.741 179.817 163.974 180.074C163.061 180.348 162.119 180.515 161.167 180.571C159.855 180.695 158.535 180.775 157.22 180.811C156.22 180.882 155.216 180.794 154.243 180.55C153.757 180.426 153.303 180.201 152.91 179.889C152.516 179.578 152.193 179.187 151.961 178.743C151.759 178.344 151.719 177.883 151.849 177.456C151.907 177.31 151.99 177.174 152.094 177.055C152.31 177.508 152.467 178.109 152.603 178.326C152.787 178.647 153.038 178.924 153.338 179.141C153.638 179.357 153.981 179.507 154.344 179.58C154.887 179.614 155.431 179.544 155.948 179.376C159.318 178.542 162.899 178.53 166.136 177.268C167.248 176.831 168.306 176.25 169.474 175.985C170.641 175.72 171.88 175.793 173.084 175.692C174.985 175.54 176.826 174.967 178.699 174.666C178.941 175.285 179.028 175.954 178.952 176.614Z" fill="#464353"/>
<path d="M227.339 166.565C227.162 167.976 226.268 169.191 225.285 170.221C224.302 171.251 223.191 172.177 222.409 173.364C221.446 174.835 221.013 176.658 219.762 177.901C219.281 178.353 218.742 178.737 218.157 179.043C217.503 179.429 216.811 179.748 216.092 179.993C214.222 180.591 212.209 180.454 210.255 180.31C209.621 180.304 208.993 180.183 208.402 179.953C208.133 179.817 207.876 179.658 207.632 179.48C207.142 179.179 206.73 178.767 206.429 178.278C206.281 178.012 206.239 177.699 206.312 177.404C206.424 177.078 206.616 176.786 206.87 176.554C207.31 176.097 207.781 175.673 208.282 175.284C208.969 174.841 209.587 174.301 210.119 173.68C210.445 173.19 210.685 172.648 210.829 172.077C211.113 171.077 211.287 170.048 211.346 169.011C211.344 168.321 211.416 167.633 211.559 166.958C211.856 165.9 212.642 164.954 212.554 163.86C212.518 163.703 212.532 163.539 212.594 163.391C212.687 163.275 212.817 163.194 212.963 163.162C213.576 162.918 214.222 162.768 214.88 162.717C215.21 162.695 215.541 162.746 215.849 162.866C216.157 162.987 216.434 163.174 216.661 163.415C216.934 163.744 217.114 164.217 217.516 164.345C217.714 164.399 217.923 164.407 218.125 164.369C219.112 164.269 220.155 164.144 220.933 163.507C221.293 163.185 221.582 162.792 221.782 162.352C221.982 161.913 222.089 161.437 222.096 160.954C222.096 160.589 221.932 160.208 222.497 160.152C222.923 160.096 223.259 160.553 223.476 160.834C224.258 161.88 225.06 162.974 225.353 164.249C225.467 164.205 225.588 164.181 225.71 164.181C225.96 164.178 226.207 164.237 226.43 164.35C226.653 164.464 226.845 164.63 226.99 164.834C227.309 165.351 227.433 165.965 227.339 166.565Z" fill="#514E7F"/>
<path d="M227.339 166.566C227.162 167.976 226.268 169.191 225.285 170.221C224.302 171.251 223.191 172.177 222.409 173.364C221.446 174.835 221.013 176.658 219.762 177.901C219.281 178.353 218.741 178.737 218.157 179.043C217.503 179.429 216.81 179.748 216.091 179.993C214.222 180.591 212.209 180.454 210.255 180.31C209.621 180.304 208.993 180.183 208.402 179.953C208.133 179.817 207.875 179.658 207.632 179.48C207.142 179.179 206.73 178.767 206.429 178.278C206.805 178.097 207.215 177.999 207.632 177.989C208.498 178.037 209.132 178.855 209.962 179.108C211.146 179.464 212.325 178.631 213.524 178.346C214.306 178.162 215.129 178.21 215.903 177.945C216.548 177.696 217.144 177.335 217.664 176.879C218.376 176.37 219.01 175.76 219.545 175.067C219.989 174.375 220.359 173.637 220.648 172.867C221.281 171.39 222.027 169.964 222.878 168.602C223.004 168.386 223.156 168.187 223.331 168.008C223.52 167.836 223.733 167.716 223.945 167.564C224.747 166.958 225.08 165.96 225.361 164.982C225.437 164.685 225.543 164.396 225.678 164.12C225.928 164.118 226.175 164.176 226.398 164.29C226.621 164.404 226.813 164.57 226.958 164.774C227.303 165.303 227.438 165.942 227.339 166.566Z" fill="#464353"/>
<path d="M143.23 41.5942C144.228 42.3419 145.05 43.2998 145.636 44.4001C146.198 45.4983 149.435 54.02 149.246 55.2586C150.301 54.1964 154.461 54.024 155.528 52.9618C155.973 52.5169 158.376 50.2963 158.737 49.7792C159.098 49.2621 161.777 48.1759 162.07 47.6308C163.165 45.6707 154.304 38.2433 155.439 36.3073C155.502 36.2183 155.535 36.1115 155.532 36.0026C155.506 35.9113 155.454 35.8292 155.383 35.7662C154.657 35.0246 153.695 34.5637 152.82 34.0145C151.946 33.4654 151.103 32.6998 150.867 31.6897C150.033 32.0733 149.267 32.5905 148.6 33.2209C146.975 34.6131 145.377 36.0334 143.807 37.4817C143.193 38.0509 142.006 38.8085 141.721 39.6221C141.384 40.496 142.644 41.1172 143.23 41.5942Z" fill="#A1616A"/>
<path d="M157.573 38.4398C156.214 39.3527 154.943 40.3914 153.779 41.5422C152.68 42.6285 151.637 43.8871 151.372 45.4063C151.26 46.0035 151.276 46.6088 151.183 47.214C150.782 49.8395 148.512 51.7634 147.509 54.2205C147.219 54.9789 147.005 55.7644 146.871 56.5654C146.59 58.0837 146.435 59.6229 146.41 61.1669C146.386 62.662 147.854 63.6922 148.392 65.0871C148.929 66.482 149.074 67.9169 149.346 69.3479C149.86 72.0495 150.802 74.6549 151.753 77.2443C153.731 82.7036 160.14 97.7949 162.118 103.258C168.179 101.739 184.311 98.2478 189.678 95.0452C191.467 93.979 177.264 81.95 179.177 81.1203C179.286 81.1033 179.39 81.0611 179.481 80.9971C179.571 80.933 179.645 80.8489 179.697 80.7513C179.749 80.6538 179.778 80.5454 179.781 80.4348C179.784 80.3243 179.761 80.2145 179.715 80.1142C177.801 71.7529 171.817 64.8826 169.101 56.7418C168.159 53.9159 166.466 51.5029 165.182 48.8173C164.019 46.3843 163.397 43.6947 162.005 41.3819C161.743 40.9054 161.4 40.4782 160.991 40.1193C160.644 39.8533 160.268 39.6261 159.872 39.4419C159.077 39.0571 158.339 38.8286 157.573 38.4398Z" fill="#514E7F"/>
<path d="M143.55 40.6443C148.789 40.6443 153.036 36.4001 153.036 31.1646C153.036 25.9291 148.789 21.6849 143.55 21.6849C138.311 21.6849 134.064 25.9291 134.064 31.1646C134.064 36.4001 138.311 40.6443 143.55 40.6443Z" fill="#A1616A"/>
<path d="M153.201 35.6179C153.674 35.1821 154.268 34.8998 154.905 34.8082C155.541 34.7166 156.191 34.82 156.767 35.1048C157.409 35.4375 157.971 36.1109 157.826 36.8163L162.531 36.8885C163.28 36.868 164.029 36.9366 164.761 37.0929C165.499 37.2533 166.157 37.6659 166.623 38.2593C166.679 38.3355 166.743 38.4277 166.839 38.4397C166.917 38.4409 166.994 38.4155 167.056 38.3676C167.78 38.0048 168.595 37.8653 169.398 37.9667C171.941 38.1311 174.292 39.4017 176.285 40.989C176.645 41.236 176.924 41.583 177.088 41.9871C177.252 42.5202 177.055 43.1896 177.489 43.5703C177.489 47.9795 179.005 52.1 180.016 56.3969C180.196 57.1625 180.93 57.8399 181.44 58.4412C182.069 59.1077 182.583 59.8745 182.96 60.7099C183.818 62.9385 182.635 65.5599 183.469 67.7966C183.822 68.7425 184.504 69.5202 185.074 70.3419C185.825 71.2907 186.299 72.4279 186.446 73.6287C186.482 74.1658 186.413 74.7069 186.446 75.232C186.499 75.9542 186.634 76.6681 186.847 77.3604C187.189 78.6538 187.547 79.9458 187.922 81.2364C188.531 83.3208 189.326 85.5694 191.195 86.6797C186.682 87.4453 181.925 88.1949 177.625 86.6276C177.025 86.4232 176.456 86.1387 175.932 85.7819C174.38 84.6756 173.63 82.7837 172.96 80.9959C172.214 78.9918 171.456 76.9516 171.304 74.8191C171.305 74.1409 171.209 73.466 171.019 72.815C170.582 71.6526 169.414 70.9511 168.355 70.3058C167.16 69.651 166.076 68.8093 165.146 67.8126C164.685 67.3106 164.332 66.7193 164.108 66.0754C163.885 65.4314 163.796 64.7485 163.847 64.0689C163.927 63.4075 164.188 62.7702 164.212 62.1048C164.236 61.4394 163.939 60.6778 163.301 60.5015C160.016 59.5074 158.448 55.6193 157.718 52.2684C157.403 50.5365 157.262 48.7774 157.297 47.0175L157.253 43.5984C156.799 43.1863 156.435 42.6862 156.181 42.1287C155.927 41.5713 155.789 40.968 155.776 40.3557C155.82 39.9984 155.813 39.6368 155.756 39.2814C155.598 38.8471 155.339 38.4558 155.002 38.1391C154.277 37.3952 153.67 36.545 153.201 35.6179Z" fill="#464353"/>
<path d="M143.097 46.4563C142.988 47.5145 143.229 48.6008 142.992 49.6389C142.9 50.0398 142.74 50.4406 142.623 50.8134C142.268 52.3076 142.422 53.8777 143.061 55.2746C143.699 56.6578 144.463 57.9794 145.343 59.2228C145.641 59.6473 145.886 60.1062 146.073 60.5897C146.225 61.0973 146.319 61.6203 146.354 62.1489C146.586 64.2715 146.959 66.3765 147.469 68.45C147.918 70.2457 153.02 85.5975 154.208 87.0205C154.423 87.3355 154.75 87.5575 155.122 87.6417C155.391 87.6519 155.658 87.5968 155.9 87.4814L158.307 86.5595C158.512 86.4969 158.701 86.3933 158.864 86.2549C159.09 85.9915 159.213 85.6555 159.209 85.3089C159.382 83.3529 154.268 67.8928 153.618 66.045C151.652 60.4654 149.037 55.0862 147.758 49.3103C147.401 47.7069 147.212 45.2378 146.037 43.9592C145.551 43.4301 145.716 43.6545 145.134 43.9311C144.84 44.0586 144.556 44.2073 144.284 44.376C143.944 44.6125 143.66 44.9221 143.455 45.282C143.249 45.6419 143.127 46.0431 143.097 46.4563Z" fill="#464353"/>
<path d="M150.402 57.0424C151.047 60.4535 151.713 63.8565 152.375 67.2676L161.793 64.8025C161.869 63.8164 161.344 62.9025 160.991 61.9966C160.133 59.8442 160.113 57.4472 159.419 55.2346C158.893 53.5511 157.979 52.0039 157.485 50.3084C157.201 49.3224 157.056 48.3043 156.775 47.3062C156.474 46.326 156.104 45.3684 155.668 44.4402C155.14 43.0942 154.45 41.817 153.615 40.6364C152.411 41.0853 151.128 41.6064 150.442 42.6926C150.09 43.3047 149.889 43.9917 149.856 44.6968C149.692 46.8092 150.458 48.9336 150.205 51.0339C149.945 53.0342 150.011 55.0634 150.402 57.0424Z" fill="#6C63FF"/>
<path d="M161.949 102.416C162.479 104.421 161.712 106.529 161.087 108.513C160.145 111.502 159.502 114.576 159.169 117.692C159.129 118.485 158.969 119.267 158.696 120.013C158.399 120.682 157.894 121.248 157.549 121.885C156.602 123.56 156.626 125.605 156.831 127.521C156.967 128.783 157.172 130.042 157.424 131.284C157.733 132.803 158.114 134.391 157.669 135.874C158.415 135.709 158.921 136.675 158.873 137.433C158.824 138.191 158.58 139.036 158.945 139.69C159.867 140.026 159.875 141.293 159.847 142.275C159.863 143.978 160.078 145.673 160.489 147.326C161.885 154.033 163.366 160.721 164.933 167.391C168.323 168.441 172.282 169.536 175.515 168.081C176.116 167.812 176.718 167.383 176.854 166.734C176.89 166.384 176.846 166.03 176.726 165.7L175.194 160.128C174.821 158.781 174.448 157.39 174.644 156.008C174.793 154.977 175.242 153.867 174.737 152.957C174.564 152.645 174.291 152.4 174.091 152.103C173.289 150.929 173.71 149.358 173.774 147.935C173.799 147.615 173.777 147.294 173.71 146.981C173.6 146.615 173.446 146.264 173.252 145.935C171.986 143.478 171.378 140.735 171.488 137.974C171.535 137.622 171.487 137.263 171.347 136.936C171.25 136.801 171.163 136.659 171.086 136.511C171.027 136.254 171.056 135.984 171.171 135.746C170.711 135.397 170.296 134.993 169.935 134.543C170.158 134.405 170.346 134.218 170.485 133.996C170.625 133.775 170.712 133.525 170.741 133.264C170.77 133.004 170.739 132.741 170.65 132.494C170.562 132.248 170.419 132.025 170.232 131.841C170.396 131.809 170.547 131.731 170.669 131.617C170.791 131.504 170.879 131.358 170.924 131.198C170.968 131.037 170.967 130.867 170.921 130.707C170.875 130.547 170.785 130.402 170.661 130.29C170.465 130.154 170.204 130.094 170.064 129.889C169.847 129.593 170.023 129.18 170.2 128.863L171.135 127.176C171.832 125.921 171.989 124.37 172.739 123.167C173.814 121.416 174.516 119.464 175.21 117.532L177.909 110.088L179.726 111.664C180.332 112.126 180.839 112.703 181.219 113.363C181.477 114.015 181.64 114.701 181.704 115.399C182.37 119.44 184.913 122.943 185.855 126.923C186.064 127.809 186.204 128.739 186.714 129.497C186.896 129.729 187.06 129.976 187.203 130.234C187.336 130.628 187.405 131.041 187.408 131.457C187.492 132.271 187.75 133.057 188.166 133.763C188.581 134.468 189.143 135.076 189.814 135.545C190.709 136.158 191.82 136.579 192.305 137.549C192.402 137.85 192.537 138.137 192.706 138.403C193.14 138.924 194.074 138.984 194.259 139.638C194.363 140.002 194.17 140.439 194.375 140.76C194.491 140.908 194.645 141.023 194.82 141.093L197.431 142.395C200.352 143.854 201.844 147.205 203.998 149.646C204.742 150.441 205.4 151.312 205.963 152.244C206.894 153.907 207.323 155.996 208.895 157.054C209.318 157.273 209.703 157.558 210.034 157.899C210.528 158.549 210.347 159.459 210.391 160.276C210.436 161.094 211.061 162.068 211.839 161.82C211.567 162.81 211.567 163.856 211.839 164.846C215.256 164.671 218.514 163.352 221.089 161.102C221.851 160.437 222.585 159.587 222.593 158.577C222.605 158.403 222.566 158.229 222.481 158.076C222.327 157.879 222.123 157.725 221.891 157.631C219.449 156.308 218.715 153.242 217.479 150.753C216.4 148.556 214.804 146.664 213.468 144.624C210.564 140.235 208.582 134.924 204.19 132.026C203.224 131.389 202.1 130.823 201.615 129.769C201.346 129.18 201.314 128.507 201.102 127.897C200.889 127.288 200.38 126.695 199.73 126.695C200.091 125.813 200.019 124.739 200.043 123.785C200.067 123.361 200.019 122.937 199.898 122.53C199.731 122.093 199.515 121.676 199.253 121.288C198.107 119.349 197.534 117.125 197.6 114.874C197.632 113.716 197.837 112.521 197.488 111.415C197.311 110.858 197.002 110.349 196.79 109.812C196.469 108.839 196.3 107.822 196.288 106.798L196.048 102.946C196.011 101.663 195.845 100.387 195.55 99.1377C194.748 96.1475 193.946 83.6215 191.198 82.2106C188.451 80.7996 183.729 90.4396 180.637 90.628C179.269 90.6849 177.917 90.9457 176.626 91.4016C174.568 92.1712 172.843 93.6062 171.163 95.0091L165.475 99.783C164.271 100.773 163.277 101.719 161.949 102.416Z" fill="#464353"/>
<path d="M134.649 20.6389C135.901 18.9313 138.051 18.0254 140.169 17.9493C142.286 17.8731 144.372 18.5385 146.269 19.4805C146.829 19.7987 147.428 20.0439 148.05 20.21C149.053 20.4144 150.168 20.1418 151.075 20.6108C152.278 21.2481 152.511 22.8715 152.406 24.2183C152.302 25.5651 152.05 27.0602 152.767 28.2266C153.022 28.5593 153.254 28.9088 153.461 29.2728C153.77 29.9662 153.59 30.7679 153.405 31.5014C152.936 31.1006 152.671 30.4953 152.254 30.0303C151.837 29.5654 151.111 29.2527 150.593 29.6015C150.076 29.9502 150.084 30.5835 150.056 31.1527C150.028 31.7218 149.883 32.4033 149.346 32.5876C149.121 32.6387 148.887 32.6213 148.672 32.5377C148.458 32.4541 148.273 32.3081 148.143 32.1187C147.224 30.9963 147.593 29.2046 146.683 28.0743C146.165 27.433 145.303 27.1203 144.825 26.4469C144.448 25.9178 144.352 25.2444 144.023 24.6752C143.694 24.1061 142.928 23.6892 142.419 24.082C142.245 24.248 142.1 24.4417 141.99 24.6552C141.672 25.1099 141.21 25.4442 140.679 25.6042C140.147 25.7643 139.578 25.7406 139.061 25.537C138.667 25.2951 138.24 25.1102 137.794 24.9879C137.502 24.9733 137.211 25.0406 136.955 25.1823C136.7 25.3239 136.488 25.5343 136.346 25.7896C136.058 26.2996 135.919 26.88 135.945 27.465C135.945 28.2667 136.089 29.1205 135.632 29.7618C135.458 30.0032 135.24 30.2099 134.99 30.371C134.32 30.7999 133.386 31.0885 132.768 30.5995C132.559 30.4047 132.403 30.1593 132.316 29.8869C132.229 29.6145 132.213 29.3244 132.271 29.0443C132.391 28.4864 132.549 27.9373 132.744 27.4009C133.097 26.1583 132.636 24.7594 133.021 23.589C133.424 22.5349 133.972 21.542 134.649 20.6389Z" fill="#464353"/>
<path d="M139.732 48.9174C139.671 49.2095 139.702 49.5131 139.82 49.7872C139.939 49.9738 140.101 50.1292 140.293 50.2401C141.642 51.0798 143.176 51.5766 144.762 51.6871C144.977 51.6908 145.189 51.7458 145.379 51.8474C145.756 52.0959 145.78 52.6491 145.64 53.09C145.453 53.5059 145.356 53.9567 145.355 54.4127C145.472 55.2505 146.466 55.6152 147.305 55.7395C148.48 55.8878 149.767 55.8116 150.698 55.0781C151.328 54.5036 151.809 53.784 152.098 52.9818C154.4 47.6948 155.207 41.8507 157.537 36.5798C157.714 36.2356 157.832 35.8644 157.886 35.4815C157.911 35.2898 157.883 35.095 157.807 34.9174C157.731 34.7398 157.609 34.5858 157.453 34.4714C157.02 34.2028 156.346 34.3552 156.053 33.9343C155.908 33.7218 155.925 33.4332 155.796 33.2088C155.527 32.7318 154.821 32.8079 154.34 32.5314C153.963 32.331 153.702 31.9181 153.281 31.8379C153.074 31.8263 152.868 31.8629 152.678 31.945C152.488 32.0271 152.319 32.1524 152.186 32.3109C150.818 33.5856 150.1 35.3933 149.338 37.1008C148.175 39.7182 146.812 42.2428 145.263 44.6525C145.443 44.3719 144.397 42.2475 143.987 42.1553C143.269 42.011 142.351 43.2696 141.962 43.7386C140.741 45.2179 139.967 47.0143 139.732 48.9174Z" fill="#6C63FF"/>
<path opacity="0.1" d="M154.305 32.9043C154.016 32.9091 153.733 32.9786 153.475 33.1076C153.218 33.2367 152.993 33.422 152.816 33.6498C152.387 34.207 152.303 34.9445 152.195 35.654C151.83 37.9017 151.027 40.0561 149.832 41.9951" fill="black"/>
<path opacity="0.1" d="M156.35 34.5034C155.953 34.5123 155.564 34.6245 155.223 34.829C154.882 35.0335 154.6 35.3233 154.405 35.6698C154.139 36.3003 153.974 36.9684 153.916 37.6499C153.572 39.1609 152.908 40.5809 151.97 41.8146" fill="black"/>
<path d="M251.678 112.866V107.888C251.677 104.223 250.22 100.709 247.626 98.1176C245.032 95.5266 241.515 94.071 237.848 94.071H41.106C37.4387 94.071 33.9215 95.5266 31.3279 98.1176C28.7343 100.709 27.2767 104.223 27.2756 107.888V117.067L251.678 112.866Z" fill="#33323D"/>
<path d="M95.8381 88.2349C95.8381 88.2349 95.2766 123.051 101.454 134.507C107.631 145.963 110.278 195.798 110.278 195.798C110.278 195.798 175.034 202.492 220.159 187.781C265.284 173.071 361.303 167.054 361.303 167.054L345.122 58.0723C345.122 58.0723 265.184 52.9497 219.71 74.6227C174.236 96.2956 95.8381 88.2349 95.8381 88.2349Z" fill="#8DD070"/>
<path opacity="0.1" d="M95.8381 88.2349C95.8381 88.2349 95.2766 123.051 101.454 134.507C107.631 145.963 110.278 195.798 110.278 195.798C110.278 195.798 175.034 202.492 220.159 187.781C265.284 173.071 361.303 167.054 361.303 167.054L345.122 58.0723C345.122 58.0723 265.184 52.9497 219.71 74.6227C174.236 96.2956 95.8381 88.2349 95.8381 88.2349Z" fill="black"/>
<path d="M110.17 100.953C110.17 100.953 108.144 129.681 113.227 138.86C118.309 148.039 118.545 189.016 118.545 189.016C118.545 189.016 176.823 191.717 218.278 177.616C259.733 163.515 346.847 154.368 346.847 154.368L336.947 65.2431C336.947 65.2431 264.867 64.5016 222.799 84.3507C180.73 104.2 110.17 100.953 110.17 100.953Z" fill="#8DD070"/>
<path opacity="0.1" d="M222.159 161.298C230.451 160.266 235.377 145.023 233.162 127.251C230.946 109.479 222.429 95.9089 214.137 96.941C205.845 97.9731 200.919 113.217 203.134 130.988C205.349 148.76 213.867 162.33 222.159 161.298Z" fill="black"/>
<path opacity="0.2" d="M301.296 4.98218C301.296 4.98218 223.637 24.6229 187.015 59.1946C150.393 93.7663 73.2994 110.136 73.2994 110.136C73.2994 110.136 83.4556 143.441 92.8497 152.452C102.244 161.463 120.061 208.087 120.061 208.087C120.061 208.087 183.746 194.595 222.172 166.746C260.599 138.896 350.156 103.723 350.156 103.723L301.296 4.98218Z" fill="black"/>
<path d="M72.1322 105.15C72.1322 105.15 82.2844 138.459 91.6704 147.47C101.056 156.48 118.882 203.101 118.882 203.101C118.882 203.101 182.575 189.613 221.005 161.763C259.436 133.914 348.984 98.7528 348.984 98.7528L300.125 0C300.125 0 222.469 19.6407 185.848 54.2124C149.226 88.7841 72.1322 105.15 72.1322 105.15Z" fill="#8DD070"/>
<path opacity="0.1" d="M72.1322 105.15C72.1322 105.15 82.2844 138.459 91.6704 147.47C101.056 156.48 118.882 203.101 118.882 203.101C118.882 203.101 182.575 189.613 221.005 161.763C259.436 133.914 348.984 98.7528 348.984 98.7528L300.125 0C300.125 0 222.469 19.6407 185.848 54.2124C149.226 88.7841 72.1322 105.15 72.1322 105.15Z" fill="black"/>
<path d="M89.665 112.862C89.665 112.862 96.5602 140.828 104.217 148.003C111.875 155.178 124.674 194.098 124.674 194.098C124.674 194.098 180.966 178.795 216.092 152.66C251.217 126.526 331.327 91.1449 331.327 91.1449L294.541 9.32727C294.541 9.32727 225.714 30.7196 191.768 62.5135C157.822 94.3075 89.665 112.862 89.665 112.862Z" fill="#8DD070"/>
<path opacity="0.1" d="M214.793 135.953C222.368 132.428 222.375 116.41 214.81 100.174C207.244 83.9394 194.971 73.6358 187.396 77.1608C179.821 80.6858 179.813 96.7045 187.378 112.94C194.944 129.175 207.218 139.478 214.793 135.953Z" fill="black"/>
<path opacity="0.1" d="M256.989 117.752V256.039C256.989 257.609 256.68 259.165 256.078 260.615C255.477 262.066 254.595 263.385 253.484 264.495C252.372 265.605 251.053 266.486 249.6 267.087C248.148 267.687 246.592 267.996 245.02 267.996H39.2494C36.0767 267.995 33.0344 266.734 30.7913 264.492C28.5483 262.25 27.2882 259.209 27.2882 256.039V103.811C33.1846 106 33.1846 106 39.2494 105.815H245.02C248.191 105.815 251.231 107.072 253.475 109.31C255.719 111.548 256.983 114.584 256.989 117.752Z" fill="black"/>
<path d="M256.989 119.512V257.798C256.988 260.97 255.727 264.011 253.482 266.253C251.238 268.496 248.194 269.755 245.02 269.755H39.2494C36.0767 269.754 33.0344 268.494 30.7913 266.252C28.5483 264.009 27.2882 260.969 27.2882 257.798V105.567C33.1846 107.751 33.1846 107.751 39.2494 107.571H245.02C248.191 107.571 251.233 108.828 253.477 111.067C255.721 113.306 256.984 116.343 256.989 119.512Z" fill="#504F60"/>
<path opacity="0.1" d="M256.403 170.638V214.862H213.484C207.667 214.783 202.115 212.419 198.029 208.281C193.944 204.143 191.653 198.563 191.653 192.75C191.653 186.936 193.944 181.357 198.029 177.218C202.115 173.08 207.667 170.716 213.484 170.638H256.403Z" fill="black"/>
<path d="M256.989 169.459V213.691H214.07C208.253 213.613 202.7 211.249 198.615 207.11C194.529 202.972 192.238 197.392 192.238 191.579C192.238 185.766 194.529 180.186 198.615 176.048C202.7 171.91 208.253 169.546 214.07 169.467L256.989 169.459Z" fill="#33323D"/>
<path opacity="0.1" d="M216.127 201.373C220.892 201.373 224.755 197.513 224.755 192.752C224.755 187.99 220.892 184.13 216.127 184.13C211.362 184.13 207.499 187.99 207.499 192.752C207.499 197.513 211.362 201.373 216.127 201.373Z" fill="black"/>
<path d="M216.713 200.203C221.478 200.203 225.341 196.343 225.341 191.581C225.341 186.819 221.478 182.959 216.713 182.959C211.948 182.959 208.085 186.819 208.085 191.581C208.085 196.343 211.948 200.203 216.713 200.203Z" fill="#6C63FF"/>
<path d="M331.488 169.079C331.828 172.77 329.033 176.354 329.847 179.969C330.023 180.743 330.356 181.472 330.477 182.254C330.814 184.402 329.534 186.435 328.311 188.23L317.802 203.638C317.381 204.316 316.877 204.938 316.301 205.49C314.296 207.278 311.279 207.093 308.64 207.627C306.785 208.003 305.033 208.777 303.506 209.895C303.442 209.95 303.401 210.027 303.392 210.11C303.384 210.194 303.407 210.277 303.458 210.344C303.894 210.938 304.472 211.413 305.139 211.726C305.806 212.039 306.541 212.18 307.276 212.136C307.553 212.501 307.276 213.034 306.875 213.294C306.31 213.695 305.536 213.791 305.423 214.745C305.383 215.078 305.451 215.415 305.616 215.707C306.039 216.355 306.698 216.814 307.453 216.986C311.091 218.096 315.022 216.144 317.745 213.487C320.469 210.829 322.422 207.474 325.094 204.769C326.574 203.274 328.255 201.991 329.779 200.54C332.819 197.646 335.182 194.127 337.464 190.603C338.15 189.541 338.84 188.451 339.129 187.22C339.418 185.99 339.281 184.747 339.606 183.557C340.031 181.993 341.174 180.751 342.125 179.44C343.99 176.875 345.234 173.736 344.989 170.578C344.744 167.419 342.783 164.297 339.799 163.222C338.874 162.851 337.853 162.789 336.891 163.046C335.667 163.423 334.765 164.433 333.93 165.399L331.925 167.704C331.425 168.209 331.029 168.809 330.762 169.467C330.633 169.798 330.603 170.159 330.674 170.506C330.745 170.854 330.915 171.174 331.163 171.427" fill="#FBBEBE"/>
<path opacity="0.05" d="M331.488 169.079C331.828 172.77 329.033 176.354 329.847 179.969C330.023 180.743 330.356 181.472 330.477 182.254C330.814 184.402 329.534 186.435 328.311 188.23L317.802 203.638C317.381 204.316 316.877 204.938 316.301 205.49C314.296 207.278 311.279 207.093 308.64 207.627C306.785 208.003 305.033 208.777 303.506 209.895C303.442 209.95 303.401 210.027 303.392 210.11C303.384 210.194 303.407 210.277 303.458 210.344C303.894 210.938 304.472 211.413 305.139 211.726C305.806 212.039 306.541 212.18 307.276 212.136C307.553 212.501 307.276 213.034 306.875 213.294C306.31 213.695 305.536 213.791 305.423 214.745C305.383 215.078 305.451 215.415 305.616 215.707C306.039 216.355 306.698 216.814 307.453 216.986C311.091 218.096 315.022 216.144 317.745 213.487C320.469 210.829 322.422 207.474 325.094 204.769C326.574 203.274 328.255 201.991 329.779 200.54C332.819 197.646 335.182 194.127 337.464 190.603C338.15 189.541 338.84 188.451 339.129 187.22C339.418 185.99 339.281 184.747 339.606 183.557C340.031 181.993 341.174 180.751 342.125 179.44C343.99 176.875 345.234 173.736 344.989 170.578C344.744 167.419 342.783 164.297 339.799 163.222C338.874 162.851 337.853 162.789 336.891 163.046C335.667 163.423 334.765 164.433 333.93 165.399L331.925 167.704C331.425 168.209 331.029 168.809 330.762 169.467C330.633 169.798 330.603 170.159 330.674 170.506C330.745 170.854 330.915 171.174 331.163 171.427" fill="black"/>
<path d="M339.442 264.116C337.147 265.515 334.287 265.599 331.62 265.274C331.191 265.222 330.681 265.19 330.417 265.523C330.015 266.004 330.489 266.725 330.978 267.098C332.551 268.278 334.4 269.039 336.349 269.307C338.089 269.553 339.846 269.67 341.604 269.655C346.417 269.739 351.23 269.82 355.967 269.13C356.248 269.109 356.521 269.03 356.77 268.898C357.075 268.683 357.287 268.361 357.363 267.996C357.688 266.761 357.062 265.439 356.116 264.581C355.169 263.723 353.954 263.246 352.766 262.785L348.595 261.162C347.616 260.781 346.048 259.771 344.985 259.851C342.987 259.995 341.098 263.146 339.442 264.116Z" fill="#3F3D56"/>
<path opacity="0.05" d="M339.442 264.116C337.147 265.515 334.287 265.599 331.62 265.274C331.191 265.222 330.681 265.19 330.417 265.523C330.015 266.004 330.489 266.725 330.978 267.098C332.551 268.278 334.4 269.039 336.349 269.307C338.089 269.553 339.846 269.67 341.604 269.655C346.417 269.739 351.23 269.82 355.967 269.13C356.248 269.109 356.521 269.03 356.77 268.898C357.075 268.683 357.287 268.361 357.363 267.996C357.688 266.761 357.062 265.439 356.116 264.581C355.169 263.723 353.954 263.246 352.766 262.785L348.595 261.162C347.616 260.781 346.048 259.771 344.985 259.851C342.987 259.995 341.098 263.146 339.442 264.116Z" fill="black"/>
<path d="M342.365 208.777C340.629 211.086 338.832 213.751 339.261 216.609C339.493 218.148 340.356 219.507 340.99 220.93C341.848 222.862 342.297 224.938 342.738 227.007C343.388 230.029 344.042 233.059 344.439 236.13C344.892 239.597 342.763 249.63 342.566 253.121C342.518 253.963 342.418 254.872 341.832 255.478C341.603 255.718 341.298 255.911 341.194 256.223C341.133 256.525 341.183 256.838 341.335 257.105C342.313 259.31 344.315 260.953 346.549 261.891C348.783 262.829 354.17 264.448 356.605 264.533C356.926 264.568 357.251 264.525 357.552 264.408C357.875 264.211 358.13 263.918 358.282 263.571C360.026 260.236 358.35 248.379 358.374 244.615C358.398 241.477 359.14 238.358 359.004 235.224C358.891 232.707 358.201 230.245 357.973 227.736C357.572 223.624 358.326 219.491 359.084 215.427C359.661 212.308 360.243 209.19 360.985 206.111C361.438 204.232 361.964 202.336 362.991 200.704C363.793 199.41 364.92 198.327 365.855 197.097C368.449 193.698 369.601 189.416 369.063 185.176C369.007 184.775 363.047 186.687 362.521 186.916C360.377 187.823 358.405 189.09 356.689 190.663C355.309 191.978 354.222 193.734 353.015 195.205C351.306 197.286 349.619 199.383 347.953 201.494C346.052 203.907 344.189 206.335 342.365 208.777Z" fill="#464353"/>
<path opacity="0.05" d="M342.365 208.637C340.629 210.945 338.832 213.615 339.261 216.469C339.493 218.012 340.356 219.371 340.99 220.794C341.848 222.722 342.297 224.802 342.738 226.866C343.388 229.893 344.042 232.923 344.439 235.989C344.892 239.461 342.763 249.489 342.566 252.981C342.518 253.822 342.418 254.736 341.832 255.342C341.603 255.578 341.298 255.77 341.194 256.083C341.133 256.384 341.183 256.698 341.335 256.965C342.313 259.173 344.315 260.813 346.549 261.775C348.783 262.737 354.17 263.575 356.605 263.655C356.926 263.69 357.251 263.647 357.552 263.53C357.876 263.336 358.131 263.044 358.282 262.697C360.026 259.362 358.35 248.267 358.374 244.499C358.398 241.357 359.14 238.242 359.004 235.104C358.891 232.586 358.201 230.125 357.973 227.62C357.572 223.503 358.326 219.371 359.084 215.307C359.661 212.192 360.243 209.074 360.985 205.991C361.438 204.111 361.964 202.215 362.991 200.584C363.793 199.289 364.92 198.207 365.855 196.977C368.449 193.578 369.602 189.296 369.064 185.056C369.007 184.655 363.047 186.567 362.521 186.795C360.378 187.705 358.406 188.974 356.689 190.547C355.309 191.858 354.222 193.614 353.015 195.085C351.306 197.166 349.619 199.264 347.953 201.378C346.052 203.772 344.189 206.192 342.365 208.637Z" fill="black"/>
<path d="M323.04 157.927C328.417 157.927 332.775 153.572 332.775 148.199C332.775 142.827 328.417 138.471 323.04 138.471C317.664 138.471 313.305 142.827 313.305 148.199C313.305 153.572 317.664 157.927 323.04 157.927Z" fill="#FBBEBE"/>
<path d="M331.809 147.791C332.708 149.224 333.887 150.462 335.276 151.43C336.664 152.399 338.234 153.077 339.891 153.426L339.157 156.092C337.889 160.669 336.465 165.511 332.928 168.686C333.329 167.135 332.815 165.479 331.941 164.132C331.066 162.786 329.839 161.727 328.636 160.681L323.032 155.831C322.87 155.7 322.734 155.539 322.631 155.358C322.493 155.016 322.493 154.634 322.631 154.292C323.345 152.071 325.383 150.685 327.043 149.185C327.877 148.41 328.621 147.544 329.261 146.604C330.381 145.009 331.074 146.612 331.809 147.791Z" fill="#FBBEBE"/>
<path d="M310.217 138.419L309.996 136.591C311.532 136.992 312.992 135.685 313.975 134.335C314.958 132.984 315.868 131.392 317.364 130.827C319.181 130.146 321.107 131.228 322.844 132.142C324.788 133.22 326.922 133.914 329.129 134.186C329.481 134.198 329.83 134.254 330.168 134.355C331.299 134.755 331.837 136.174 332.001 137.461C332.165 138.748 332.121 140.115 332.679 141.261C333.08 142.131 333.826 142.776 334.283 143.634C335.487 145.935 334.323 149.081 335.579 151.338L332.458 148.48C332.173 148.219 331.772 147.947 331.455 148.167C331.207 148.344 331.187 148.724 331.086 149.029C330.786 149.919 329.671 150.183 328.864 149.831C328.058 149.478 327.468 148.712 326.859 148.015C325.479 146.388 323.834 144.957 321.909 144.263C321.065 143.948 320.164 143.816 319.265 143.875C318.366 143.934 317.49 144.184 316.695 144.608C315.238 145.43 314.172 147.346 312.387 147.414C309.94 147.506 308.921 142.952 307.79 141.153C308.204 140.841 308.495 140.395 308.612 139.89C308.73 139.386 308.666 138.857 308.432 138.395C308.596 138.327 310.18 138.138 310.217 138.419Z" fill="#464353"/>
<path d="M189.807 81.545C189.025 82.2403 188.302 82.9991 187.645 83.8137C186.984 84.6397 186.632 85.6703 186.65 86.7278C186.654 87.0345 186.752 87.3326 186.931 87.5816C187.022 87.7007 187.149 87.7883 187.293 87.8322C187.437 87.876 187.591 87.8739 187.733 87.8261C187.894 87.7439 188.032 87.6227 188.134 87.4733C188.558 86.9643 189.008 86.4773 189.482 86.0143C189.654 85.842 189.883 85.6616 190.116 85.7257C190.22 85.7627 190.314 85.8246 190.388 85.9061C190.658 86.1392 190.855 86.4455 190.954 86.7879C191.094 87.4012 190.737 88.0145 190.332 88.4955C189.927 88.9765 189.45 89.4374 189.285 90.0427C189.223 90.2025 189.223 90.3798 189.285 90.5397C189.363 90.6553 189.471 90.747 189.598 90.8042C190.173 91.1203 190.81 91.3063 191.464 91.3493C192.118 91.3922 192.774 91.291 193.385 91.0528C194.187 90.7281 194.901 90.1709 195.727 89.8823C196.085 89.7845 196.432 89.6502 196.762 89.4815C196.999 89.3243 197.201 89.1219 197.359 88.8859C197.517 88.6499 197.626 88.3851 197.681 88.1066C197.785 87.5503 197.805 86.9815 197.741 86.4191C197.641 84.2417 197.174 82.0966 196.361 80.074C196.314 79.9435 196.234 79.8275 196.128 79.7373C196.008 79.6638 195.869 79.6262 195.727 79.6291C194.7 79.5208 193.016 78.9958 192.025 79.3765C191.678 79.5664 191.38 79.8323 191.151 80.1542C190.966 80.3586 189.807 81.2765 189.807 81.545Z" fill="#A1616A"/>
<path d="M189.482 80.6392C189.482 79.6612 188.279 77.3003 190.192 77.144C190.192 76.0978 188.712 75.4484 188.989 74.3381C189.077 73.9694 189.39 73.6687 189.426 73.292C189.546 72.2217 187.613 71.6405 187.934 70.6144C188.054 70.2136 188.479 69.9811 188.572 69.5843C188.788 68.6584 187.132 68.2455 187.1 67.2955C187.1 66.9749 187.28 66.6742 187.264 66.3536C187.264 65.9527 186.915 65.6481 186.722 65.2994C186.221 64.4055 186.466 63.0227 185.551 62.5617C186.157 62.6138 186.353 61.716 186.105 61.1668C185.856 60.6177 185.347 60.1407 185.343 59.5314C185.373 59.3107 185.373 59.0868 185.343 58.8661C185.174 58.2808 184.216 58.2327 184.055 57.6636C184.034 57.4451 184.028 57.2255 184.035 57.0062C183.971 56.5533 183.506 56.2647 183.068 56.1364C182.614 56.0593 182.177 55.9033 181.777 55.6754C181.496 55.463 181.171 55.1103 180.87 55.2746C180.758 55.3428 180.702 55.471 180.618 55.5672C180.257 55.9881 179.567 55.8037 179.113 55.4951C177.774 54.5852 177.108 52.9538 176.823 51.3625C176.538 49.7712 176.546 48.1278 176.189 46.5525C176.08 46.0616 175.936 45.5793 175.756 45.1095C175.604 44.7087 175.114 44.0794 175.082 43.6746C175.01 42.7526 176.919 43.382 177.645 43.4741C178.35 43.5429 179.047 43.6771 179.727 43.875C180.453 44.149 181.164 44.4607 181.857 44.8089C184.753 46.0876 188.251 46.2439 190.577 48.3923C191.343 49.0978 191.989 50.0237 192.984 50.3444C193.44 50.4318 193.89 50.5483 194.332 50.6931C195.435 51.2102 195.607 52.6732 196.209 53.7314C196.398 54.0109 196.563 54.3059 196.702 54.6132C196.818 54.9757 196.872 55.3551 196.863 55.7356L196.947 58.5133C197.083 63.167 197.22 67.8326 196.722 72.4582C196.562 73.9854 196.321 75.5567 196.774 77.0237C196.895 77.4245 197.063 77.8013 197.175 78.2062C197.275 78.6808 197.326 79.1643 197.328 79.6492L197.392 81.4489C197.414 81.5888 197.383 81.732 197.304 81.8497C197.237 81.9041 197.158 81.9428 197.074 81.9629C196.99 81.983 196.903 81.9841 196.818 81.966C194.312 81.7415 191.776 80.3306 189.41 81.1843" fill="#464353"/>
<path d="M303.887 218.926C320.271 218.926 333.553 217.008 333.553 214.641C333.553 212.275 320.271 210.356 303.887 210.356C287.503 210.356 274.221 212.275 274.221 214.641C274.221 217.008 287.503 218.926 303.887 218.926Z" fill="#504F60"/>
<path d="M329.41 214.849C328.889 212.617 328.564 210.657 328.564 210.657C328.564 210.657 328.684 208.228 327.593 206.404V205.795V201.305C327.904 200.49 328.284 199.703 328.729 198.952C329.531 197.542 328.729 192.371 328.729 192.371C328.729 192.371 325.732 185.08 326.458 180.454C327.184 175.828 320.305 159.915 320.305 159.915C320.348 158.381 320.564 156.856 320.951 155.37C321.024 155.058 321.054 154.737 321.039 154.416C321.039 154.376 321.039 154.34 321.039 154.3C321.039 154.26 321.039 154.324 321.039 154.336C320.935 151.286 318.52 145.57 318.52 145.57L318.845 134.675C318.845 134.675 320.385 128.262 317.874 119.624C316.996 116.614 316.435 114.205 316.078 112.345C316.037 112.136 315.997 111.944 315.965 111.74C321.136 110.938 325.086 110.297 325.086 110.297C325.086 110.297 322.086 97.7546 320.061 95.5581C318.035 93.3615 316.414 86.4632 316.414 86.4632C316.414 86.4632 315.36 77.6088 317.064 75.0195C318.769 72.4301 319.01 67.9648 319.01 67.9648C319.01 67.9648 322.896 65.159 323.386 63.8884C323.875 62.6177 324.681 59.8119 324.681 58.3248C324.681 56.8378 324.196 55.519 324.356 54.7174C324.517 53.9157 323.221 50.9536 323.871 49.5426C324.039 49.1092 324.126 48.6486 324.128 48.1838C324.129 48.1705 324.129 48.1571 324.128 48.1437C324.134 46.909 324.02 45.6767 323.787 44.4641C322.663 43.5154 321.35 42.8147 319.936 42.4078L319.852 42.0711L319.631 41.1893C319.508 41.108 319.381 41.0331 319.25 40.9648V40.6442L319.214 39.3695L319.824 36.5076C321.027 31.5293 314.373 30.7877 314.373 30.7877C313.969 30.0241 313.298 29.4361 312.488 29.1363C311.152 28.6674 312.267 36.6239 312.889 37.1529C313.358 37.5538 314.81 40.0309 315.512 41.2575L315.624 41.4579C315.514 41.5566 315.412 41.6638 315.319 41.7785L315.572 43.5061L315.612 43.7707C315.171 44.318 314.813 44.927 314.549 45.5784C314.549 45.5784 315.753 46.9092 315.524 48.3842C315.295 49.8593 315.897 51.7312 315.925 51.8314C315.853 51.7472 314.999 50.8253 314.144 51.0498C313.29 51.2742 310.903 51.9917 310.903 51.9917C310.903 51.9917 309.122 52.3044 309.299 52.6972C309.475 53.09 308.095 54.8136 308.095 54.8136L303.306 50.2762C303.258 50.1399 303.206 50.0036 303.166 49.8753C302.97 49.2211 302.836 48.5502 302.765 47.8712C303.287 47.7472 303.799 47.5851 304.297 47.3862C304.8 47.2135 305.254 46.922 305.62 46.5364C306.106 45.9632 306.198 45.1856 306.395 44.4721C306.772 43.0772 307.598 41.8387 308.172 40.5119C309.143 38.27 309.456 35.7982 309.074 33.3851C309.001 32.6415 308.749 31.9266 308.34 31.3008C307.558 30.2266 306.138 29.7897 305.107 28.9319C304.076 28.0741 303.41 26.7634 302.207 26.1261C301.12 25.5449 299.8 25.613 298.573 25.8134C296.176 26.2085 293.873 27.0457 291.782 28.2826C291.084 28.6834 290.314 29.1764 289.512 29.0281C288.822 28.9038 288.308 28.3547 287.875 27.8256C287.88 27.8037 287.887 27.7823 287.895 27.7615C287.876 27.742 287.858 27.7205 287.843 27.6973C287.336 28.823 287.081 30.0462 287.097 31.2808C287.097 31.4732 287.097 31.6816 287.121 31.854V32.0544C287.121 32.1105 287.121 32.1666 287.121 32.2187C287.121 32.3042 287.109 32.3892 287.085 32.4712C286.984 32.7164 286.831 32.9367 286.636 33.1166C286.489 33.2837 286.354 33.4619 286.235 33.6497C286.235 33.5855 286.275 33.5214 286.299 33.4533C285.993 33.8996 285.82 34.4237 285.801 34.9644C285.779 35.358 285.908 35.7452 286.162 36.0467C286.403 36.2797 286.664 36.4891 286.945 36.672C286.849 37.2011 286.801 37.7376 286.8 38.2753C286.809 39.8692 287.23 41.4338 288.021 42.8178C288.812 44.2018 289.947 45.3584 291.317 46.1757C291.373 46.3079 291.425 46.4442 291.477 46.5765C292.091 48.1798 292.552 50.0637 292.348 51.7873C292.348 51.9115 292.312 52.0398 292.291 52.1641C292.271 52.2883 292.171 52.2963 292.119 52.3645C292.119 52.3645 284.205 52.4447 282.344 50.7612C280.483 49.0777 277.643 54.8777 277.643 54.8777C277.643 54.8777 274.807 55.4268 274.237 54.8777C273.668 54.3286 270.351 54.8015 270.351 54.8015C268.992 53.5937 267.223 52.9487 265.405 52.9978C264.303 52.1612 263.088 51.4864 261.795 50.9936L261.707 50.9616C261.136 50.7538 260.526 50.677 259.922 50.7371C259.922 50.7371 256.031 47.5305 254.896 45.7989C253.761 44.0673 248.358 37.674 248.334 37.646V37.3373L248.273 36.4074C248.113 36.4326 247.951 36.446 247.788 36.4475C247.76 36.3553 247.72 36.2471 247.68 36.1228C247.368 35.2158 246.985 34.3351 246.533 33.4894C246.533 33.4894 246.533 32.3149 246.873 32.0183C247.214 31.7217 246.733 27.4127 246.733 27.4127C246.733 27.4127 243.227 19.2238 240.087 25.3364C240.087 25.3364 234.15 29.2926 239.132 33.9022C239.132 33.9022 241.138 34.8642 241.402 35.6258C241.587 36.1188 242.261 37.5017 242.714 38.4316L242.919 38.8324L242.862 38.8805L242.935 39.6501L242.967 39.9467C242.028 40.4798 241.39 41.0089 241.547 41.4058C241.823 42.0848 242.013 42.7958 242.112 43.5222C242.112 43.5222 249.003 52.148 249.894 55.8317C249.894 55.8317 268.373 66.8064 274.45 67.5881L273.375 73.0594C273.218 74.5441 273.138 76.0358 273.134 77.5287C273.215 78.7031 272.404 84.0342 272.404 84.0342C272.404 84.0342 271.349 91.8744 270.459 92.9727C269.568 94.071 269.729 98.7727 269.729 98.7727C269.519 101.024 269.116 103.252 268.526 105.435C267.635 108.413 268.281 112.1 268.281 112.1C268.281 112.1 265.204 119.155 272.577 114.373C272.577 114.373 276.187 114.149 280.366 114.004C280.366 114.141 280.366 114.281 280.366 114.405C280.366 114.942 280.366 115.523 280.338 116.133C280.282 120.173 280.258 125.753 280.443 129.953C280.768 137.401 283.038 152.139 283.038 152.139V159.559C282.891 160.255 282.819 160.964 282.821 161.675C282.773 164.286 283.469 166.856 284.827 169.087L285.396 174.025C285.396 174.025 286.728 177.28 286.752 179.236C286.747 179.393 286.728 179.55 286.696 179.705C286.644 179.954 286.623 180.208 286.632 180.462C286.556 182.707 287.907 188.078 287.907 188.078C287.907 188.078 287.988 193.485 288.798 193.802C289.492 194.07 287.871 196.916 287.39 197.734C287.377 197.684 287.368 197.633 287.362 197.582L287.262 197.742C287.094 198.18 287.009 198.644 287.009 199.113C286.963 199.482 287.023 199.857 287.182 200.193C287.342 200.529 287.593 200.814 287.907 201.013C289.448 201.955 290.274 202.736 288.966 203.049C288.485 203.124 288.009 203.224 287.538 203.35C287.538 203.289 287.49 203.225 287.47 203.169C287.286 203.241 287.132 203.375 287.035 203.547C286.937 203.719 286.903 203.92 286.937 204.115C286.949 204.751 287.113 205.375 287.414 205.935C288.71 208.837 289.608 209.943 289.608 209.943L290.23 209.875C290.138 210.112 290.017 210.337 289.869 210.544C289.632 210.881 289.319 211.155 288.954 211.346C288.615 211.549 288.236 211.679 287.843 211.727C287.404 211.741 286.972 211.848 286.577 212.04C286.182 212.232 285.831 212.505 285.549 212.841C284.747 213.887 284.233 215.31 285.83 216.561L291.626 218.565C291.626 218.565 301.597 219.86 301.068 217.623C300.538 215.387 300.217 213.43 300.217 213.43C300.26 212.065 299.986 210.708 299.415 209.466C299.311 209.264 299.193 209.068 299.062 208.881L299.415 208.845C299.415 208.845 300.145 203.903 301.116 202.965C301.341 202.748 301.393 202.564 301.341 202.452C301.441 202.183 301.184 202.027 300.859 201.935L300.787 202.131C300.469 202.062 300.145 202.026 299.82 202.023C299.82 202.023 299.495 199.437 300.55 198.495C300.636 198.388 300.698 198.264 300.733 198.132C300.768 198 300.776 197.861 300.755 197.726C300.763 197.371 300.725 197.017 300.643 196.672C300.632 196.694 300.62 196.715 300.607 196.736C300.077 194.387 298.28 190.655 298.28 190.655C298.28 190.655 298.2 188.306 298.85 187.364C299.5 186.422 298.765 174.586 298.765 174.586C298.765 174.586 299.01 168.866 298.28 166.201C297.55 163.535 299.171 160.396 299.171 160.396C299.171 160.396 299.171 160.336 299.171 160.228V160.188L299.078 159.286C299.076 159.305 299.076 159.324 299.078 159.342C298.914 157.827 298.605 155.081 298.376 153.815C298.051 152.011 298.461 143.393 298.461 143.393L299.917 139.706L302.512 146.059L305.268 154.524C305.268 154.524 306.631 156.312 306.663 158.132C306.663 158.22 306.663 158.308 306.663 158.396C306.641 158.584 306.63 158.773 306.631 158.962C306.582 160.031 306.876 161.088 307.47 161.98C307.47 161.98 308.2 165.988 309.335 166.994C310.47 168 310.47 169.972 310.47 169.972C310.47 169.972 311.846 175.776 312.476 176.786C313.021 177.644 313.049 179.993 313.045 180.727C313.045 180.859 313.045 180.935 313.045 180.935C313.045 180.935 313.238 183.011 313.23 184.751C313.23 184.967 313.23 185.176 313.23 185.372C313.231 185.358 313.231 185.343 313.23 185.328C313.229 185.803 313.173 186.277 313.061 186.739L313.037 186.819C313.037 186.719 313.037 186.623 313.065 186.527C312.783 187.708 312.648 188.92 312.664 190.134C312.628 192.218 312.945 194.688 314.208 196.147C316.398 198.656 317.774 198.343 317.774 198.343C317.774 198.343 316.723 201.478 315.424 202.107C315.375 202.13 315.329 202.16 315.287 202.195C315.287 202.131 315.263 202.071 315.255 202.011C315.11 202.167 315 202.352 314.931 202.554C314.862 202.755 314.836 202.969 314.854 203.181C314.762 204.56 315.632 206.789 316.459 207.827C316.765 208.127 317.141 208.347 317.554 208.468C317.488 208.514 317.42 208.556 317.349 208.592C317.205 208.672 317.056 208.743 316.904 208.805C316.693 208.894 316.47 208.953 316.242 208.977C315.802 208.989 315.37 209.094 314.974 209.287C314.579 209.479 314.229 209.753 313.948 210.092C313.145 211.134 312.632 212.557 314.228 213.807L320.024 215.811C320.024 215.811 329.932 217.082 329.41 214.849Z" fill="url(#paint0_linear)"/>
<path d="M291.34 218.553L285.724 216.549C284.176 215.298 284.669 213.875 285.452 212.829C285.721 212.496 286.058 212.224 286.442 212.031C286.825 211.839 287.245 211.731 287.674 211.715C288.054 211.667 288.419 211.537 288.745 211.334C289.101 211.141 289.406 210.866 289.635 210.533C290.045 209.883 290.266 209.132 290.273 208.364C290.273 208.364 296.434 206.56 298.119 208.364C298.42 208.691 298.671 209.059 298.865 209.458C299.425 210.703 299.699 212.058 299.667 213.423C299.667 213.423 299.98 215.379 300.489 217.615C300.999 219.852 291.34 218.553 291.34 218.553Z" fill="#2D293D"/>
<path d="M318.792 215.787L313.177 213.783C311.628 212.533 312.122 211.11 312.904 210.068C313.171 209.733 313.508 209.459 313.891 209.267C314.274 209.075 314.694 208.968 315.122 208.953C315.344 208.93 315.561 208.872 315.764 208.781C315.912 208.718 316.057 208.647 316.197 208.568C317.766 207.707 317.725 205.59 317.725 205.59C317.725 205.59 323.883 203.786 325.571 205.59C325.797 205.835 325.995 206.103 326.161 206.392C327.216 208.216 327.099 210.649 327.099 210.649C327.099 210.649 327.412 212.609 327.902 214.841C328.391 217.074 318.792 215.787 318.792 215.787Z" fill="#2D293D"/>
<path opacity="0.1" d="M298.123 208.36C298.424 208.686 298.675 209.055 298.869 209.454L289.644 210.524C290.054 209.875 290.274 209.124 290.282 208.356C290.282 208.356 296.439 206.556 298.123 208.36Z" fill="black"/>
<path opacity="0.1" d="M326.169 206.4V208.127C324.733 210.488 317.79 209.971 315.772 208.789C315.92 208.726 316.065 208.655 316.205 208.576C317.774 207.715 317.733 205.598 317.733 205.598C317.733 205.598 323.89 203.794 325.579 205.598C325.805 205.842 326.003 206.111 326.169 206.4Z" fill="black"/>
<path d="M327.264 198.952C326.835 199.705 326.469 200.492 326.169 201.305V207.498C324.597 210.084 316.442 209.222 315.339 207.811C314.236 206.4 313.085 202.728 314.324 202.091C315.564 201.454 316.599 198.327 316.599 198.327C316.599 198.327 315.263 198.64 313.145 196.131C311.027 193.621 311.657 188.058 312.05 186.727C312.443 185.396 312.05 180.927 312.05 180.927C312.05 180.927 312.13 177.789 311.504 176.77C310.879 175.752 309.543 169.956 309.543 169.956C309.543 169.956 309.543 167.996 308.444 166.978C307.345 165.96 306.639 161.96 306.639 161.96C305.996 160.96 305.72 159.769 305.857 158.589C306.089 156.629 304.521 154.512 304.521 154.512L301.854 146.043L299.343 139.694L297.931 143.377C297.931 143.377 297.53 151.999 297.854 153.799C298.179 155.599 298.657 160.384 298.657 160.384C298.657 160.384 297.088 163.519 297.794 166.184C298.5 168.85 298.244 174.578 298.244 174.578C298.244 174.578 298.95 186.41 298.32 187.352C297.69 188.294 297.77 190.647 297.77 190.647C297.77 190.647 300.979 197.541 299.968 198.483C298.958 199.425 299.262 202.011 299.262 202.011C299.262 202.011 301.456 202.011 300.518 202.953C299.579 203.895 298.869 208.833 298.869 208.833L289.383 209.943C289.383 209.943 288.517 208.849 287.261 205.935C286.006 203.021 287.494 203.35 288.757 203.033C290.021 202.716 289.223 201.939 287.73 200.997C286.238 200.055 287.105 197.938 287.105 197.938C287.105 197.938 289.379 194.098 288.593 193.786C287.807 193.473 287.73 188.062 287.73 188.062C287.73 188.062 286.162 181.649 286.555 179.909C286.948 178.169 285.3 174.033 285.3 174.033L284.75 169.095C283.072 166.292 282.459 162.98 283.025 159.763V152.147C283.025 152.147 280.827 137.413 280.514 129.965C280.314 125.196 280.37 118.686 280.434 114.626C280.474 112.349 280.514 110.838 280.514 110.838L314.4 107.31C314.4 107.31 314.368 108.874 315.014 112.341C315.363 114.201 315.905 116.61 316.755 119.62C319.186 128.242 317.698 134.667 317.698 134.667L317.381 145.566C317.381 145.566 320.361 152.853 319.735 155.362C319.357 156.852 319.144 158.379 319.101 159.915C319.101 159.915 325.768 175.828 325.062 180.454C324.356 185.08 327.256 192.371 327.256 192.371C327.256 192.371 328.05 197.542 327.264 198.952Z" fill="#464353"/>
<path opacity="0.05" d="M307.89 158.116L318.207 156.741C318.207 156.741 312.363 162.701 307.89 158.116Z" fill="black"/>
<path opacity="0.1" d="M316.715 146.668C316.715 146.668 317.068 150.316 314.833 151.687C314.833 151.687 318.833 151.061 316.715 146.668Z" fill="black"/>
<path opacity="0.1" d="M316.081 135.068C316.081 135.068 307.457 142.163 304.321 141.573C301.184 140.984 316.081 135.068 316.081 135.068Z" fill="black"/>
<path opacity="0.1" d="M295.103 161.443C295.103 161.443 288.553 162.93 288.357 165.559C288.16 168.189 295.103 161.443 295.103 161.443Z" fill="black"/>
<path opacity="0.05" d="M296.543 194.135C296.543 194.135 287.289 195.858 289.916 197.033C292.544 198.207 296.86 199.149 296.86 199.149C296.86 199.149 299.848 199.305 296.543 194.135Z" fill="black"/>
<g opacity="0.05">
<path opacity="0.05" d="M288.047 198.9C287.814 198.755 287.617 198.559 287.471 198.327C287.324 198.096 287.232 197.834 287.201 197.562L287.104 197.726C287.104 197.726 286.242 199.842 287.734 200.78C287.903 200.888 288.067 200.997 288.215 201.101C288.492 201.049 288.789 201.009 289.074 200.937C290.337 200.624 289.539 199.842 288.047 198.9Z" fill="black"/>
<path opacity="0.05" d="M299.968 198.271C300.225 198.038 300.217 197.437 300.06 196.667C299.659 197.273 299.543 198.219 299.535 198.936C299.632 198.687 299.78 198.461 299.968 198.271Z" fill="black"/>
<path opacity="0.05" d="M298.544 159.274C298.203 160.201 297.993 161.171 297.918 162.156C298.097 161.476 298.337 160.813 298.636 160.176L298.544 159.274Z" fill="black"/>
<path opacity="0.05" d="M319.739 155.162C319.801 154.88 319.829 154.592 319.824 154.304C319.707 154.889 319.627 155.43 319.567 155.907C319.619 155.663 319.675 155.43 319.739 155.162Z" fill="black"/>
<path opacity="0.05" d="M298.324 187.144C298.452 186.952 298.524 186.302 298.556 185.4C298.266 186.098 298.112 186.845 298.103 187.601C298.158 187.44 298.232 187.287 298.324 187.144Z" fill="black"/>
<path opacity="0.05" d="M300.248 201.927C299.762 203.499 299.401 205.107 299.169 206.737L289.683 207.831C289.683 207.831 288.817 206.737 287.561 203.823C287.46 203.597 287.37 203.367 287.293 203.133C286.723 203.394 286.49 203.983 287.244 205.702C288.5 208.604 289.37 209.711 289.37 209.711L298.857 208.612C298.857 208.612 299.563 203.674 300.501 202.732C300.983 202.279 300.686 202.043 300.248 201.927Z" fill="black"/>
<path opacity="0.05" d="M287.734 187.849C287.734 187.849 287.81 193.257 288.597 193.569C288.998 192.675 289.258 191.826 288.905 191.685C288.103 191.373 288.043 185.961 288.043 185.961C288.043 185.961 286.475 179.548 286.868 177.809C287.261 176.069 285.612 171.932 285.612 171.932L285.063 166.994C283.384 164.192 282.772 160.879 283.338 157.663V150.047C283.338 150.047 281.14 135.312 280.827 127.865C280.626 123.095 280.683 116.586 280.747 112.525C280.747 111.792 280.771 111.142 280.783 110.593L280.514 110.621C280.514 110.621 280.47 112.128 280.434 114.409C280.37 118.469 280.31 124.979 280.514 129.745C280.827 137.192 283.021 151.931 283.021 151.931V159.547C282.458 162.762 283.072 166.073 284.75 168.874L285.295 173.812C285.295 173.812 286.944 177.965 286.551 179.692C286.158 181.42 287.734 187.849 287.734 187.849Z" fill="black"/>
<path opacity="0.05" d="M315.66 205.718C314.889 204.603 314.376 203.332 314.156 201.995C313.189 202.868 314.3 206.259 315.359 207.606C316.454 209.017 324.613 209.879 326.189 207.29V205.799C324.051 207.895 316.695 207.053 315.66 205.718Z" fill="black"/>
<path opacity="0.05" d="M327.581 196.86C327.151 197.613 326.783 198.4 326.482 199.213V200.323C326.662 199.922 326.915 199.385 327.284 198.752C327.532 198.135 327.65 197.473 327.629 196.808C327.629 196.808 327.593 196.844 327.581 196.86Z" fill="black"/>
<path opacity="0.05" d="M316.14 198.099C316.439 197.495 316.697 196.872 316.914 196.235C316.914 196.235 315.579 196.547 313.461 194.038C311.921 192.214 311.832 188.767 312.053 186.515C311.652 187.849 311.03 193.413 313.148 195.922C314.532 197.561 315.579 197.994 316.14 198.099Z" fill="black"/>
<path opacity="0.05" d="M312.05 180.715C312.188 182.259 312.24 183.81 312.206 185.36C312.245 185.115 312.299 184.873 312.367 184.635C312.768 183.3 312.367 178.835 312.367 178.835C312.367 178.835 312.447 175.696 311.817 174.678C311.187 173.66 309.876 167.856 309.876 167.856C309.876 167.856 309.876 165.896 308.777 164.878C307.678 163.86 306.972 159.859 306.972 159.859C306.323 158.862 306.04 157.671 306.169 156.488C306.406 154.528 304.838 152.412 304.838 152.412L302.17 143.946L299.659 137.597L298.243 141.285C298.243 141.285 298.243 141.75 298.195 142.487L299.342 139.493L301.853 145.83L304.521 154.296C304.521 154.296 306.089 156.412 305.853 158.372C305.723 159.555 306.006 160.746 306.655 161.743C306.655 161.743 307.361 165.751 308.46 166.762C309.559 167.772 309.555 169.74 309.555 169.74C309.555 169.74 310.891 175.54 311.516 176.554C312.142 177.568 312.05 180.715 312.05 180.715Z" fill="black"/>
</g>
<path d="M318.636 36.4957L318.047 39.3576L318.083 40.6323L318.107 41.5702L314.834 41.9069L314.469 41.2295C313.791 40.003 312.383 37.5098 311.93 37.125C311.324 36.62 310.245 28.6595 311.529 29.1324C312.319 29.4374 312.968 30.0244 313.35 30.7799C313.35 30.7799 319.796 31.5174 318.636 36.4957Z" fill="#FFCDD3"/>
<path opacity="0.1" d="M318.106 41.5701L314.833 41.9068L314.468 41.2294C314.908 40.7286 315.509 40.3958 316.167 40.2876C316.825 40.1794 317.501 40.3026 318.078 40.6362L318.106 41.5701Z" fill="black"/>
<path d="M318.933 43.1213L314.617 44.1194L314.525 43.4781L314.28 41.7505C314.28 41.7505 315.989 39.4738 318.46 41.1813L318.676 42.0591L318.933 43.1213Z" fill="#6C63FF"/>
<path d="M249.019 36.8082L244.41 39.2774L244.009 38.4116C243.571 37.4937 242.918 36.1108 242.737 35.6058C242.464 34.8442 240.543 33.8822 240.543 33.8822C235.73 29.2766 241.466 25.3164 241.466 25.3164C244.506 19.2038 247.883 27.3927 247.883 27.3927C247.883 27.3927 248.357 31.7097 248.024 31.9983C247.691 32.2869 247.691 33.4693 247.691 33.4693C248.13 34.3165 248.502 35.1971 248.802 36.1028C248.942 36.5397 249.019 36.8082 249.019 36.8082Z" fill="#FFCDD3"/>
<path opacity="0.1" d="M249.019 36.8085L244.41 39.2776L244.009 38.4118C244.659 37.8667 246.965 36.0068 247.723 36.083C248.085 36.1281 248.451 36.1375 248.814 36.111C248.943 36.5399 249.019 36.8085 249.019 36.8085Z" fill="black"/>
<path d="M249.488 38.1993L244.31 40.7486L244.205 39.6383L244.133 38.8687C244.133 38.8687 247.133 36.2994 248.02 36.3996C248.468 36.4645 248.923 36.4645 249.372 36.3996L249.432 37.3295L249.488 38.1993Z" fill="#6C63FF"/>
<path d="M306.085 55.507C306.085 55.507 283.51 58.0523 287.73 56.6814C290.666 55.7234 291.834 53.8756 292.078 51.7913C292.279 50.0557 291.83 48.1838 291.24 46.5805C290.709 45.1581 290.037 43.7925 289.234 42.504C289.234 42.504 306.482 33.0203 303.037 41.6422C302.505 42.9463 302.175 44.3235 302.058 45.7267C301.954 47.1211 302.105 48.5228 302.503 49.8633C303.154 52.0384 304.393 53.9915 306.085 55.507Z" fill="#FFCDD3"/>
<path opacity="0.1" d="M303.025 41.6304C302.493 42.9345 302.163 44.3117 302.046 45.7148C300.421 47.0817 298.64 46.9895 296.35 46.9895C294.593 46.9895 292.644 47.4144 291.24 46.5686C290.709 45.1463 290.037 43.7806 289.234 42.4922C289.234 42.4922 306.478 33.0085 303.025 41.6304Z" fill="black"/>
<path d="M296.046 47.5907C301.201 47.5907 305.38 43.4147 305.38 38.2634C305.38 33.112 301.201 28.936 296.046 28.936C290.891 28.936 286.712 33.112 286.712 38.2634C286.712 43.4147 290.891 47.5907 296.046 47.5907Z" fill="#FFCDD3"/>
<path opacity="0.1" d="M306.085 55.507C306.085 55.507 283.51 58.0523 287.73 56.6814C290.666 55.7234 291.834 53.8756 292.078 51.7913C293.201 50.5888 295.46 49.6949 296.892 49.23C298.216 48.7851 299.645 48.7613 300.983 49.1618C301.509 49.3202 302.01 49.5524 302.471 49.8513C303.129 52.0344 304.38 53.9923 306.085 55.507Z" fill="black"/>
<path opacity="0.1" d="M318.933 43.1214L314.617 44.1194L314.524 43.4781C314.986 42.8438 315.633 42.3672 316.376 42.1133C317.119 41.8594 317.922 41.8405 318.676 42.0592L318.933 43.1214Z" fill="black"/>
<path opacity="0.1" d="M249.488 38.1991L244.309 40.7484L244.205 39.6381C245.882 38.7369 247.626 37.9638 249.42 37.3253L249.488 38.1991Z" fill="black"/>
<path opacity="0.1" d="M315.014 112.349C306.265 113.744 293.831 115.523 291.858 114.922C290.217 114.425 284.986 114.477 280.434 114.634C280.474 112.357 280.514 110.846 280.514 110.846L314.4 107.318C314.4 107.318 314.368 108.882 315.014 112.349Z" fill="black"/>
<path d="M323.735 110.297C323.735 110.297 294.947 115.235 291.858 114.305C288.77 113.375 272.906 114.381 272.906 114.381C265.766 119.163 268.746 112.108 268.746 112.108C268.746 112.108 268.12 108.425 268.983 105.447C269.562 103.26 269.958 101.029 270.166 98.7767C270.166 98.7767 270.009 94.0709 270.872 92.9726C271.734 91.8744 272.757 84.0381 272.757 84.0381C272.757 84.0381 273.539 78.7071 273.463 77.5326C273.387 76.3582 273.696 73.0634 273.696 73.0634L274.719 67.576C268.834 66.7944 250.949 55.8196 250.949 55.8196C250.086 52.136 243.42 43.5141 243.42 43.5141C243.323 42.7891 243.138 42.0785 242.87 41.3977C242.401 40.1431 249.46 37.6339 249.46 37.6339C249.46 37.6339 254.715 44.0472 255.814 45.7868C256.913 47.5264 260.676 50.7251 260.676 50.7251C261.26 50.665 261.851 50.7418 262.4 50.9495L262.493 50.9776C263.753 51.4722 264.936 52.1473 266.002 52.9817C267.771 52.9398 269.487 53.5866 270.788 54.7855C270.788 54.7855 273.997 54.3125 274.554 54.8616C275.112 55.4108 277.847 54.8616 277.847 54.8616C277.847 54.8616 280.591 49.0616 282.396 50.7451C284.201 52.4286 291.858 52.3484 291.858 52.3484C292.877 50.9936 295.36 50.0236 296.912 49.5426C298.236 49.0995 299.665 49.0758 301.003 49.4745C301.581 49.6466 302.124 49.9179 302.608 50.2761L307.265 54.8215C307.265 54.8215 308.597 53.094 308.44 52.7052C308.284 52.3164 310.008 51.9997 310.008 51.9997C310.008 51.9997 312.283 51.2942 313.145 51.0577C314.008 50.8213 314.798 51.7552 314.87 51.8394C314.842 51.7392 314.252 49.8352 314.469 48.3922C314.685 46.9492 313.526 45.5864 313.526 45.5864C316.27 38.8444 322.467 44.4881 322.467 44.4881C322.467 44.4881 323.173 48.1718 322.547 49.5827C321.922 50.9936 323.173 53.9718 323.017 54.7574C322.86 55.543 323.333 56.8738 323.333 58.3649C323.333 59.856 322.531 62.6738 322.078 63.9284C321.625 65.183 317.842 68.0049 317.842 68.0049C317.842 68.0049 317.606 72.4741 315.957 75.0595C314.308 77.6449 315.343 86.4872 315.343 86.4872C315.343 86.4872 316.912 93.3855 318.873 95.5821C320.835 97.7786 323.735 110.297 323.735 110.297Z" fill="#3F3D56"/>
<path opacity="0.1" d="M281.77 58.7178C281.77 58.7178 280.907 56.1324 280.121 55.912C279.341 55.6251 278.581 55.2849 277.847 54.8939L278.352 53.9279C278.352 53.9279 281.296 54.7295 281.77 55.5993C282.243 56.4691 281.77 58.7178 281.77 58.7178Z" fill="black"/>
<path opacity="0.1" d="M266.002 52.9981C265.846 53.7997 258.863 54.4852 258.863 54.4852L262.392 50.9498L262.481 50.9819C263.746 51.4792 264.933 52.1584 266.002 52.9981Z" fill="black"/>
<path d="M245.802 42.865C246.147 42.865 246.428 42.585 246.428 42.2397C246.428 41.8943 246.147 41.6144 245.802 41.6144C245.456 41.6144 245.176 41.8943 245.176 42.2397C245.176 42.585 245.456 42.865 245.802 42.865Z" fill="#575988"/>
<path d="M246.604 44.1194C246.95 44.1194 247.23 43.8394 247.23 43.4941C247.23 43.1487 246.95 42.8688 246.604 42.8688C246.258 42.8688 245.978 43.1487 245.978 43.4941C245.978 43.8394 246.258 44.1194 246.604 44.1194Z" fill="#575988"/>
<path d="M247.391 45.2779C247.736 45.2779 248.017 44.998 248.017 44.6526C248.017 44.3073 247.736 44.0273 247.391 44.0273C247.045 44.0273 246.765 44.3073 246.765 44.6526C246.765 44.998 247.045 45.2779 247.391 45.2779Z" fill="#575988"/>
<path d="M248.213 46.5284C248.558 46.5284 248.838 46.2485 248.838 45.9031C248.838 45.5578 248.558 45.2778 248.213 45.2778C247.867 45.2778 247.587 45.5578 247.587 45.9031C247.587 46.2485 247.867 46.5284 248.213 46.5284Z" fill="#575988"/>
<path d="M322.153 46.344C322.435 46.344 322.663 46.1161 322.663 45.835C322.663 45.5538 322.435 45.3259 322.153 45.3259C321.872 45.3259 321.644 45.5538 321.644 45.835C321.644 46.1161 321.872 46.344 322.153 46.344Z" fill="#575988"/>
<path d="M322.234 47.5024C322.515 47.5024 322.743 47.2745 322.743 46.9933C322.743 46.7122 322.515 46.4843 322.234 46.4843C321.953 46.4843 321.725 46.7122 321.725 46.9933C321.725 47.2745 321.953 47.5024 322.234 47.5024Z" fill="#575988"/>
<path d="M322.302 48.6569C322.583 48.6569 322.812 48.429 322.812 48.1478C322.812 47.8667 322.583 47.6388 322.302 47.6388C322.021 47.6388 321.793 47.8667 321.793 48.1478C321.793 48.429 322.021 48.6569 322.302 48.6569Z" fill="#575988"/>
<path opacity="0.1" d="M281.798 79.9618C281.722 79.8696 299.407 102.184 313.133 89.2892C313.145 89.2932 291.457 92.2313 281.798 79.9618Z" fill="black"/>
<path opacity="0.1" d="M271.649 91.5618C271.649 91.5618 282.231 91.8504 283.338 94.8927V98.0592C283.037 98.2263 282.698 98.3139 282.353 98.3139C282.009 98.3139 281.67 98.2263 281.368 98.0592C280.301 97.482 273.904 94.2353 271.649 95.7986V91.5618Z" fill="black"/>
<path d="M271.846 91.5618C271.846 91.5618 281.966 91.8383 283.025 94.7404V97.7546C282.737 97.9146 282.412 97.9986 282.083 97.9986C281.753 97.9986 281.428 97.9146 281.14 97.7546C280.121 97.2095 274.004 94.111 271.846 95.6021V91.5618Z" fill="#3F3D56"/>
<path opacity="0.1" d="M277.426 68.6023C278.507 71.1028 279.884 73.4646 281.529 75.6369C283.318 78.0379 285.485 80.1322 287.947 81.8377C287.947 81.8377 277.602 70.0533 277.426 68.6023Z" fill="black"/>
<path opacity="0.1" d="M273.964 56.3168C273.964 56.3168 275.729 63.9326 280.278 66.5179L273.964 56.3168Z" fill="black"/>
<path opacity="0.1" d="M271.256 57.0865C271.212 56.9462 269.688 63.0989 277.12 66.518C277.12 66.518 273.964 65.4478 271.256 57.0865Z" fill="black"/>
<path opacity="0.1" d="M317.461 51.9797C317.345 51.9797 321.127 54.3847 322.158 55.507C322.158 55.507 319.695 51.8194 317.461 51.9797Z" fill="black"/>
<path d="M293.522 46.7169C293.523 46.9203 293.567 47.1213 293.65 47.3071C293.733 47.4929 293.854 47.6594 294.005 47.7961C294.156 47.9329 294.333 48.0369 294.526 48.1016C294.719 48.1662 294.924 48.1902 295.126 48.1719C297.97 48.3482 300.935 48.4725 303.55 47.3702C304.04 47.1953 304.481 46.9036 304.833 46.5205C305.299 45.9473 305.391 45.1697 305.579 44.4562C305.948 43.0613 306.735 41.8227 307.3 40.496C308.257 38.2544 308.578 35.7928 308.227 33.3812C308.153 32.642 307.908 31.9299 307.513 31.3009C306.759 30.2227 305.383 29.7858 304.384 28.928C303.385 28.0702 302.744 26.7595 301.576 26.1222C300.525 25.5369 299.238 25.6091 298.055 25.8095C295.727 26.2045 293.497 27.0412 291.484 28.2746C290.806 28.6755 290.064 29.1685 289.286 29.0202C288.604 28.8919 288.107 28.3187 287.682 27.7816C287.135 29.0643 286.905 30.4598 287.012 31.85C287.041 32.054 287.035 32.2617 286.992 32.4633C286.894 32.7071 286.745 32.9271 286.555 33.1086C285.853 33.9103 285.415 35.213 286.109 36.0387C286.41 36.3955 286.876 36.5919 287.168 36.9566C287.694 37.61 287.517 38.5599 287.505 39.3937C287.476 39.6848 287.55 39.9769 287.714 40.2194C287.866 40.3607 288.051 40.4605 288.253 40.509C288.455 40.5574 288.666 40.5529 288.865 40.496C289.262 40.3763 289.68 40.3368 290.092 40.3797C290.527 40.521 290.903 40.8031 291.159 41.1814C292.455 42.8689 292.968 44.7047 293.522 46.7169Z" fill="#2D293D"/>
<g opacity="0.1">
<path opacity="0.1" d="M305.166 45.8109C304.814 46.194 304.373 46.4857 303.883 46.6606C301.252 47.7549 298.291 47.6307 295.459 47.4623C295.155 47.4653 294.855 47.3981 294.581 47.2659C294.148 47.0134 293.983 46.4843 293.851 46.0033C293.297 43.9991 292.788 42.1593 291.472 40.4879C291.219 40.1023 290.843 39.8129 290.405 39.6661C289.993 39.6272 289.576 39.6667 289.178 39.7824C288.979 39.8399 288.768 39.845 288.567 39.7972C288.365 39.7495 288.179 39.6505 288.027 39.5098C287.863 39.2673 287.789 38.9752 287.818 38.6841C287.818 37.8424 288.007 36.9004 287.481 36.2471C287.189 35.8823 286.723 35.6859 286.422 35.3251C286.226 35.0592 286.106 34.745 286.074 34.4161C286.042 34.0872 286.1 33.7558 286.242 33.4573C285.741 34.2589 285.528 35.265 286.11 35.9545C286.41 36.3112 286.876 36.5076 287.168 36.8724C287.694 37.5297 287.517 38.4757 287.505 39.3094C287.475 39.6001 287.547 39.8924 287.71 40.1351C287.862 40.2772 288.049 40.3773 288.251 40.4258C288.454 40.4743 288.665 40.4694 288.865 40.4117C289.263 40.2921 289.68 40.2526 290.093 40.2955C290.527 40.4368 290.903 40.7188 291.16 41.0971C292.471 42.7686 292.985 44.6044 293.538 46.6166C293.603 47.1117 293.85 47.5648 294.232 47.8872C294.507 48.0196 294.809 48.0855 295.115 48.0796C297.958 48.256 300.923 48.3842 303.538 47.2779C304.029 47.1041 304.47 46.8123 304.821 46.4282C304.998 46.2024 305.134 45.9473 305.223 45.6746C305.227 45.7267 305.199 45.7708 305.166 45.8109Z" fill="black"/>
<path opacity="0.1" d="M287.012 32.2188C287.138 32.082 287.235 31.9211 287.297 31.7458C287.333 31.543 287.333 31.3353 287.297 31.1325C287.219 29.9897 287.367 28.8427 287.734 27.7575L287.682 27.6974C287.133 28.9782 286.903 30.3728 287.012 31.7618C287.024 31.9139 287.024 32.0667 287.012 32.2188Z" fill="black"/>
</g>
<path opacity="0.1" d="M291.858 52.3686C291.858 52.3686 303.518 53.9158 304.565 52.1642L291.858 52.3686Z" fill="black"/>
<path opacity="0.1" d="M314.524 47.5465C314.524 47.5465 321.006 47.5465 322.43 49.9836L314.524 47.5465Z" fill="black"/>
<path d="M350.789 264.056C348.867 265.773 346.368 266.706 343.79 266.669C343.132 266.669 342.222 266.793 342.218 267.451C342.233 267.643 342.3 267.829 342.41 267.988C343.224 269.344 344.509 270.352 346.02 270.822C347.424 271.246 348.924 271.174 350.388 271.098L354.66 270.878C355.462 270.834 356.265 270.794 357.067 270.693C357.869 270.593 358.743 270.429 359.582 270.293C361.642 270 363.725 269.903 365.803 270.004C366.356 270.024 367.006 270.004 367.335 269.603C367.664 269.202 367.496 268.437 367.371 267.835C367.115 266.597 367.371 265.298 367.135 264.056C366.734 261.875 364.844 260.204 362.775 259.414C360.849 258.684 357.44 257.847 355.619 259.065C353.697 260.344 352.522 262.48 350.789 264.056Z" fill="#3F3D56"/>
<path d="M355.033 191C355.41 192.792 357.147 194.163 357.195 195.99C357.239 197.457 356.192 198.688 355.438 199.943C354.728 201.242 354.128 202.599 353.645 203.999C352.226 207.644 350.464 211.147 348.383 214.461C347.38 216.064 346.257 217.776 346.486 219.639C346.645 220.511 346.953 221.349 347.396 222.117L350.404 228.089C351.063 229.281 351.579 230.547 351.941 231.861C352.201 232.995 352.225 234.17 352.378 235.324C352.851 238.988 354.572 242.675 353.553 246.227C353.465 246.531 353.152 246.9 352.907 246.688C353.902 248.543 354.7 250.411 354.624 252.516C354.584 253.618 354.247 254.768 354.652 255.794C354.825 256.223 355.125 256.624 355.121 257.085C355.121 257.39 354.981 257.674 354.949 257.971C354.865 258.817 355.643 259.522 356.449 259.791C357.255 260.059 358.134 260.039 358.948 260.284C360.512 260.753 361.632 262.1 362.959 263.033C364.321 263.971 365.927 264.493 367.58 264.537C367.816 264.562 368.054 264.514 368.262 264.4C368.38 264.297 368.474 264.17 368.539 264.028C368.604 263.886 368.638 263.731 368.639 263.575C368.712 262.826 368.599 262.071 368.311 261.376C368.023 260.681 367.568 260.068 366.986 259.59C366.732 259.431 366.521 259.21 366.373 258.949C366.298 258.718 366.279 258.472 366.317 258.231C366.559 254.946 366.5 251.646 366.14 248.371C365.978 247.333 365.925 246.281 365.984 245.233C366.068 244.359 366.333 243.493 366.236 242.623C366.14 241.753 365.695 240.96 365.434 240.122C364.969 238.631 365.097 237.028 365.033 235.468C364.953 232.759 364.331 230.097 363.713 227.452C363.469 226.413 363.2 225.327 362.466 224.558C361.84 223.904 360.829 223.279 361.066 222.409C361.197 222.089 361.392 221.798 361.64 221.555C361.93 221.191 362.143 220.772 362.266 220.322C362.389 219.873 362.419 219.403 362.354 218.942C362.617 219.009 362.896 218.983 363.143 218.867C363.39 218.752 363.588 218.554 363.705 218.309C368.591 216.004 372.53 211.394 374.287 206.284C374.39 205.904 374.55 205.542 374.76 205.21C375.213 204.576 375.999 204.304 376.697 203.955C378.887 202.853 380.4 200.788 381.787 198.768C382.59 197.598 383.392 196.387 383.753 195.008C383.943 194.117 384.033 193.206 384.022 192.295L384.146 187.585C384.173 187.275 384.143 186.962 384.058 186.663C383.939 186.383 383.766 186.13 383.548 185.917C382.214 184.508 380.462 183.563 378.55 183.224C377.267 182.995 375.955 183.04 374.656 182.931C372.137 182.723 369.65 181.941 367.131 182.13C363.172 182.422 359.646 185.164 357.781 188.667C357.127 189.902 356.437 190.976 355.033 191Z" fill="#464353"/>
<path d="M333.052 160.377C333.105 161.104 333.007 161.834 332.763 162.521C332.454 163.178 331.68 163.691 331.002 163.423C331.207 162.962 330.665 162.437 330.16 162.493C329.911 162.55 329.68 162.667 329.487 162.833C329.293 162.999 329.143 163.21 329.049 163.447C328.714 164.12 328.601 164.882 328.728 165.623C328.888 166.545 329.422 167.431 329.281 168.357C329.169 169.127 328.603 169.892 328.904 170.606C329.099 170.932 329.344 171.225 329.63 171.476C330.027 171.963 330.221 172.585 330.172 173.211C330.124 173.837 329.836 174.421 329.37 174.843L336.959 174.995C336.682 176.261 337.251 177.556 337.901 178.683C339.721 181.779 342.234 184.412 345.244 186.376C348.253 188.339 351.676 189.579 355.245 189.998C355.052 190.111 354.887 190.265 354.761 190.449C354.635 190.633 354.551 190.843 354.516 191.064C354.481 191.284 354.496 191.51 354.559 191.724C354.622 191.939 354.732 192.136 354.88 192.303C355.498 192.916 356.545 192.84 357.319 192.443C358.093 192.046 358.699 191.389 359.405 190.88C360.651 189.997 362.172 189.588 363.693 189.725C364.643 189.818 365.566 190.126 366.521 190.174C369.328 190.323 371.735 188.302 374.439 187.477C376.408 186.871 378.642 186.871 380.295 185.641C381.009 185.112 381.595 184.242 381.386 183.384C381.213 182.891 380.94 182.439 380.584 182.057C379.633 180.827 379.072 179.348 378.39 177.949C377.039 175.179 375.179 172.688 372.906 170.606C371.191 169.108 369.374 167.731 367.467 166.485C367.006 166.145 366.515 165.849 365.999 165.599C365.333 165.307 364.595 165.166 363.994 164.798C363.103 164.237 362.59 163.246 361.904 162.449C360.4 160.693 358.089 159.888 356.236 158.509C354.993 157.583 353.894 156.364 352.41 155.919C351.688 155.699 350.921 155.683 350.199 155.466C348.559 154.969 347.364 153.514 345.755 152.925C344.484 152.46 343.08 152.58 341.744 152.416C340.238 152.23 338.8 151.683 337.552 150.821C337.15 150.494 336.7 150.231 336.217 150.043C334.183 149.426 334.019 153.21 333.81 154.52C333.541 156.468 333.052 158.404 333.052 160.377Z" fill="#6C63FF"/>
<path d="M335.033 173.067C335.374 176.763 332.583 180.342 333.397 183.962C333.569 184.731 333.902 185.465 334.023 186.246C334.363 188.391 333.08 190.423 331.856 192.219L321.347 207.631C320.925 208.307 320.422 208.929 319.847 209.483C317.842 211.266 314.825 211.086 312.186 211.615C310.332 211.996 308.581 212.769 307.052 213.884C306.983 213.937 306.938 214.015 306.926 214.101C306.914 214.187 306.936 214.275 306.988 214.345C307.423 214.938 308.001 215.412 308.667 215.725C309.333 216.038 310.067 216.179 310.802 216.136C311.079 216.497 310.802 217.034 310.421 217.295C309.859 217.696 309.081 217.788 308.969 218.746C308.931 219.079 308.998 219.415 309.162 219.708C309.586 220.354 310.245 220.81 310.999 220.982C314.637 222.097 318.568 220.141 321.291 217.483C324.015 214.826 325.968 211.471 328.64 208.769C330.12 207.27 331.8 205.991 333.325 204.54C336.365 201.642 338.732 198.127 341.01 194.604C341.696 193.541 342.39 192.451 342.675 191.221C342.959 189.99 342.827 188.743 343.152 187.553C343.577 185.994 344.72 184.747 345.671 183.44C347.536 180.875 348.783 177.737 348.535 174.574C348.286 171.412 346.329 168.293 343.344 167.219C342.419 166.851 341.4 166.79 340.436 167.042C339.213 167.419 338.31 168.429 337.476 169.399L335.471 171.7C334.982 172.21 334.599 172.81 334.343 173.468C334.214 173.799 334.183 174.161 334.254 174.509C334.325 174.857 334.496 175.178 334.745 175.432" fill="#FBBEBE"/>
<path d="M340.36 157.907C338.98 157.988 337.46 158.124 336.485 159.11C336.077 159.563 335.746 160.08 335.507 160.641C334.56 162.569 333.638 164.585 333.569 166.734C333.513 168.449 334.011 170.129 334.271 171.824C334.488 173.235 333.938 174.674 333.834 176.101C335.547 175.576 337.809 174.863 339.361 173.977C340.42 173.372 341.443 172.682 342.598 172.297C344.247 171.748 347.011 172.698 348.579 173.46C348.663 172.361 347.837 170.445 347.925 169.343C347.937 168.879 348.02 168.42 348.17 167.98C348.404 167.516 348.682 167.074 349 166.662C349.597 165.692 349.872 164.558 349.785 163.422C349.697 162.287 349.253 161.208 348.515 160.34C347.123 158.777 344.945 158.192 342.867 157.935C341.559 157.784 340.24 157.738 338.924 157.799" fill="#6C63FF"/>
<defs>
<linearGradient id="paint0_linear" x1="283.274" y1="218.926" x2="283.274" y2="23.0557" gradientUnits="userSpaceOnUse">
<stop stop-color="#808080" stop-opacity="0.25"/>
<stop offset="0.54" stop-color="#808080" stop-opacity="0.12"/>
<stop offset="1" stop-color="#808080" stop-opacity="0.1"/>
</linearGradient>
</defs>
</svg>
