<svg width="42" height="24" viewBox="0 0 42 24" fill="none" xmlns="http://www.w3.org/2000/svg">
<rect width="42" height="24" fill="white"/>
<path fill-rule="evenodd" clip-rule="evenodd" d="M26.1428 8.31204C25.2713 8.42052 24.8732 8.83818 24.8631 9.22872C24.8499 9.78803 25.5352 10.1957 26.3626 10.688C27.439 11.3285 28.7559 12.112 29.0887 13.5585C29.0771 15.8258 27.0027 17.2958 23.8411 17.2958C22.489 17.2822 21.1876 17.0178 20.4841 16.7154L21.0284 14.322L21.1039 14.3547C21.795 14.654 22.6645 15.0305 24.1292 15.0109C24.9948 14.9973 25.9257 14.6759 25.9315 13.9423C25.9387 13.4609 25.5435 13.1192 24.368 12.5863C23.2273 12.0628 21.7116 11.1828 21.7276 9.61248C21.7464 7.48622 23.8425 6 26.8246 6C27.9842 6 28.9222 6.23866 29.6461 6.48682L29.1177 8.79886C27.7656 8.21983 26.5756 8.25916 26.1428 8.31204ZM33.0121 6.87493C33.2265 6.37225 33.7098 6.0497 34.2816 6.0497H36.8249L39.2267 17.2957H36.4647L36.1073 15.6159H32.2944L31.674 17.2957H28.5445L33.0121 6.87493ZM34.7333 9.08809L33.1507 13.312H35.624L34.7333 9.08809ZM17.8912 6.20207L15.3998 17.1236H18.4152L20.9037 6.20207H17.8912ZM10.4707 13.7043L13.454 6.0497H16.4689L11.8247 17.2957H8.79323L6.50484 8.32012C6.36861 7.76718 6.24751 7.56471 5.82644 7.33013C5.13703 6.95173 3.99902 6.59846 3 6.37505L3.06605 6.0497H7.94282C8.56618 6.0497 9.12486 6.46999 9.26384 7.19608L10.4707 13.7043Z" fill="#1A1F71"/>
</svg>
